<svg id="visual" viewBox="0 0 900 600" width="900" height="600" xmlns="http://www.w3.org/2000/svg" xmlns:xlink="http://www.w3.org/1999/xlink" version="1.1"><rect x="0" y="0" width="900" height="600" fill="#002233"></rect><path d="M0 488L18.8 476C37.7 464 75.3 440 112.8 429.2C150.3 418.3 187.7 420.7 225.2 424C262.7 427.3 300.3 431.7 337.8 445C375.3 458.3 412.7 480.7 450.2 495.3C487.7 510 525.3 517 562.8 525C600.3 533 637.7 542 675.2 537.5C712.7 533 750.3 515 787.8 488.2C825.3 461.3 862.7 425.7 881.3 407.8L900 390L900 601L881.3 601C862.7 601 825.3 601 787.8 601C750.3 601 712.7 601 675.2 601C637.7 601 600.3 601 562.8 601C525.3 601 487.7 601 450.2 601C412.7 601 375.3 601 337.8 601C300.3 601 262.7 601 225.2 601C187.7 601 150.3 601 112.8 601C75.3 601 37.7 601 18.8 601L0 601Z" fill="#0066FF" stroke-linecap="round" stroke-linejoin="miter"></path></svg>