<svg width="41" height="41" viewBox="0 0 41 41" fill="none" xmlns="http://www.w3.org/2000/svg">
<path fill-rule="evenodd" clip-rule="evenodd" d="M31.3272 31.927C32.9422 30.4094 34.2288 28.5768 35.1075 26.5423C35.9861 24.5078 36.4381 22.3147 36.4356 20.0986C36.4356 11.1236 29.1606 3.84863 20.1856 3.84863C11.2106 3.84863 3.93556 11.1236 3.93556 20.0986C3.93299 22.3147 4.385 24.5078 5.26364 26.5423C6.14228 28.5768 7.42888 30.4094 9.04389 31.927C12.0555 34.7718 16.0428 36.3542 20.1856 36.3486C24.3283 36.3542 28.3157 34.7718 31.3272 31.927ZM10.4272 29.7853C11.5974 28.3214 13.0822 27.1399 14.7716 26.3285C16.461 25.5171 18.3114 25.0968 20.1856 25.0986C22.0597 25.0968 23.9101 25.5171 25.5995 26.3285C27.2889 27.1399 28.7738 28.3214 29.9439 29.7853C28.6673 31.0748 27.1473 32.098 25.4722 32.7955C23.7971 33.493 22.0001 33.851 20.1856 33.8486C18.371 33.851 16.5741 33.493 14.8989 32.7955C13.2238 32.098 11.7038 31.0748 10.4272 29.7853ZM26.4356 15.0986C26.4356 16.7562 25.7771 18.3459 24.605 19.5181C23.4329 20.6902 21.8432 21.3486 20.1856 21.3486C18.528 21.3486 16.9382 20.6902 15.7661 19.5181C14.594 18.3459 13.9356 16.7562 13.9356 15.0986C13.9356 13.441 14.594 11.8513 15.7661 10.6792C16.9382 9.50711 18.528 8.84863 20.1856 8.84863C21.8432 8.84863 23.4329 9.50711 24.605 10.6792C25.7771 11.8513 26.4356 13.441 26.4356 15.0986Z" fill="black"/>
</svg>
