<svg width="25" height="25" viewBox="0 0 25 25" fill="none" xmlns="http://www.w3.org/2000/svg">
<g clip-path="url(#clip0_8_184)">
<path d="M23.8755 4.46374C23.8755 2.47616 22.0886 0.722412 20.0635 0.722412H4.69668C2.67161 0.722412 0.884766 2.47616 0.884766 4.46374V19.5459C0.884766 21.5335 2.67161 23.2874 4.69668 23.2874H12.4396V14.7524H9.58071V11.0111H12.4396V9.49116C12.4396 6.91899 14.3456 4.69757 16.7281 4.69757H19.8252V8.4389H16.7281C16.3707 8.4389 16.0133 8.78965 16.0133 9.49116V11.0111H19.8252V14.7524H16.0133V23.2874H20.0635C22.0886 23.2874 23.8755 21.5335 23.8755 19.5459V4.46374Z" fill="white"/>
</g>
<defs>
<clipPath id="clip0_8_184">
<rect width="24" height="24" fill="white" transform="translate(0.185547 0.239136)"/>
</clipPath>
</defs>
</svg>
