<svg width="41" height="41" viewBox="0 0 41 41" fill="none" xmlns="http://www.w3.org/2000/svg">
<path fill-rule="evenodd" clip-rule="evenodd" d="M19.3187 3.84863C17.7904 3.84863 16.487 4.95363 16.2354 6.4603L15.9387 8.24697C15.9054 8.44697 15.747 8.6803 15.4437 8.82697C14.8726 9.10148 14.3232 9.41907 13.8004 9.77697C13.5237 9.96863 13.2437 9.98697 13.0504 9.9153L11.3554 9.27863C10.6624 9.01903 9.89986 9.01374 9.20339 9.2637C8.50692 9.51366 7.92174 10.0026 7.55203 10.6436L6.01536 13.3053C5.64551 13.9459 5.51488 14.6969 5.64672 15.4248C5.77856 16.1526 6.16431 16.8101 6.73536 17.2803L8.13536 18.4336C8.29369 18.5636 8.41869 18.8153 8.39203 19.1503C8.34453 19.7822 8.34453 20.4167 8.39203 21.0486C8.41703 21.382 8.29369 21.6353 8.13703 21.7653L6.73536 22.9186C6.16431 23.3888 5.77856 24.0463 5.64672 24.7742C5.51488 25.502 5.64551 26.253 6.01536 26.8936L7.55203 29.5553C7.922 30.196 8.50729 30.6846 9.20374 30.9343C9.90018 31.1839 10.6626 31.1784 11.3554 30.9186L13.0537 30.282C13.2454 30.2103 13.5254 30.2303 13.8037 30.4186C14.3237 30.7753 14.872 31.0936 15.4454 31.3686C15.7487 31.5153 15.907 31.7486 15.9404 31.952L16.237 33.737C16.4887 35.2436 17.792 36.3486 19.3204 36.3486H22.3937C23.9204 36.3486 25.2254 35.2436 25.477 33.737L25.7737 31.9503C25.807 31.7503 25.9637 31.517 26.2687 31.3686C26.842 31.0936 27.3904 30.7753 27.9104 30.4186C28.1887 30.2286 28.4687 30.2103 28.6604 30.282L30.3604 30.9186C31.0529 31.1773 31.8147 31.1822 32.5104 30.9322C33.2061 30.6823 33.7908 30.1939 34.1604 29.5536L35.6987 26.892C36.0685 26.2514 36.1992 25.5003 36.0673 24.7725C35.9355 24.0446 35.5497 23.3871 34.9787 22.917L33.5787 21.7636C33.4204 21.6336 33.2954 21.382 33.322 21.047C33.3694 20.4151 33.3694 19.7805 33.322 19.1486C33.2954 18.8153 33.4204 18.562 33.577 18.432L34.977 17.2786C36.157 16.3086 36.462 14.6286 35.6987 13.3036L34.162 10.642C33.792 10.0013 33.2068 9.51264 32.5103 9.26299C31.8139 9.01334 31.0514 9.01889 30.3587 9.27863L28.6587 9.9153C28.4687 9.98697 28.1887 9.96697 27.9104 9.77697C27.388 9.41913 26.8392 9.10154 26.2687 8.82697C25.9637 8.68197 25.807 8.44863 25.7737 8.24697L25.4754 6.4603C25.3538 5.73041 24.9772 5.06733 24.4126 4.58908C23.848 4.11083 23.132 3.84845 22.392 3.84863H19.3204H19.3187ZM20.8554 26.3486C22.513 26.3486 24.1027 25.6902 25.2748 24.518C26.4469 23.3459 27.1054 21.7562 27.1054 20.0986C27.1054 18.441 26.4469 16.8513 25.2748 15.6792C24.1027 14.5071 22.513 13.8486 20.8554 13.8486C19.1978 13.8486 17.608 14.5071 16.4359 15.6792C15.2638 16.8513 14.6054 18.441 14.6054 20.0986C14.6054 21.7562 15.2638 23.3459 16.4359 24.518C17.608 25.6902 19.1978 26.3486 20.8554 26.3486Z" fill="black"/>
</svg>
