<svg width="41" height="41" viewBox="0 0 41 41" fill="none" xmlns="http://www.w3.org/2000/svg">
<path d="M19.9224 2.74843C20.1047 2.65011 20.3086 2.59863 20.5157 2.59863C20.7229 2.59863 20.9268 2.65011 21.1091 2.74843L37.3591 11.4984C37.5575 11.6055 37.7233 11.7643 37.8388 11.958C37.9543 12.1516 38.0153 12.3729 38.0153 12.5984C38.0153 12.8239 37.9543 13.0452 37.8388 13.2389C37.7233 13.4325 37.5575 13.5913 37.3591 13.6984L21.1091 22.4484C20.9268 22.5467 20.7229 22.5982 20.5157 22.5982C20.3086 22.5982 20.1047 22.5467 19.9224 22.4484L3.6724 13.6984C3.47396 13.5913 3.30819 13.4325 3.19265 13.2389C3.07711 13.0452 3.01611 12.8239 3.01611 12.5984C3.01611 12.3729 3.07711 12.1516 3.19265 11.958C3.30819 11.7643 3.47396 11.6055 3.6724 11.4984L19.9224 2.74843Z" fill="black"/>
<path d="M5.95719 17.7688L18.7372 24.6504C19.2837 24.9448 19.8948 25.0989 20.5155 25.0989C21.1363 25.0989 21.7473 24.9448 22.2939 24.6504L35.0739 17.7671L37.3572 18.9988C37.5556 19.1059 37.7214 19.2647 37.8369 19.4583C37.9525 19.652 38.0135 19.8733 38.0135 20.0988C38.0135 20.3243 37.9525 20.5456 37.8369 20.7392C37.7214 20.9329 37.5556 21.0917 37.3572 21.1988L21.1072 29.9488C20.9253 30.0465 20.722 30.0977 20.5155 30.0977C20.309 30.0977 20.1058 30.0465 19.9239 29.9488L3.67386 21.1988C3.47542 21.0917 3.30965 20.9329 3.19411 20.7392C3.07858 20.5456 3.01758 20.3243 3.01758 20.0988C3.01758 19.8733 3.07858 19.652 3.19411 19.4583C3.30965 19.2647 3.47542 19.1059 3.67386 18.9988L5.95719 17.7688Z" fill="black"/>
<path d="M18.7372 32.1504L5.95719 25.2671L3.67386 26.4988C3.47542 26.6059 3.30965 26.7647 3.19411 26.9583C3.07858 27.152 3.01758 27.3733 3.01758 27.5988C3.01758 27.8243 3.07858 28.0456 3.19411 28.2392C3.30965 28.4329 3.47542 28.5917 3.67386 28.6988L19.9239 37.4488C20.2922 37.6488 20.7389 37.6488 21.1072 37.4488L37.3572 28.6988C37.5556 28.5917 37.7214 28.4329 37.8369 28.2392C37.9525 28.0456 38.0135 27.8243 38.0135 27.5988C38.0135 27.3733 37.9525 27.152 37.8369 26.9583C37.7214 26.7647 37.5556 26.6059 37.3572 26.4988L35.0739 25.2688L22.2939 32.1521C21.7472 32.4462 21.1361 32.6 20.5153 32.5997C19.8946 32.5994 19.2836 32.4451 18.7372 32.1504Z" fill="black"/>
</svg>
