<svg width="25" height="25" viewBox="0 0 25 25" fill="none" xmlns="http://www.w3.org/2000/svg">
<g clip-path="url(#clip0_8_187)">
<g clip-path="url(#clip1_8_187)">
<g clip-path="url(#clip2_8_187)">
<path d="M3.61546 17.1971C2.72138 17.1971 1.95505 17.4479 1.44414 18.0747C0.805516 18.7015 0.550049 19.4537 0.550049 20.2058C0.550049 21.0834 0.805516 21.8355 1.44414 22.337C2.08278 22.9638 2.84911 23.2145 3.61546 23.2145C4.50954 23.2145 5.27591 22.9638 5.78682 22.337C6.42545 21.7102 6.68091 20.9579 6.68091 20.2058C6.68091 19.3283 6.42545 18.5762 5.78682 18.0747C5.27591 17.4479 4.50954 17.1971 3.61546 17.1971Z" fill="white"/>
<path d="M10.8959 13.1856C9.61864 11.932 8.21367 11.0545 6.68096 10.3023C5.14826 9.55015 3.48779 9.17407 1.69963 9.04871H1.57192C1.31648 9.04871 1.06102 9.17407 0.805565 9.29943C0.550113 9.55015 0.422363 9.80085 0.422363 10.0516V12.1827C0.422363 12.4334 0.550105 12.6842 0.677831 12.8095C0.805557 13.0602 1.06101 13.0602 1.31646 13.1856C3.87098 13.4363 5.91459 14.4392 7.70275 16.1943C9.49092 17.9494 10.5127 20.0804 10.7682 22.4623C10.7682 22.713 10.8959 22.9638 11.1514 23.0891C11.4068 23.2144 11.5345 23.3398 11.9177 23.3398H14.0891C14.3446 23.3398 14.5999 23.2144 14.8554 22.9638C15.1108 22.713 15.1108 22.4623 15.1108 22.2116C14.9831 20.4566 14.4722 18.8268 13.8336 17.3224C13.0672 15.6928 12.0454 14.3139 10.8959 13.1856Z" fill="white"/>
<path d="M21.4971 14.1884C20.3476 11.6813 18.6872 9.29943 16.6436 7.41902C14.5999 5.41324 12.3009 3.90892 9.74638 2.65531C7.19186 1.52707 4.3819 0.900264 1.57192 0.774902C1.31648 0.774902 1.06102 0.90026 0.805565 1.02562C0.550113 1.27634 0.422363 1.52707 0.422363 1.77779V4.03428C0.422363 4.285 0.550105 4.53572 0.677831 4.78644C0.805557 5.03716 1.06101 5.03715 1.31646 5.03715C3.61552 5.16251 5.9146 5.66396 7.95822 6.66684C10.0018 7.66974 11.9177 8.79798 13.4504 10.4277C14.9831 11.932 16.2604 13.6871 17.2822 15.8182C18.304 17.8239 18.8148 20.0804 18.9426 22.337C18.9426 22.5876 19.0703 22.8383 19.198 22.9638C19.4535 23.0891 19.5812 23.2144 19.9644 23.2144H22.2635C22.519 23.2144 22.7744 23.0891 23.0299 22.8384C23.2854 22.5876 23.2854 22.337 23.2854 22.0862C23.2854 19.4536 22.6467 16.8211 21.4971 14.1884Z" fill="white"/>
</g>
</g>
</g>
<defs>
<clipPath id="clip0_8_187">
<rect width="24" height="24" fill="white" transform="translate(0.185547 0.239136)"/>
</clipPath>
<clipPath id="clip1_8_187">
<rect width="24" height="24" fill="white" transform="translate(0.185547 0.239136)"/>
</clipPath>
<clipPath id="clip2_8_187">
<rect width="24" height="24" fill="white" transform="translate(0.185547 0.239136)"/>
</clipPath>
</defs>
</svg>
