<svg width="25" height="20" viewBox="0 0 25 20" fill="none" xmlns="http://www.w3.org/2000/svg">
<g clip-path="url(#clip0_8_194)">
<g clip-path="url(#clip1_8_194)">
<g clip-path="url(#clip2_8_194)">
<path d="M23.897 2.77392C23.0657 3.13023 22.1155 3.36777 21.1654 3.48654C22.1155 2.8927 22.9468 1.94256 23.3032 0.873642C22.353 1.46748 21.4029 1.82379 20.2152 2.06132C19.3838 1.11118 18.0773 0.517334 16.7709 0.517334C14.158 0.517334 12.0202 2.65516 12.0202 5.26806C12.0202 5.62438 12.0202 5.98068 12.1389 6.33697C8.21958 6.09944 4.65653 4.19916 2.28116 1.34871C1.92485 2.06132 1.68731 2.8927 1.68731 3.72408C1.68731 5.38684 2.5187 6.81206 3.82516 7.64343C2.99377 7.64343 2.28116 7.4059 1.68731 7.0496C1.68731 9.30619 3.35007 11.3252 5.4879 11.6816C5.13159 11.8003 4.65653 11.8003 4.18146 11.8003C3.82516 11.8003 3.58762 11.8003 3.23131 11.6816C3.82516 13.5819 5.60668 15.0071 7.74451 15.0071C6.08175 16.3136 4.06269 17.0261 1.80609 17.0261C1.44979 17.0261 1.09348 17.0261 0.618408 16.9074C2.75624 18.2139 5.25038 19.0453 7.98205 19.0453C16.7709 19.0453 21.5216 11.8003 21.5216 5.5056V4.91177C22.4717 4.55545 23.3032 3.72407 23.897 2.77392Z" fill="white"/>
</g>
</g>
</g>
<defs>
<clipPath id="clip0_8_194">
<rect width="24" height="18.94" fill="white" transform="translate(0.185547 0.239136)"/>
</clipPath>
<clipPath id="clip1_8_194">
<rect width="24" height="18.94" fill="white" transform="translate(0.185547 0.239136)"/>
</clipPath>
<clipPath id="clip2_8_194">
<rect width="24" height="18.9474" fill="white" transform="translate(0.185547 0.235474)"/>
</clipPath>
</defs>
</svg>
