<svg width="120" height="115" viewBox="0 0 120 115" fill="none" xmlns="http://www.w3.org/2000/svg">
<path d="M16.0977 101.248V103.335H31.7215V101.248H16.0977Z" fill="#E0E0E0"/>
<path d="M18.2252 101.335C18.2793 101.335 18.3234 101.773 18.3234 102.312C18.3234 102.852 18.2793 103.29 18.2252 103.29C18.1708 103.29 18.127 102.852 18.127 102.312C18.127 101.773 18.1711 101.335 18.2252 101.335Z" fill="#FAFAFA"/>
<path d="M17.8873 101.292C17.9417 101.292 17.9855 101.73 17.9855 102.27C17.9855 102.81 17.9417 103.248 17.8873 103.248C17.8332 103.248 17.7891 102.81 17.7891 102.27C17.7891 101.73 17.8332 101.292 17.8873 101.292Z" fill="#FAFAFA"/>
<path d="M30.5123 101.335C30.5667 101.335 30.6105 101.773 30.6105 102.312C30.6105 102.852 30.5667 103.29 30.5123 103.29C30.4582 103.29 30.4141 102.852 30.4141 102.312C30.4143 101.773 30.4582 101.335 30.5123 101.335Z" fill="#FAFAFA"/>
<path d="M30.1725 101.292C30.2266 101.292 30.2707 101.73 30.2707 102.27C30.2707 102.81 30.2266 103.248 30.1725 103.248C30.1183 103.248 30.0742 102.81 30.0742 102.27C30.0742 101.73 30.1181 101.292 30.1725 101.292Z" fill="#FAFAFA"/>
<path d="M28.1297 102.355C28.1297 102.409 26.3401 102.453 24.1333 102.453C21.9258 102.453 20.1367 102.409 20.1367 102.355C20.1367 102.301 21.9258 102.257 24.1333 102.257C26.3401 102.257 28.1297 102.301 28.1297 102.355Z" fill="#FAFAFA"/>
<path d="M16.0293 110.646V114.82H31.6531V110.646H16.0293Z" fill="#E0E0E0"/>
<path d="M31.8534 113.646C31.8548 113.649 31.8262 113.666 31.7685 113.695C31.7113 113.725 31.6242 113.765 31.5082 113.814C31.2759 113.909 30.9254 114.043 30.4489 114.117C29.9805 114.184 29.3519 114.202 28.7301 113.873C28.4248 113.71 28.1345 113.462 27.9136 113.133C27.6977 112.805 27.559 112.376 27.6295 111.931C27.6669 111.709 27.7596 111.49 27.9167 111.309C28.0693 111.128 28.3144 110.994 28.5755 111.01C28.8372 111.022 29.0736 111.172 29.2376 111.367C29.403 111.563 29.5165 111.814 29.5398 112.079C29.6017 112.608 29.3789 113.157 29.0012 113.559C28.6296 113.974 28.074 114.228 27.4999 114.293C26.9218 114.361 26.3241 114.27 25.7569 114.076C25.1899 113.88 24.6297 113.562 24.2342 113.053C24.0402 112.799 23.9001 112.485 23.8793 112.151C23.8504 111.819 23.9564 111.461 24.212 111.214C24.3391 111.09 24.5167 111.007 24.7007 110.999C24.885 110.991 25.0628 111.05 25.2116 111.143C25.5129 111.33 25.7055 111.65 25.7866 111.985C25.9334 112.668 25.6634 113.379 25.1705 113.824C24.6763 114.274 24.0291 114.473 23.4114 114.54C22.7895 114.603 22.164 114.556 21.5879 114.361C21.014 114.17 20.4979 113.792 20.2007 113.282C19.8985 112.784 19.7994 112.153 20.027 111.624C20.1338 111.362 20.3752 111.129 20.6644 111.085C20.9461 111.032 21.2341 111.11 21.4514 111.274C21.8923 111.624 21.9659 112.224 21.8235 112.681C21.6789 113.15 21.3631 113.51 21.036 113.79C20.368 114.354 19.5774 114.598 18.8934 114.622C18.2021 114.647 17.621 114.456 17.1959 114.237C16.7677 114.014 16.4857 113.761 16.3106 113.58C16.2246 113.488 16.1616 113.416 16.1236 113.363C16.0844 113.312 16.0659 113.285 16.0686 113.283C16.0886 113.256 16.3814 113.738 17.2303 114.168C17.6515 114.373 18.2207 114.546 18.8886 114.512C19.5502 114.478 20.3108 114.232 20.9458 113.684C21.258 113.413 21.5516 113.065 21.6784 112.638C21.806 112.224 21.7231 111.688 21.3534 111.404C21.1728 111.268 20.9244 111.204 20.6966 111.249C20.4649 111.288 20.2812 111.464 20.1857 111.693C19.9887 112.156 20.075 112.731 20.3564 113.189C20.6325 113.657 21.1059 114.003 21.6492 114.183C22.192 114.366 22.7959 114.41 23.3911 114.348C23.9825 114.283 24.5891 114.091 25.0392 113.679C25.4835 113.281 25.7261 112.627 25.5954 112.029C25.5246 111.737 25.357 111.463 25.1081 111.309C24.8641 111.148 24.5453 111.153 24.3463 111.356C24.1446 111.551 24.0469 111.853 24.0735 112.138C24.0913 112.428 24.212 112.705 24.3882 112.936C24.7465 113.402 25.2782 113.711 25.8179 113.898C26.3638 114.086 26.9354 114.175 27.4791 114.112C28.0216 114.052 28.5291 113.823 28.8758 113.44C29.2279 113.071 29.4313 112.569 29.3789 112.096C29.3408 111.637 28.9906 111.189 28.5686 111.161C28.3604 111.147 28.1612 111.25 28.0263 111.405C27.8889 111.56 27.8021 111.757 27.7674 111.954C27.6994 112.357 27.8201 112.754 28.0194 113.065C28.2228 113.377 28.4958 113.617 28.7839 113.777C29.3669 114.099 29.9797 114.096 30.4395 114.041C30.9082 113.981 31.2598 113.859 31.4948 113.777C31.7291 113.691 31.85 113.639 31.8534 113.646Z" fill="#FAFAFA"/>
<path d="M17.4258 103.396V110.639H31.6543V103.396H17.4258Z" fill="#EBEBEB"/>
<path d="M19.7877 103.644C19.8421 103.644 19.8859 105.214 19.8859 107.149C19.8859 109.086 19.8421 110.655 19.7877 110.655C19.7333 110.655 19.6895 109.086 19.6895 107.149C19.6895 105.214 19.7333 103.644 19.7877 103.644Z" fill="#E0E0E0"/>
<path d="M20.8678 103.555C20.9222 103.555 20.966 105.104 20.966 107.015C20.966 108.926 20.9219 110.475 20.8678 110.475C20.8137 110.475 20.7695 108.926 20.7695 107.015C20.7695 105.104 20.8137 103.555 20.8678 103.555Z" fill="#E0E0E0"/>
<path d="M30.0475 103.322C30.1018 103.322 30.1457 104.954 30.1457 106.966C30.1457 108.979 30.1018 110.61 30.0475 110.61C29.9933 110.61 29.9492 108.979 29.9492 106.966C29.9492 104.954 29.9933 103.322 30.0475 103.322Z" fill="#E0E0E0"/>
<path d="M28.7779 103.419C28.832 103.419 28.8762 105.009 28.8762 106.969C28.8762 108.93 28.832 110.52 28.7779 110.52C28.7238 110.52 28.6797 108.93 28.6797 106.969C28.6797 105.009 28.7235 103.419 28.7779 103.419Z" fill="#E0E0E0"/>
<path d="M105.365 87.5852C106.839 86.8243 108.576 86.7252 110.214 86.9958C111.094 87.1412 112.011 87.4045 112.609 88.0653C113.208 88.726 113.321 89.8891 112.634 90.4568C112.225 90.7948 111.654 90.8462 111.124 90.8401C109.842 90.8251 108.419 90.5995 107.395 91.3707C106.811 91.8108 106.422 92.5423 105.723 92.7587C105.04 92.9705 104.269 92.5673 103.906 91.9504C103.544 91.3335 103.532 90.5626 103.701 89.8671C103.701 89.8671 103.879 88.3517 105.365 87.5852Z" fill="#EBEBEB"/>
<path d="M101.986 81.0614C102.888 82.3495 104.641 81.923 105.454 81.1368C106.267 80.3504 106.61 79.211 106.923 78.1242C107.638 75.6411 108.358 73.0365 107.827 70.5078C107.668 69.7519 107.385 68.9979 106.854 68.4371C106.323 67.8762 105.506 67.5427 104.759 67.74C103.875 67.9736 103.326 68.8392 102.929 69.6628C101.762 72.0835 101.144 74.767 101.135 77.4541C101.13 78.7092 101.278 80.0252 101.986 81.0614Z" fill="#EBEBEB"/>
<path d="M99.5087 82.9099C100.488 81.7478 100.674 80.0525 100.238 78.5967C99.8023 77.1406 98.8177 75.9021 97.6833 74.8909C96.3529 73.7054 94.7894 72.7827 93.1083 72.1916C92.4467 71.959 91.7491 71.7756 91.0509 71.8422C90.3527 71.9088 89.6498 72.2657 89.3243 72.8867C88.8428 73.805 89.3043 74.9186 89.8038 75.8274C90.6835 77.4284 91.6892 78.9597 92.8086 80.403C93.7094 81.564 94.7409 82.7093 96.1134 83.2341C97.486 83.7588 98.9118 83.6972 99.6394 82.7451" fill="#EBEBEB"/>
<path d="M101.925 100.493C101.942 100.494 101.969 100.286 102.006 99.908C102.048 99.482 102.1 98.947 102.162 98.3106C102.236 97.6385 102.334 96.8385 102.521 95.9674C102.707 95.0985 102.999 94.1569 103.373 93.2018C103.76 92.2524 104.233 91.3896 104.785 90.6995C105.333 90.0063 105.971 89.5046 106.57 89.2154C107.168 88.9201 107.703 88.8005 108.074 88.7472C108.447 88.7089 108.656 88.6795 108.656 88.6629C108.657 88.6462 108.447 88.6434 108.063 88.6537C107.683 88.679 107.125 88.7753 106.495 89.0616C105.864 89.3419 105.187 89.8511 104.612 90.5588C104.033 91.2634 103.543 92.1453 103.149 93.1116C102.768 94.0834 102.481 95.0347 102.303 95.9224C102.126 96.8088 102.045 97.6174 101.992 98.2951C101.941 98.9733 101.922 99.5228 101.912 99.9024C101.904 100.282 101.908 100.492 101.925 100.493Z" fill="#E0E0E0"/>
<path d="M102.035 99.2642C102.043 99.2639 102.048 99.1701 102.051 98.9925C102.05 98.7885 102.049 98.5313 102.049 98.2157C102.047 97.5417 102.047 96.5662 102.083 95.3619C102.143 92.9528 102.35 90.3601 102.751 86.7051C103.13 83.2679 103.64 79.2679 104.177 76.6674C104.292 76.0761 104.408 75.5435 104.518 75.0776C104.622 74.6103 104.711 74.2076 104.796 73.8818C104.87 73.5752 104.93 73.3251 104.978 73.127C105.017 72.9536 105.033 72.8612 105.025 72.8589C105.017 72.8564 104.985 72.9441 104.931 73.1137C104.872 73.3091 104.797 73.5555 104.705 73.858C104.605 74.181 104.503 74.5809 104.386 75.0462C104.264 75.5102 104.136 76.0414 104.01 76.6319C103.478 78.9885 102.915 82.2819 102.511 85.9458C102.109 89.6086 101.928 92.9437 101.912 95.3588C101.898 96.5662 101.924 97.5439 101.954 98.2182C101.974 98.5338 101.989 98.7907 102.002 98.9944C102.015 99.1717 102.026 99.2647 102.035 99.2642Z" fill="#E0E0E0"/>
<path d="M102.052 92.8314C102.068 92.8308 102.065 92.5425 102.046 92.02C102.016 91.4986 101.944 90.7451 101.798 89.8219C101.642 88.9008 101.424 87.8074 101.083 86.6192C100.935 86.0761 100.587 84.7743 99.7435 82.8296C98.6327 80.1944 97.1236 78.0401 95.8105 76.7056C95.5027 76.3515 95.1597 76.0959 94.8853 75.8456C94.7432 75.7257 94.6178 75.6058 94.4901 75.5112C94.3616 75.4226 94.242 75.3402 94.1313 75.2636C93.6992 74.9681 93.4572 74.8124 93.4484 74.8263C93.4095 74.879 94.4163 75.4715 95.6873 76.8238C96.9532 78.1733 98.4201 80.3129 99.5221 82.9259C100.136 84.3431 100.565 85.6074 100.869 86.6805C101.22 87.8571 101.454 88.9397 101.63 89.8513C101.797 90.7651 101.894 91.511 101.953 92.0278C102 92.5453 102.035 92.8322 102.052 92.8314Z" fill="#E0E0E0"/>
<path d="M95.4023 103.202L96.047 112.032H107.391L108.036 103.202H95.4023Z" fill="#EBEBEB"/>
<path d="M109.389 99.7212H94.3066V103.202H109.389V99.7212Z" fill="#EBEBEB"/>
<path d="M94.3066 111.694V112.659H95.0154H109.14V111.694H94.3066Z" fill="#E0E0E0"/>
<path d="M95.7102 114.25L95.0156 112.552H108.6L107.79 114.25H95.7102Z" fill="#E0E0E0"/>
<path d="M107.823 106.088C107.826 106.09 107.808 106.117 107.77 106.169C107.725 106.228 107.67 106.302 107.601 106.393C107.44 106.6 107.218 106.883 106.94 107.239L106.911 107.277L106.882 107.238C106.467 106.663 105.912 105.896 105.258 104.992H105.352C104.869 105.676 104.331 106.438 103.754 107.255L103.703 107.326L103.647 107.26C103.057 106.558 102.417 105.795 101.752 105.004L101.861 105.003C101.828 105.044 101.792 105.089 101.757 105.134C101.169 105.871 100.6 106.584 100.062 107.259L100.005 107.33L99.9529 107.256C99.3773 106.442 98.8398 105.681 98.3536 104.993L98.4466 104.997C97.6585 105.895 96.9899 106.657 96.4768 107.241L96.4419 107.281L96.4152 107.236C96.1558 106.8 95.9485 106.452 95.7986 106.2C95.7342 106.088 95.6821 105.997 95.6404 105.924C95.6055 105.861 95.5891 105.828 95.5922 105.826C95.5952 105.824 95.6177 105.854 95.6582 105.913C95.7043 105.983 95.762 106.07 95.8333 106.179C95.9909 106.426 96.2082 106.768 96.4807 107.196L96.4191 107.191C96.9239 106.599 97.5816 105.828 98.3572 104.92L98.4061 104.862L98.4502 104.924C98.9405 105.609 99.4831 106.366 100.064 107.177L99.9554 107.174C100.492 106.498 101.06 105.784 101.646 105.045C101.682 105 101.718 104.956 101.751 104.914L101.805 104.847L101.86 104.913C102.523 105.706 103.162 106.47 103.751 107.173L103.645 107.177C104.228 106.364 104.771 105.606 105.259 104.925L105.306 104.859L105.352 104.925C105.992 105.838 106.535 106.614 106.942 107.195L106.884 107.194C107.174 106.846 107.404 106.57 107.571 106.369C107.646 106.283 107.706 106.213 107.755 106.156C107.798 106.109 107.821 106.085 107.823 106.088Z" fill="#F5F5F5"/>
<path d="M108.195 103.143C108.195 103.182 105.352 103.214 101.847 103.214C98.34 103.214 95.498 103.182 95.498 103.143C95.498 103.104 98.34 103.073 101.847 103.073C105.352 103.073 108.195 103.104 108.195 103.143Z" fill="#F5F5F5"/>
<path d="M43.5194 11.1564C43.5183 11.1589 43.4964 11.152 43.4547 11.1364C43.4048 11.1167 43.3446 11.0932 43.271 11.0643C43.0987 10.9927 42.865 10.8953 42.5706 10.7729C41.952 10.5079 41.079 10.1344 40.0059 9.67482C37.835 8.72909 34.8574 7.43175 31.5678 5.99871C31.4676 5.95486 31.3677 5.91102 31.2753 5.8705L31.3361 5.87078C28.1021 7.25387 25.1885 8.49959 23.0681 9.4062C22.0206 9.84632 21.1694 10.204 20.5664 10.4574C20.2798 10.5745 20.0522 10.6672 19.8843 10.7357C19.7278 10.7979 19.6446 10.8281 19.6426 10.8231C19.6407 10.8184 19.7198 10.7787 19.8724 10.7077C20.0378 10.6328 20.2612 10.5312 20.5434 10.4033C21.142 10.1394 21.9864 9.76668 23.0262 9.30796C25.1419 8.39053 28.0491 7.12982 31.2762 5.73036L31.3067 5.71704L31.3372 5.73036C31.4296 5.77088 31.5295 5.81472 31.6297 5.85857C34.9123 7.30742 37.8838 8.61919 40.05 9.57548C41.1151 10.0536 41.9812 10.4424 42.5953 10.7182C42.885 10.852 43.1148 10.9577 43.2843 11.036C43.3554 11.0704 43.4137 11.0987 43.462 11.1223C43.5008 11.1426 43.5205 11.1542 43.5194 11.1564Z" fill="#E0E0E0"/>
<path d="M56.6816 9.94482H2.48633V50.5236H56.6816V9.94482Z" fill="#E0E0E0"/>
<path d="M54.9925 11.8315H4.38281V48.8561H54.9925V11.8315Z" fill="#FAFAFA"/>
<path d="M15.5605 28.0078C15.5605 28.0078 15.6133 34.2231 15.9293 36.1193L23.7247 35.7505C23.7247 35.7505 23.0401 29.6407 23.3035 28.0078H15.5605Z" fill="#E0E0E0"/>
<path d="M19.4021 28.8868C19.4021 28.8859 19.4118 28.8848 19.4307 28.8837C19.4526 28.8829 19.4803 28.8818 19.5147 28.8804C19.5888 28.8751 19.6985 28.8804 19.8392 28.8965C19.9787 28.9187 20.1505 28.9564 20.3348 29.0438C20.5185 29.131 20.7086 29.2731 20.8742 29.4706C21.0338 29.6716 21.1801 29.921 21.248 30.2213C21.3121 30.5218 21.2797 30.8593 21.1662 31.1845C21.111 31.348 21.0358 31.5086 20.9472 31.666C20.8593 31.8231 20.771 31.981 20.6975 32.1522C20.5504 32.4924 20.4336 32.8668 20.3822 33.2583L20.3789 33.2841L20.3536 33.2847C20.1075 33.2886 19.8475 33.2927 19.5838 33.2972C19.3072 33.3016 19.0347 33.3058 18.7766 33.3097L18.748 33.3102L18.7469 33.2811C18.7336 32.889 18.5574 32.5318 18.3725 32.2157C18.279 32.0559 18.1766 31.9063 18.0806 31.7548C17.9868 31.6061 17.8814 31.4637 17.8067 31.3083C17.653 30.998 17.6266 30.6548 17.6846 30.3589C17.7404 30.0626 17.8386 29.7937 17.9854 29.5822C18.1314 29.3705 18.3173 29.2231 18.4927 29.1254C18.6692 29.0272 18.8351 28.9739 18.9714 28.9403C19.1082 28.9073 19.2164 28.8943 19.2897 28.8884C19.3263 28.8865 19.3543 28.8848 19.3732 28.8854C19.3924 28.8848 19.4021 28.8859 19.4021 28.8868C19.4021 28.8879 19.3924 28.8884 19.3738 28.8904C19.3521 28.8926 19.3249 28.8954 19.2911 28.899C19.2187 28.9081 19.1115 28.9245 18.9769 28.9606C18.8429 28.9969 18.68 29.0524 18.5082 29.1518C18.3373 29.2503 18.1578 29.3966 18.0179 29.6041C17.8777 29.8103 17.7831 30.0759 17.7307 30.3664C17.6763 30.6564 17.704 30.9861 17.8539 31.2853C17.9269 31.4359 18.0301 31.5741 18.1269 31.7259C18.2221 31.875 18.3262 32.0262 18.4211 32.1869C18.6084 32.5063 18.7907 32.8684 18.8057 33.28L18.776 33.2514C19.0344 33.2472 19.3069 33.2428 19.5833 33.2383C19.8469 33.2342 20.1069 33.2303 20.3531 33.2264L20.3245 33.2528C20.3778 32.8504 20.4963 32.4749 20.6464 32.1297C20.7208 31.9571 20.8124 31.7948 20.9001 31.6394C20.9877 31.4848 21.0624 31.3272 21.1171 31.1676C21.2297 30.8496 21.2627 30.5221 21.2028 30.231C21.1398 29.9413 20.9977 29.6926 20.844 29.4956C20.6842 29.3008 20.5002 29.1598 20.3215 29.0719C20.1422 28.9833 19.9737 28.9431 19.8361 28.9179C19.6973 28.8987 19.5886 28.8901 19.5147 28.8918C19.4803 28.8909 19.4529 28.8901 19.4309 28.8895C19.4118 28.8884 19.4021 28.8876 19.4021 28.8868Z" fill="white"/>
<path d="M19.8027 33.2166C19.8027 33.2166 19.8008 33.2083 19.798 33.1922C19.7952 33.175 19.7913 33.1508 19.7861 33.12C19.7761 33.0554 19.7619 32.9619 19.7436 32.8417C19.7086 32.5997 19.6568 32.2495 19.6218 31.8135C19.6135 31.7045 19.606 31.5902 19.6015 31.4708C19.5976 31.3515 19.5924 31.2272 19.5993 31.0981C19.6065 30.9697 19.6276 30.8342 19.687 30.7082C19.7467 30.5842 19.846 30.4674 19.9842 30.4105C20.1213 30.3514 20.2958 30.3822 20.4085 30.4912C20.464 30.5459 20.5012 30.6239 20.4995 30.7046C20.4993 30.7851 20.4682 30.8636 20.4199 30.928C20.3719 30.9935 20.305 31.0437 20.2323 31.0795C20.1593 31.1162 20.0805 31.1389 20.0006 31.1564C19.8407 31.19 19.6759 31.2086 19.5086 31.2136C19.3412 31.2175 19.1756 31.2144 19.0135 31.1897C18.9327 31.1764 18.8531 31.1556 18.779 31.122C18.7046 31.0887 18.6372 31.0412 18.5825 30.9824C18.5281 30.9236 18.4865 30.852 18.4693 30.774C18.4513 30.696 18.4632 30.6133 18.4971 30.5431C18.5306 30.4732 18.5875 30.413 18.66 30.3844C18.7324 30.355 18.8145 30.3633 18.8817 30.3947C18.9497 30.426 19.0057 30.4765 19.0471 30.5354C19.0887 30.595 19.1134 30.6625 19.1298 30.7296C19.1617 30.865 19.1609 30.9993 19.1692 31.1273C19.1825 31.384 19.195 31.6229 19.2064 31.8413C19.2283 32.277 19.246 32.63 19.2585 32.875C19.2641 32.9963 19.2685 33.0909 19.2716 33.1561C19.2727 33.1875 19.2735 33.2119 19.2744 33.2294C19.2749 33.2458 19.2746 33.2544 19.2746 33.2544C19.2746 33.2544 19.2732 33.246 19.2721 33.2297C19.2707 33.2122 19.2691 33.188 19.2669 33.1567C19.2627 33.0915 19.2569 32.9968 19.2494 32.8758C19.2352 32.6308 19.2147 32.2781 19.1894 31.8424C19.1772 31.624 19.1636 31.3851 19.1492 31.1287C19.1406 31.0007 19.1406 30.8667 19.1092 30.7349C19.0931 30.6697 19.0687 30.6045 19.0293 30.5484C18.9899 30.4923 18.9361 30.4446 18.8725 30.4155C18.8095 30.3863 18.7341 30.3791 18.6683 30.406C18.6022 30.4321 18.5492 30.4879 18.5179 30.5537C18.4862 30.6194 18.4751 30.6966 18.4921 30.7693C18.5082 30.8426 18.5476 30.9105 18.5997 30.9669C18.7046 31.0818 18.8592 31.142 19.0174 31.1667C19.1767 31.1908 19.3421 31.1939 19.5077 31.1903C19.6737 31.1853 19.8374 31.167 19.9953 31.1337C20.0738 31.1165 20.151 31.094 20.2215 31.059C20.292 31.0243 20.3552 30.9766 20.4007 30.9147C20.4465 30.8537 20.4757 30.7798 20.4759 30.7055C20.4776 30.6308 20.4438 30.5598 20.3921 30.5087C20.2867 30.4066 20.1219 30.3763 19.9925 30.4321C19.861 30.4857 19.7642 30.5978 19.7062 30.7182C19.6479 30.8403 19.6268 30.973 19.6193 31.1001C19.6121 31.2277 19.6168 31.3518 19.6201 31.4708C19.624 31.5899 19.6309 31.7042 19.6387 31.813C19.6715 32.2484 19.7209 32.5989 19.7528 32.8411C19.7691 32.9616 19.7819 33.0551 19.7908 33.12C19.795 33.1511 19.798 33.1753 19.8002 33.1927C19.8022 33.208 19.8027 33.2166 19.8027 33.2166Z" fill="white"/>
<path d="M18.7748 33.2576C18.7787 33.2612 18.7851 33.3545 18.7951 33.5168C18.8048 33.705 18.8164 33.9297 18.8298 34.1923L18.8234 34.1759C18.9802 34.3565 19.1569 34.5605 19.3481 34.7806L19.3212 34.7689C19.5121 34.7581 19.7161 34.7467 19.9278 34.7348L19.9023 34.7475C19.9997 34.6285 20.101 34.505 20.2045 34.3787C20.2556 34.3166 20.3064 34.255 20.356 34.1942L20.348 34.2178C20.3399 33.862 20.3322 33.5254 20.3249 33.2185L20.358 33.2499C19.9159 33.2548 19.5327 33.259 19.2246 33.2623C19.1017 33.2623 18.9938 33.2621 18.8972 33.2621C18.8198 33.2612 18.7773 33.2601 18.7748 33.2576C18.7723 33.2551 18.81 33.2518 18.8828 33.2474C18.9771 33.2424 19.0826 33.2368 19.2024 33.2307C19.516 33.2185 19.9062 33.203 20.356 33.1855L20.3882 33.1841L20.3893 33.2168C20.3985 33.5238 20.4088 33.8604 20.4193 34.2158L20.4199 34.2292L20.4112 34.2397C20.3616 34.3005 20.3111 34.3621 20.26 34.4243C20.1562 34.5502 20.0547 34.6737 19.957 34.7925L19.947 34.8047L19.9314 34.8055C19.7197 34.8158 19.5157 34.8258 19.3245 34.8352L19.3079 34.8361L19.2973 34.8236C19.1098 34.6002 18.9363 34.3935 18.7826 34.2103L18.7762 34.2028V34.1936C18.7737 33.9247 18.7715 33.6939 18.7695 33.501C18.7698 33.34 18.7709 33.254 18.7748 33.2576Z" fill="white"/>
<path d="M20.3422 34.1359C20.3414 34.1375 20.3211 34.1281 20.2848 34.1115C20.2484 34.0948 20.1949 34.0723 20.1274 34.049C19.9928 34.0024 19.7975 33.9588 19.5796 33.9655C19.3618 33.9719 19.1692 34.0274 19.0377 34.0823C18.9716 34.1095 18.9197 34.1353 18.8842 34.1542C18.8487 34.1728 18.8293 34.1836 18.8282 34.1819C18.8273 34.1806 18.8454 34.1672 18.8795 34.1459C18.9136 34.1245 18.965 34.0962 19.0307 34.0665C19.162 34.0071 19.3571 33.948 19.5785 33.9414C19.8 33.9344 19.9984 33.9816 20.133 34.0329C20.2004 34.0585 20.2534 34.0837 20.2889 34.1029C20.3245 34.1223 20.3431 34.1345 20.3422 34.1359Z" fill="white"/>
<path d="M20.3422 33.893C20.3414 33.8946 20.3211 33.8852 20.2848 33.8685C20.2484 33.8519 20.1949 33.8294 20.1274 33.8061C19.9928 33.7595 19.7975 33.7159 19.5794 33.7226C19.3615 33.7292 19.1689 33.7845 19.0374 33.8394C18.9713 33.8666 18.9195 33.8924 18.8842 33.9113C18.8487 33.9299 18.8293 33.9407 18.8282 33.939C18.8273 33.9376 18.8451 33.9243 18.8795 33.903C18.9136 33.8816 18.965 33.8533 19.0307 33.8236C19.162 33.7642 19.3571 33.7051 19.5785 33.6984C19.8 33.6915 19.9984 33.7387 20.133 33.79C20.2007 33.8155 20.2534 33.8408 20.2889 33.8599C20.3242 33.8794 20.3428 33.8916 20.3422 33.893Z" fill="white"/>
<path d="M20.3266 33.6618C20.3258 33.6635 20.3055 33.654 20.2691 33.6374C20.2325 33.6207 20.1792 33.5983 20.1118 33.5749C19.9772 33.5283 19.7819 33.4847 19.564 33.4914C19.3462 33.4981 19.1536 33.5533 19.022 33.608C18.956 33.6352 18.9041 33.661 18.8686 33.6798C18.8331 33.6984 18.8136 33.7093 18.8125 33.7076C18.8117 33.7062 18.8297 33.6929 18.8639 33.6715C18.898 33.6501 18.9493 33.6218 19.0151 33.5921C19.1464 33.5328 19.3415 33.4736 19.5629 33.467C19.7846 33.4601 19.9828 33.5072 20.1174 33.5586C20.1851 33.5841 20.2378 33.6093 20.2733 33.6285C20.3086 33.6482 20.3271 33.6607 20.3266 33.6618Z" fill="white"/>
<path d="M6.87891 17.8469C6.87891 17.8469 6.93163 24.0622 7.24771 25.9584L15.0431 25.5896C15.0431 25.5896 14.3582 19.4798 14.6216 17.8469H6.87891Z" fill="#EBEBEB"/>
<path d="M13.4458 20.4578C13.4483 20.4999 12.2792 20.6046 10.835 20.6914C9.39036 20.7783 8.21735 20.8146 8.21485 20.7725C8.21235 20.7303 9.3812 20.6257 10.8259 20.5388C12.27 20.4519 13.443 20.4156 13.4458 20.4578Z" fill="white"/>
<path d="M13.4478 21.7739C13.4503 21.8161 12.2811 21.9207 10.837 22.0076C9.39203 22.0944 8.2193 22.1308 8.2168 22.0886C8.2143 22.0464 9.38315 21.9418 10.8278 21.855C12.272 21.7681 13.4453 21.7317 13.4478 21.7739Z" fill="white"/>
<path d="M12.123 23.0667C12.1255 23.1089 11.4603 23.1833 10.6375 23.2327C9.81442 23.2821 9.14508 23.2882 9.14259 23.246C9.14009 23.2038 9.80499 23.1297 10.6283 23.0801C11.4511 23.0304 12.1205 23.0246 12.123 23.0667Z" fill="white"/>
<path d="M6.50781 36.1328C6.50781 36.1328 6.56054 42.3481 6.87662 44.2443L14.672 43.8755C14.672 43.8755 13.9871 37.7654 14.2507 36.1326H6.50781V36.1328Z" fill="#EBEBEB"/>
<path d="M13.0747 38.7438C13.0772 38.786 11.9081 38.8906 10.464 38.9774C9.01926 39.0643 7.84625 39.1006 7.84375 39.0585C7.84126 39.0163 9.01011 38.9117 10.4548 38.8248C11.8989 38.7379 13.0722 38.7019 13.0747 38.7438Z" fill="white"/>
<path d="M13.0806 40.0599C13.0831 40.1021 11.9139 40.2067 10.4698 40.2936C9.02512 40.3805 7.85211 40.4168 7.84961 40.3746C7.84712 40.3324 9.01596 40.2278 10.4607 40.141C11.9051 40.0541 13.0781 40.018 13.0806 40.0599Z" fill="white"/>
<path d="M11.7558 41.3523C11.7583 41.3945 11.0931 41.4688 10.2703 41.5182C9.44724 41.5676 8.7779 41.5737 8.7754 41.5316C8.7729 41.4894 9.4378 41.4153 10.2612 41.3656C11.0842 41.3162 11.7533 41.3101 11.7558 41.3523Z" fill="white"/>
<path d="M27.8125 19.4946L28.5848 37.4212L50.9636 37.6912L49.959 19.7313L27.8125 19.4946Z" fill="#EBEBEB"/>
<path d="M49.7848 19.3657H27.5547V36.1518H49.7848V19.3657Z" fill="#F5F5F5"/>
<path d="M49.7866 36.1519C49.7866 36.1519 49.7821 36.0437 49.7796 35.8405C49.778 35.633 49.7758 35.3338 49.7724 34.9447C49.7685 34.1577 49.7633 33.0111 49.7563 31.5481C49.7486 28.6212 49.7372 24.4328 49.7236 19.3659L49.7863 19.4286C43.5019 19.4325 35.8309 19.4372 27.5582 19.4422H27.5562L27.6325 19.3659C27.6298 25.403 27.6273 31.1191 27.6251 36.1516L27.5562 36.0828C34.1336 36.097 39.6821 36.1089 43.5913 36.1172C45.5463 36.125 47.0903 36.1314 48.1518 36.1355C48.6782 36.1391 49.0839 36.1419 49.3639 36.1438C49.4988 36.1455 49.6023 36.1469 49.6775 36.1477C49.7486 36.1491 49.7866 36.1519 49.7866 36.1519C49.7866 36.1519 49.7538 36.1547 49.6856 36.1558C49.6123 36.1566 49.511 36.158 49.3798 36.1597C49.1028 36.1616 48.7018 36.1644 48.1812 36.168C47.1234 36.1724 45.5846 36.1785 43.6365 36.1863C39.7165 36.1946 34.1525 36.2066 27.5568 36.2207L27.488 36.221V36.1519C27.4857 31.1191 27.4832 25.403 27.4805 19.3661V19.2896H27.5571H27.559C35.8317 19.2945 43.5028 19.2993 49.7871 19.3031H49.8501L49.8498 19.3659C49.8362 24.4492 49.8251 28.6512 49.8171 31.5875C49.8102 33.0444 49.8046 34.1863 49.801 34.97C49.798 35.3538 49.7955 35.6491 49.7938 35.8539C49.7913 36.0528 49.7866 36.1519 49.7866 36.1519Z" fill="#E0E0E0"/>
<path d="M39.2477 22.9221H30.2363V34.2635H39.2477V22.9221Z" fill="#F5F5F5"/>
<path d="M39.2466 34.2634C39.2452 34.262 39.2438 34.2429 39.2427 34.2062C39.2416 34.1632 39.2405 34.1108 39.2389 34.045C39.2369 33.8957 39.2341 33.689 39.2308 33.4248C39.2264 32.8767 39.2203 32.0905 39.2125 31.0979C39.2042 29.1015 39.1922 26.2765 39.1784 22.9223L39.2469 22.9909C36.5615 22.9931 33.4881 22.9959 30.2363 22.9989C30.2183 23.015 30.3801 22.8554 30.3118 22.9245V22.9276V22.9337V22.9459V22.9706V23.0197V23.118V23.3142V23.7052C30.3118 23.9652 30.3118 24.2241 30.3115 24.4816C30.3112 24.9967 30.311 25.5064 30.311 26.0098C30.3101 27.0169 30.3093 27.9998 30.3085 28.9528C30.3051 30.8576 30.3018 32.6428 30.2988 34.2634L30.2352 34.1999C32.9389 34.2135 35.1823 34.2248 36.7599 34.2326C37.5425 34.2395 38.1594 34.2451 38.5906 34.249C38.7965 34.252 38.9575 34.2545 39.076 34.2562C39.1861 34.2587 39.2466 34.2634 39.2466 34.2634C39.2488 34.2656 39.1956 34.2681 39.0893 34.2703C38.9738 34.272 38.8168 34.2745 38.6161 34.2776C38.1882 34.2814 37.5763 34.287 36.7999 34.2939C35.2125 34.302 32.9556 34.3134 30.2355 34.3267L30.1722 34.327V34.2631C30.1692 32.6425 30.1661 30.8573 30.1628 28.9525C30.1619 27.9996 30.1611 27.0169 30.1603 26.0096C30.16 25.5059 30.1597 24.9964 30.1597 24.4813C30.1597 24.2238 30.1597 23.9649 30.1595 23.7049V23.3139V23.1177V23.0194V22.9703V22.9456V22.9334V22.9273V22.9243C30.0915 22.9917 30.2519 22.8288 30.2369 22.8457C33.4887 22.8485 36.562 22.8513 39.2475 22.8538H39.3163L39.316 22.9223C39.3018 26.2951 39.2902 29.1351 39.2819 31.1423C39.2741 32.1283 39.268 32.9092 39.2638 33.4537C39.2605 33.7123 39.2577 33.9143 39.2558 34.0603C39.2541 34.123 39.253 34.1732 39.2519 34.214C39.2494 34.2482 39.248 34.2648 39.2466 34.2634Z" fill="#E0E0E0"/>
<path d="M47.8542 20.3269H30.584V21.9611H47.8542V20.3269Z" fill="#F5F5F5"/>
<path d="M47.8536 21.9608C47.8516 21.9589 47.8497 21.9209 47.8475 21.849C47.8455 21.7693 47.8433 21.6647 47.8403 21.5321C47.8361 21.2482 47.8303 20.8447 47.8228 20.3269L47.8536 20.3577C44.9412 20.3846 38.3024 20.4032 30.5845 20.4032H30.5836C30.7363 20.2506 30.6258 20.361 30.6599 20.3271V20.3277V20.3294V20.3327V20.3394V20.3524V20.3785V20.4309V20.5358V20.7448C30.6599 20.8835 30.6599 21.0217 30.6599 21.1586C30.6599 21.4322 30.6597 21.7008 30.6597 21.9611L30.5836 21.8851C35.4133 21.8978 39.7171 21.9092 42.8252 21.9175C44.3745 21.927 45.6252 21.9347 46.4994 21.9403C46.9264 21.9447 47.2611 21.9483 47.4992 21.9508C47.6077 21.9531 47.6943 21.9547 47.7612 21.9561C47.8206 21.9575 47.8519 21.9592 47.8536 21.9608C47.8552 21.9625 47.8275 21.9644 47.7712 21.9661C47.7068 21.9675 47.6235 21.9691 47.5189 21.9714C47.285 21.9739 46.9561 21.9775 46.5365 21.9819C45.6666 21.9872 44.422 21.995 42.8801 22.0044C39.7582 22.0127 35.435 22.0241 30.5833 22.0369L30.5073 22.0371V21.9608C30.5073 21.7005 30.5073 21.4319 30.507 21.1583C30.507 21.0215 30.507 20.8833 30.507 20.7445V20.5356V20.4307V20.3782V20.3521V20.3391V20.3324V20.3291V20.3274V20.3269C30.5412 20.2927 30.4307 20.4029 30.5836 20.25H30.5845C38.3024 20.25 44.9412 20.2686 47.8536 20.2955L47.8849 20.2958L47.8844 20.3266C47.8769 20.8522 47.8708 21.2615 47.8669 21.5498C47.8638 21.6797 47.8613 21.7821 47.8597 21.8598C47.8575 21.9289 47.8555 21.9628 47.8536 21.9608Z" fill="#E0E0E0"/>
<path d="M47.852 22.9219H40.3516V29.7571H47.852V22.9219Z" fill="#F5F5F5"/>
<path d="M47.8501 29.7572C47.8476 29.7547 47.8453 29.7098 47.8428 29.6251C47.8409 29.5305 47.8384 29.4078 47.8354 29.2541C47.8312 28.92 47.8256 28.4515 47.8184 27.8607C47.8104 26.658 47.7987 24.9602 47.7851 22.922L47.8501 22.9869C45.6839 22.9902 43.1081 22.9941 40.3502 22.9983C40.3327 23.0147 40.4942 22.854 40.426 22.9231V22.925V22.9286V22.9358V22.9503V22.9794V23.0377V23.154V23.386C40.426 23.5403 40.426 23.6943 40.426 23.8472C40.4257 24.1533 40.4257 24.4569 40.4254 24.7574C40.4249 25.3582 40.424 25.9471 40.4235 26.5207C40.421 27.6673 40.4188 28.7535 40.4165 29.7567L40.3494 29.6895C42.5739 29.7034 44.4376 29.715 45.7596 29.7234C46.4104 29.7308 46.9268 29.737 47.2945 29.7411C47.4649 29.7444 47.6003 29.7469 47.7041 29.7489C47.7979 29.7519 47.8476 29.7544 47.8501 29.7572C47.8526 29.7597 47.8079 29.7622 47.7191 29.7647C47.6186 29.7666 47.4876 29.7691 47.3225 29.7725C46.9587 29.7766 46.447 29.7827 45.8026 29.7902C44.4703 29.7986 42.5913 29.8102 40.3494 29.8241L40.2825 29.8246L40.2822 29.7572C40.28 28.754 40.2778 27.6679 40.2753 26.5212C40.2747 25.9476 40.2742 25.3587 40.2733 24.7579C40.2733 24.4574 40.2731 24.1538 40.2728 23.8477C40.2728 23.6945 40.2728 23.5408 40.2728 23.3865V23.1545V23.0382V22.98V22.9508V22.9364V22.9292V22.9256V22.9236C40.2045 22.9913 40.3658 22.8293 40.3499 22.8459C43.1075 22.8501 45.6833 22.854 47.8498 22.8573H47.9153L47.9147 22.9222C47.9008 24.9775 47.8895 26.6897 47.8814 27.9024C47.8742 28.4868 47.8687 28.9505 47.8645 29.281C47.8614 29.4295 47.8589 29.548 47.857 29.6395C47.8551 29.7195 47.8526 29.7594 47.8501 29.7572Z" fill="#E0E0E0"/>
<path d="M47.852 30.8291H40.3516V34.2635H47.852V30.8291Z" fill="#F5F5F5"/>
<path d="M47.8516 34.2632C47.8478 34.2593 47.8439 34.1736 47.8397 34.0143C47.8364 33.8417 47.8317 33.6122 47.8258 33.3247C47.8186 32.7186 47.8083 31.8703 47.7959 30.8288L47.8514 30.8843C45.8952 30.8898 43.2562 30.897 40.3515 30.9051C40.283 30.9734 40.4439 30.8121 40.4273 30.8291V30.8299V30.8316V30.8352V30.8421V30.8563V30.8846V30.9412V31.0538V31.2786C40.4273 31.4279 40.427 31.5767 40.427 31.7243C40.4267 32.0196 40.4264 32.3115 40.4262 32.5987C40.4251 33.1731 40.4242 33.7298 40.4231 34.2626L40.3507 34.1902C42.5138 34.2041 44.3751 34.2163 45.7143 34.2249C46.37 34.2332 46.897 34.2402 47.2772 34.2449C47.4504 34.2485 47.59 34.2515 47.6993 34.254C47.797 34.2574 47.8489 34.2601 47.8516 34.2632C47.8547 34.2662 47.8086 34.269 47.717 34.2721C47.6116 34.2743 47.477 34.2773 47.3099 34.2812C46.9336 34.2862 46.4122 34.2929 45.7634 34.3012C44.4122 34.3098 42.5341 34.3217 40.351 34.3359L40.2785 34.3364V34.2635C40.2777 33.7307 40.2766 33.174 40.2758 32.5995C40.2755 32.3123 40.2752 32.0204 40.2749 31.7251C40.2749 31.5775 40.2746 31.4287 40.2746 31.2794V31.0547V30.942V30.8854V30.8571V30.8429V30.836V30.8324V30.8307V30.8299C40.258 30.846 40.4195 30.6848 40.3515 30.753C43.2562 30.7611 45.8955 30.7686 47.8514 30.7738L47.9074 30.7741L47.9069 30.8296C47.8944 31.885 47.8844 32.745 47.8772 33.3591C47.8713 33.6413 47.8666 33.8666 47.8633 34.0362C47.8594 34.1888 47.8555 34.2671 47.8516 34.2632Z" fill="#E0E0E0"/>
<path d="M39.0249 22.9417C36.2354 26.7951 33.0258 30.4099 30.2363 34.2633L39.0249 22.9417Z" fill="white"/>
<path d="M30.2368 34.2633C30.2326 34.2602 30.2579 34.2167 30.3103 34.1367C30.3741 34.0432 30.4518 33.9292 30.5456 33.7912C30.7518 33.4924 31.0601 33.0675 31.4478 32.5472C32.222 31.5057 33.3301 30.0963 34.5711 28.5547C35.8124 27.0126 36.9327 25.6154 37.728 24.5919C38.114 24.0935 38.4318 23.6834 38.6682 23.3781C38.7714 23.2471 38.8566 23.1389 38.9266 23.0498C38.987 22.9757 39.0209 22.9383 39.0251 22.9416C39.0292 22.9447 39.0037 22.9882 38.9515 23.0682C38.8877 23.1617 38.81 23.2757 38.7162 23.4134C38.51 23.712 38.2017 24.1371 37.814 24.6574C37.0398 25.6989 35.9314 27.1086 34.6902 28.6505C33.4494 30.1917 32.3292 31.589 31.5338 32.6127C31.1478 33.1111 30.8301 33.5212 30.5936 33.8265C30.4904 33.9575 30.4052 34.0657 30.3353 34.1548C30.2748 34.2289 30.2409 34.2663 30.2368 34.2633Z" fill="#E0E0E0"/>
<path d="M39.2484 34.2635C39.2154 34.2898 37.171 31.772 34.6829 28.6406C32.194 25.5082 30.2037 22.9484 30.2367 22.9221C30.2698 22.8957 32.3136 25.413 34.8025 28.5455C37.2909 31.6768 39.2814 34.2371 39.2484 34.2635Z" fill="#E0E0E0"/>
<path d="M28.587 22.9463C28.587 23.725 27.9557 24.3561 27.1773 24.3561C26.3986 24.3561 25.7676 23.725 25.7676 22.9463C25.7676 22.1677 26.3986 21.5366 27.1773 21.5366C27.956 21.5366 28.587 22.1679 28.587 22.9463Z" fill="#E0E0E0"/>
<path d="M51.6417 19.5242C51.6417 20.3029 51.0104 20.934 50.232 20.934C49.4533 20.934 48.8223 20.3029 48.8223 19.5242C48.8223 18.7456 49.4536 18.1145 50.232 18.1145C51.0107 18.1145 51.6417 18.7456 51.6417 19.5242Z" fill="#E0E0E0"/>
<path d="M106.789 29.344H90.543V52.892H106.789V29.344Z" fill="#E0E0E0"/>
<path d="M105.976 29.344H89.7305V52.892H105.976V29.344Z" fill="#F5F5F5"/>
<path d="M103.959 31.894H91.75V50.3412H103.959V31.894Z" fill="white"/>
<path d="M103.958 50.3414C103.958 50.3414 103.957 50.31 103.956 50.2512C103.955 50.1904 103.954 50.1033 103.954 49.9895C103.952 49.7578 103.951 49.4184 103.949 48.9777C103.946 48.0936 103.942 46.8052 103.938 45.1779C103.933 41.9249 103.926 37.3186 103.918 31.8942L103.958 31.9347C100.228 31.9358 96.0949 31.937 91.7506 31.9383H91.7492L91.7933 31.8942C91.79 38.8532 91.7869 45.2697 91.7844 50.3414L91.7492 50.3062C95.4672 50.3139 98.515 50.3203 100.636 50.3248C101.697 50.3286 102.525 50.3317 103.091 50.3336C103.372 50.3353 103.588 50.3367 103.735 50.3375C103.881 50.3389 103.958 50.3414 103.958 50.3414C103.958 50.3414 103.886 50.3439 103.743 50.3453C103.597 50.3461 103.383 50.3475 103.105 50.3492C102.541 50.3511 101.715 50.3542 100.658 50.3581C98.5317 50.3625 95.4764 50.3689 91.7492 50.3766H91.714V50.3414C91.7115 45.2694 91.7084 38.8532 91.7051 31.8942V31.8501H91.7492H91.7506C96.0949 31.8515 100.228 31.8526 103.958 31.8537H103.999V31.8942C103.991 37.3294 103.984 41.9449 103.979 45.2045C103.974 46.8282 103.971 48.1133 103.968 48.9955C103.966 49.4326 103.964 49.7692 103.963 49.9992C103.962 50.1111 103.961 50.1963 103.961 50.2562C103.96 50.3134 103.958 50.3414 103.958 50.3414Z" fill="#E0E0E0"/>
<path d="M106.021 29.3436C106.031 29.351 105.921 29.512 105.732 29.7643C105.543 30.0165 105.275 30.3598 104.97 30.7311C104.664 31.1024 104.378 31.431 104.167 31.6646C103.955 31.8983 103.818 32.0373 103.809 32.0293C103.8 32.0212 103.92 31.8675 104.119 31.6238C104.337 31.3596 104.605 31.0344 104.901 30.6747C105.197 30.3151 105.465 29.9899 105.683 29.7254C105.884 29.4831 106.012 29.3358 106.021 29.3436Z" fill="#E0E0E0"/>
<path d="M104.02 50.2817C104.626 51.2461 105.342 52.1413 106.149 52.945L104.02 50.2817Z" fill="white"/>
<path d="M106.15 52.9452C106.142 52.9533 105.997 52.8275 105.779 52.6075C105.56 52.3874 105.271 52.0711 104.975 51.7014C104.68 51.3315 104.435 50.9796 104.268 50.7182C104.101 50.4568 104.011 50.2878 104.02 50.2817C104.031 50.2748 104.141 50.4318 104.32 50.6833C104.499 50.9347 104.75 51.2785 105.044 51.6462C105.338 52.0133 105.618 52.3344 105.824 52.5645C106.03 52.7948 106.159 52.9361 106.15 52.9452Z" fill="#E0E0E0"/>
<path d="M89.7285 52.8733C90.4378 51.998 91.1471 51.1231 91.8564 50.2478L89.7285 52.8733Z" fill="white"/>
<path d="M91.857 50.2476C91.8759 50.2629 91.4149 50.8631 90.8274 51.5882C90.2397 52.3134 89.7479 52.8886 89.7291 52.8734C89.7102 52.8581 90.1711 52.2579 90.7589 51.5327C91.3464 50.8076 91.8381 50.2323 91.857 50.2476Z" fill="#E0E0E0"/>
<path d="M89.7311 29.3436C89.7502 29.3283 90.2128 29.8814 90.764 30.5782C91.3154 31.2756 91.7466 31.8528 91.7275 31.8678C91.7083 31.883 91.246 31.3302 90.6946 30.6329C90.1432 29.936 89.7119 29.3586 89.7311 29.3436Z" fill="#E0E0E0"/>
<path d="M100.157 35.6396H96.0684V47.2469H100.157V35.6396Z" fill="#E0E0E0"/>
<path d="M103.048 4.32314L100.723 4.33569L100.785 15.9077L103.111 15.8951L103.048 4.32314Z" fill="#E0E0E0"/>
<path d="M86.5947 4.35347L80.5723 4.38599L80.6068 10.7744L86.6292 10.7419L86.5947 4.35347Z" fill="#EBEBEB"/>
<path d="M92.5908 4.32124L86.5684 4.35376L86.6029 10.7422L92.6253 10.7097L92.5908 4.32124Z" fill="#F5F5F5"/>
<path d="M80.5825 6.15413C84.5846 6.18715 88.5968 6.16384 92.5984 6.0989C92.6808 6.09779 92.6803 5.97153 92.5976 5.97097C88.5954 5.94877 84.5833 5.96847 80.5816 6.04451C80.5114 6.0459 80.512 6.15357 80.5825 6.15413Z" fill="#E0E0E0"/>
<path d="M87.762 10.6357L76.8203 10.6948L76.8484 15.9008L87.7902 15.8417L87.762 10.6357Z" fill="#EBEBEB"/>
<path d="M98.6507 10.5764L87.709 10.6355L87.7371 15.8415L98.6788 15.7824L98.6507 10.5764Z" fill="#F5F5F5"/>
<path d="M76.8247 12.146C84.0934 12.2284 91.3876 12.1546 98.656 12.0383C98.7384 12.0369 98.7379 11.9107 98.6554 11.9104C91.3862 11.8721 84.0917 11.8763 76.8244 12.0364C76.7537 12.0378 76.7539 12.1452 76.8247 12.146Z" fill="#E0E0E0"/>
<path d="M115.123 15.9041H72.7324V17.7692H115.123V15.9041Z" fill="#E0E0E0"/>
<path d="M81.3946 16.8008H79.6738V23.1651H81.3946V16.8008Z" fill="#E0E0E0"/>
<path d="M107.084 16.8008H105.363V23.1651H107.084V16.8008Z" fill="#E0E0E0"/>
<path d="M105.316 0.00770598L102.99 0.0202637L103.076 15.9358L105.402 15.9232L105.316 0.00770598Z" fill="#EBEBEB"/>
<path d="M108.952 2.97048L105.338 2.98999L105.408 15.8876L109.021 15.8681L108.952 2.97048Z" fill="#F5F5F5"/>
<path d="M108.924 5.45969C108.924 5.49438 108.115 5.52241 107.117 5.52241C106.119 5.52241 105.311 5.49438 105.311 5.45969C105.311 5.425 106.119 5.39697 107.117 5.39697C108.115 5.39697 108.924 5.425 108.924 5.45969Z" fill="#E0E0E0"/>
<path d="M108.924 4.9177C108.924 4.95238 108.115 4.98041 107.117 4.98041C106.119 4.98041 105.311 4.95238 105.311 4.9177C105.311 4.88301 106.119 4.85498 107.117 4.85498C108.115 4.85526 108.924 4.88329 108.924 4.9177Z" fill="#E0E0E0"/>
<path d="M108.924 13.9321C108.924 13.9668 108.115 13.9948 107.117 13.9948C106.119 13.9948 105.311 13.9668 105.311 13.9321C105.311 13.8974 106.119 13.8694 107.117 13.8694C108.115 13.8694 108.924 13.8974 108.924 13.9321Z" fill="#E0E0E0"/>
<path d="M108.924 13.3901C108.924 13.4248 108.115 13.4528 107.117 13.4528C106.119 13.4528 105.311 13.4248 105.311 13.3901C105.311 13.3554 106.119 13.3274 107.117 13.3274C108.115 13.3277 108.924 13.3557 108.924 13.3901Z" fill="#E0E0E0"/>
<path d="M107.176 12.2079C107.141 12.2079 107.113 10.9066 107.113 9.30182C107.113 7.69645 107.141 6.39551 107.176 6.39551C107.211 6.39551 107.239 7.69645 107.239 9.30182C107.239 10.9066 107.211 12.2079 107.176 12.2079Z" fill="#E0E0E0"/>
<path d="M112.896 6.14209H108.963V15.8773H112.896V6.14209Z" fill="#EBEBEB"/>
<path d="M111.041 13.3525C110.524 13.3525 110.162 12.9842 110.162 12.4769C110.162 12.2016 110.268 11.963 110.48 11.8201L110.57 11.943C110.394 12.069 110.311 12.2613 110.311 12.4769C110.311 12.8851 110.603 13.1835 111.041 13.1835C111.479 13.1835 111.771 12.8849 111.771 12.4769C111.771 12.2613 111.688 12.069 111.512 11.943L111.602 11.8201C111.81 11.9627 111.92 12.2016 111.92 12.4769C111.92 12.9842 111.555 13.3525 111.041 13.3525Z" fill="#FAFAFA"/>
<path d="M111.698 11.5783L111.565 11.502C111.678 11.3694 111.774 11.1338 111.774 10.8785C111.774 10.5135 111.645 10.3679 111.449 10.3679C110.945 10.3679 111.316 11.5153 110.636 11.5153C110.374 11.5153 110.162 11.2964 110.162 10.8585C110.162 10.6395 110.228 10.4009 110.331 10.2649L110.464 10.3412C110.357 10.4869 110.308 10.6762 110.308 10.8618C110.308 11.2001 110.447 11.3497 110.633 11.3497C111.153 11.3497 110.785 10.2019 111.445 10.2019C111.727 10.2019 111.92 10.4439 111.92 10.8851C111.92 11.1704 111.824 11.4424 111.698 11.5783Z" fill="#FAFAFA"/>
<path d="M111.698 9.99337L111.565 9.91706C111.678 9.78441 111.774 9.54881 111.774 9.29322C111.774 8.92858 111.645 8.78261 111.449 8.78261C110.945 8.78261 111.316 9.9301 110.636 9.9301C110.374 9.9301 110.162 9.71115 110.162 9.27352C110.162 9.05429 110.228 8.81564 110.331 8.67966L110.464 8.75597C110.357 8.90194 110.308 9.0912 110.308 9.27685C110.308 9.61485 110.447 9.76443 110.633 9.76443C111.153 9.76443 110.785 8.61694 111.445 8.61694C111.727 8.61694 111.92 8.85893 111.92 9.30016C111.92 9.58544 111.824 9.85739 111.698 9.99337Z" fill="#FAFAFA"/>
<path d="M104.116 3.39806C104.485 3.39806 104.784 3.09875 104.784 2.72955C104.784 2.36034 104.485 2.06104 104.116 2.06104C103.747 2.06104 103.447 2.36034 103.447 2.72955C103.447 3.09875 103.747 3.39806 104.116 3.39806Z" fill="#E0E0E0"/>
<path d="M104.323 4.56787H103.91V14.0358H104.323V4.56787Z" fill="#E0E0E0"/>
<path d="M119.999 114.715C119.999 114.755 93.1956 114.787 60.1392 114.787C27.0715 114.787 0.273438 114.755 0.273438 114.715C0.273438 114.675 27.0712 114.643 60.1392 114.643C93.1956 114.643 119.999 114.675 119.999 114.715Z" fill="#263238"/>
<path d="M32.6907 19.3142C28.2373 26.319 28.5289 36.0309 33.3944 42.7557C36.6379 47.2388 41.5037 50.2439 45.3674 54.205C49.231 58.1664 52.1654 64.004 50.1263 69.1481C48.0505 74.3849 41.971 76.5153 37.418 79.8323C32.4587 83.4454 28.9754 89.0264 27.9084 95.0688C26.8414 101.111 28.2023 107.547 31.6239 112.641H78.9174C78.9174 112.641 87.2251 96.8076 76.5439 84.7417C65.8627 72.6757 60.1264 72.4779 60.5219 64.5659C60.9176 56.654 66.456 54.0823 69.6207 51.1155C72.7854 48.1487 88.2141 41.2255 79.1153 19.3145L32.6907 19.3142Z" fill="#FAFAFA"/>
<path d="M32.69 19.314C32.69 19.314 32.9645 19.3096 33.5042 19.3074C34.0456 19.306 34.8487 19.3038 35.9016 19.301C38.0123 19.2979 41.1231 19.2935 45.1303 19.2877C53.1527 19.2818 64.7618 19.2732 79.1146 19.2627H79.1493L79.1618 19.2943C79.8081 20.9355 80.4611 22.6247 80.924 24.4154C81.4002 26.1981 81.7906 28.0555 81.9288 29.9802C82.0737 31.9011 82.0115 33.8847 81.6288 35.8547C81.2339 37.8192 80.5302 39.7651 79.4912 41.565C78.9745 42.4669 78.3667 43.3233 77.7099 44.1497C77.0456 44.9711 76.3099 45.7434 75.5315 46.4804C74.7517 47.2167 73.9211 47.9101 73.0586 48.5737C72.1981 49.2394 71.2998 49.8688 70.4226 50.5331C69.9833 50.8645 69.5821 51.236 69.1636 51.6085C68.7429 51.9737 68.3097 52.3261 67.8726 52.6752C66.9988 53.3742 66.116 54.073 65.2827 54.8381C63.6007 56.343 62.1799 58.222 61.3984 60.409C61.0194 61.5004 60.7477 62.644 60.6589 63.8145C60.6353 64.1067 60.5962 64.3987 60.5854 64.6923C60.5795 64.9862 60.5629 65.2809 60.5768 65.5753C60.5806 66.165 60.647 66.7539 60.7541 67.335C60.9764 68.4966 61.4642 69.6097 62.1735 70.5746C62.8725 71.5483 63.7345 72.4056 64.6264 73.2303C66.4221 74.872 68.3263 76.4391 70.1507 78.1311C71.9839 79.8136 73.7638 81.5899 75.4785 83.4567C76.3293 84.3932 77.1943 85.3356 77.938 86.381C78.7072 87.4067 79.353 88.5272 79.9205 89.6869C81.0391 92.0169 81.7307 94.573 81.9571 97.1865C82.2008 99.8003 82.0145 102.464 81.4964 105.07C81.24 106.375 80.8998 107.667 80.4819 108.938C80.0637 110.209 79.5811 111.463 78.9803 112.674L78.9612 112.712H78.9165C78.5327 112.712 78.1159 112.712 77.6988 112.712C61.5547 112.711 45.9775 112.71 31.6233 112.709H31.5864L31.5661 112.679C29.3128 109.296 27.9749 105.41 27.6059 101.515C27.2138 97.62 27.8132 93.7138 29.242 90.2469C30.6523 86.7676 32.8446 83.7159 35.4937 81.3174C36.8143 80.1086 38.2867 79.1195 39.7617 78.2043C41.2383 77.2877 42.7274 76.4399 44.1352 75.5122C45.5368 74.5826 46.8877 73.5924 47.9844 72.3809C49.085 71.1795 49.9261 69.7684 50.3665 68.2516C50.8089 66.7333 50.813 65.1413 50.5544 63.6422C50.2922 62.1379 49.7627 60.7154 49.0928 59.405C48.4209 58.0929 47.6062 56.8883 46.7123 55.7891C45.8207 54.6863 44.8295 53.7075 43.8318 52.7837C41.8296 50.9408 39.7811 49.3288 37.9368 47.6723C37.0133 46.8459 36.138 46.0117 35.3324 45.1545C34.5327 44.2926 33.8014 43.4087 33.1734 42.4932C31.9069 40.6667 31.0383 38.7422 30.4675 36.8846C29.8958 35.0247 29.6117 33.2268 29.5465 31.5726C29.5076 31.1596 29.5229 30.7545 29.5234 30.359C29.5287 29.9636 29.5168 29.577 29.5578 29.2021C29.5867 28.8266 29.615 28.4606 29.6425 28.104C29.6852 27.7494 29.7438 27.4058 29.7915 27.0711C30.2078 24.3921 31.0161 22.4346 31.6463 21.1816C31.7973 20.8633 31.9302 20.5833 32.0742 20.3566C32.2094 20.1266 32.3226 19.9334 32.4136 19.7777C32.5962 19.4689 32.69 19.314 32.69 19.314C32.6706 19.3482 32.5935 19.4844 32.422 19.7875C32.3326 19.9434 32.2216 20.1368 32.0892 20.3674C31.9485 20.5931 31.817 20.8736 31.668 21.1925C31.0455 22.4473 30.2458 24.4043 29.8376 27.0786C29.7909 27.4128 29.7332 27.7555 29.6916 28.1096C29.6652 28.4653 29.6378 28.8305 29.61 29.2052C29.57 29.5792 29.5828 29.965 29.5784 30.3593C29.5786 30.7536 29.5642 31.158 29.6039 31.5695C29.6724 33.2193 29.9591 35.0117 30.5322 36.8646C31.1041 38.7153 31.9727 40.6315 33.237 42.4488C33.8639 43.3599 34.5937 44.2399 35.3924 45.0982C36.1966 45.9521 37.0713 46.7835 37.9945 47.6074C39.8383 49.2594 41.8888 50.8689 43.8965 52.7132C44.8966 53.6373 45.8926 54.6188 46.7895 55.7261C47.6883 56.8294 48.5081 58.0388 49.1849 59.3575C49.8598 60.6748 50.3943 62.1062 50.6601 63.6236C50.9224 65.1355 50.9199 66.745 50.4734 68.2818C50.0291 69.8173 49.1785 71.2453 48.0688 72.458C46.9629 73.6812 45.6051 74.6772 44.1998 75.6107C42.7882 76.5421 41.2988 77.3912 39.8252 78.307C38.3528 79.2219 36.8892 80.2065 35.5764 81.4095C32.9428 83.7969 30.7628 86.8342 29.3616 90.2958C27.9419 93.7449 27.3478 97.6283 27.7391 101.502C28.1073 105.375 29.4396 109.24 31.6802 112.602L31.623 112.571C45.9772 112.57 61.5541 112.569 77.6985 112.568C78.1156 112.568 78.5321 112.568 78.9162 112.568L78.8524 112.607C79.4457 111.41 79.9288 110.157 80.3445 108.893C80.7608 107.628 81.0996 106.341 81.3549 105.043C81.8708 102.448 82.0559 99.7981 81.8139 97.1998C81.5891 94.6018 80.9023 92.0629 79.7917 89.7488C79.2281 88.5972 78.5871 87.4841 77.8228 86.4648C77.0847 85.4269 76.2247 84.4895 75.3739 83.5527C73.6622 81.6884 71.8856 79.9146 70.0555 78.2343C68.2337 76.5437 66.333 74.9789 64.532 73.3316C63.6376 72.5041 62.7699 71.6413 62.0617 70.6545C61.3429 69.6768 60.8451 68.541 60.6203 67.3611C60.5115 66.7711 60.4447 66.1742 60.4411 65.5784C60.4272 65.2803 60.4438 64.9837 60.4499 64.687C60.461 64.3906 60.5004 64.0965 60.5243 63.8018C60.6142 62.6218 60.889 61.4668 61.2725 60.364C62.0628 58.1537 63.5019 56.2542 65.1939 54.7423C66.0319 53.9734 66.918 53.2729 67.7913 52.575C68.2284 52.2265 68.6605 51.8751 69.0787 51.5122C69.4899 51.1467 69.9023 50.7654 70.3444 50.4324C71.226 49.7653 72.1223 49.1381 72.9812 48.4743C73.8415 47.813 74.6693 47.1229 75.446 46.3902C76.2214 45.6568 76.9537 44.8892 77.6147 44.0728C78.268 43.2514 78.8729 42.4008 79.3869 41.5048C80.4206 39.7168 81.1207 37.7845 81.5148 35.832C81.8963 33.8742 81.9599 31.9009 81.8172 29.9883C81.6813 28.0718 81.2936 26.2206 80.8202 24.4429C80.3603 22.6574 79.7101 20.9713 79.0669 19.3329L79.1141 19.3645C64.7699 19.354 53.1677 19.3454 45.1503 19.3396C41.14 19.3337 38.0267 19.3293 35.9144 19.3262C34.8587 19.3235 34.0534 19.3212 33.5109 19.3199C32.9695 19.3185 32.69 19.314 32.69 19.314Z" fill="#263238"/>
<path d="M77.2274 32.1605C84.193 33.3055 73.2102 45.6423 66.9939 50.5103C63.3943 53.3292 59.5284 56.3859 57.819 60.6262C55.8795 65.437 57.317 70.8442 56.3771 75.6837C56.2211 76.487 55.0334 76.3608 55.0453 75.5424C55.0917 72.3661 55.007 69.1911 54.4806 66.0637C53.7341 61.6283 52.0289 57.2404 48.9202 53.9897C46.3827 51.3364 43.0555 49.5732 40.3487 47.0925C36.3967 43.4711 32.3374 38.8001 31.9414 33.4545C31.9414 33.4545 39.5289 27.3427 43.7406 28.1142C48.6627 29.0158 53.5082 36.6109 61.1352 35.7412C66.4605 35.1337 69.1478 30.8327 77.2274 32.1605Z" fill="#990000"/>
<path d="M77.8452 98.1923C77.6693 96.4504 77.2048 94.479 75.6588 93.6573C74.7222 93.1594 73.5819 93.2149 72.5563 93.4847C71.5306 93.7544 70.5668 94.2209 69.5501 94.5228C67.5495 95.117 65.3581 95.0476 63.3992 94.328C61.5094 93.6337 59.8871 92.3788 58.1321 91.3923C56.3772 90.4057 54.3231 89.6704 52.3695 90.1565C49.0006 90.9949 47.2473 95.0506 43.9167 96.03C42.4362 96.4651 40.8467 96.2209 39.3417 95.8798C37.8368 95.5388 36.3261 95.1011 34.7843 95.1589C33.576 95.2041 32.3189 95.6217 31.472 96.4498L31.4809 96.4382C31.4723 96.4468 31.4651 96.4559 31.4564 96.4648C31.3171 96.6027 31.1892 96.7517 31.0746 96.9124C30.0415 98.2897 29.8763 100.141 30.1941 101.823C30.5498 103.706 31.4295 105.447 32.3736 107.114C33.4856 109.078 34.7485 111.034 36.587 112.344C38.855 113.959 41.7072 112.844 44.4831 113.063C50.9581 113.574 57.9243 113.923 64.4001 113.421C67.8207 113.156 71.027 113.526 73.7412 111.428C75.651 109.952 76.8928 107.726 77.4917 105.388C78.0906 103.049 78.0878 100.594 77.8452 98.1923Z" fill="#990000"/>
<g opacity="0.24">
<path d="M65.6256 94.8557C65.2598 95.4154 65.1041 96.1653 65.4566 96.7336C65.809 97.3019 66.2855 97.8184 66.4384 98.4694C66.6784 99.4917 66.0629 100.492 65.6039 101.436C64.7828 103.126 64.4093 105.053 64.6862 106.912C64.9632 108.77 65.9164 110.545 67.4035 111.693C68.0612 112.2 68.9156 112.594 69.7082 112.345C70.4544 112.112 70.937 111.354 71.0852 110.586C71.2334 109.819 71.111 109.028 71.0136 108.252C70.5613 104.651 70.6539 100.981 71.2875 97.4077C71.3935 96.8102 71.4948 96.1281 71.116 95.6538C70.8743 95.3511 70.4885 95.2087 70.1208 95.086C68.6775 94.6057 67.1199 95.1396 65.6256 94.8557Z" fill="black"/>
</g>
<path d="M28.1513 114.787C28.1513 114.787 28.0212 112.617 30.852 111.408H80.5953C80.5953 111.408 83.1891 112.721 83.5085 114.742L28.1513 114.787Z" fill="#263238"/>
<path d="M79.5427 19.578C79.5168 19.5902 79.4905 19.6024 79.4638 19.6147L32.6901 19.3136C32.6901 19.3136 32.5242 19.2073 32.2753 19.0127C30.9427 17.9704 31.6906 15.8295 33.3822 15.8431L78.7798 16.2097C80.6538 16.2249 81.2371 18.7774 79.5427 19.578Z" fill="#263238"/>
<g opacity="0.24">
<path d="M72.0552 37.4205C72.1493 37.6009 71.7985 37.9908 71.1278 38.5861C70.4551 39.1819 69.4731 39.9991 68.2248 41.0054C66.9697 42.0033 65.4492 43.2065 63.5123 44.3293C62.5421 44.8899 61.4621 45.3985 60.281 45.8123C59.6871 46.0116 59.0716 46.1966 58.4242 46.3257C57.7807 46.4636 57.1088 46.5552 56.4181 46.5868C55.0406 46.6659 53.6395 46.4642 52.3857 46.0357C51.1389 45.6031 50.0755 44.9934 49.1456 44.3818C48.2131 43.7635 47.4092 43.1532 46.6516 42.5691C45.8971 41.9836 45.2094 41.4191 44.5948 40.8882C42.1377 38.7595 40.8457 37.1941 41.0949 36.8919C41.3524 36.5778 43.0915 37.5734 45.8022 39.239C46.4796 39.655 47.2208 40.1101 48.0161 40.5983C48.8106 41.0822 49.6653 41.6164 50.5367 42.1104C51.4108 42.6043 52.323 43.0536 53.269 43.345C54.2086 43.6258 55.2107 43.7593 56.2766 43.6997C58.407 43.5909 60.4744 42.8402 62.2657 41.9758C64.0662 41.0947 65.676 40.0979 67.0804 39.3117C68.4829 38.5167 69.6826 37.9292 70.5556 37.617C71.43 37.3037 71.9648 37.2471 72.0552 37.4205Z" fill="black"/>
</g>
<path d="M55.0796 81.4816C55.593 81.3009 56.2066 81.8174 56.1161 82.3541C56.0256 82.8907 55.2764 83.1774 54.8507 82.8383C54.425 82.4992 54.5368 81.705 55.0396 81.4968" fill="#990000"/>
<path d="M38.3503 45.1613C38.3467 45.1647 38.2898 45.1072 38.1852 44.9948C38.0728 44.8716 37.9219 44.7062 37.732 44.4981C37.5406 44.2778 37.2886 44.023 37.0311 43.6975C36.7697 43.3723 36.4738 43.004 36.1478 42.5983C35.8461 42.1718 35.5037 41.7122 35.1596 41.203C34.9958 40.9424 34.8268 40.6733 34.6526 40.396C34.5668 40.2564 34.4739 40.1185 34.3909 39.9717C34.3104 39.8235 34.2291 39.6734 34.1467 39.5213C33.4637 38.3189 32.8557 36.9108 32.4234 35.3726C31.9908 33.8336 31.7879 32.312 31.7696 30.927C31.7685 30.5809 31.7873 30.2435 31.7951 29.9157C31.8029 29.752 31.7998 29.59 31.8162 29.4318C31.8331 29.2736 31.8498 29.1179 31.8662 28.965C31.9011 28.6592 31.9255 28.3628 31.9666 28.0803C32.0174 27.7998 32.0662 27.53 32.1129 27.2722C32.1922 26.7547 32.329 26.3004 32.427 25.8972C32.4803 25.6966 32.5219 25.5079 32.5749 25.338C32.6298 25.1701 32.6804 25.0161 32.7261 24.876C32.8158 24.609 32.8868 24.3964 32.9398 24.2383C32.9903 24.0931 33.0189 24.0176 33.0236 24.0193C33.0283 24.021 33.0089 24.0995 32.9676 24.2474C32.9209 24.4073 32.8585 24.6221 32.78 24.8921C32.7378 25.033 32.6917 25.1879 32.6412 25.3566C32.5924 25.527 32.5546 25.7163 32.5052 25.9169C32.4151 26.3207 32.2857 26.7744 32.2133 27.2905C32.1697 27.5472 32.1242 27.8161 32.0768 28.0956C32.039 28.3767 32.0177 28.6717 31.9852 28.9758C31.9702 29.1279 31.955 29.2828 31.9394 29.4398C31.9244 29.5972 31.9286 29.7579 31.9219 29.9205C31.9164 30.246 31.8995 30.5809 31.9025 30.9245C31.9283 32.299 32.1334 33.8064 32.5624 35.3327C32.9912 36.8584 33.5906 38.2576 34.2635 39.4567C34.3445 39.6082 34.4247 39.758 34.5036 39.9057C34.5851 40.0519 34.677 40.1898 34.7611 40.3294C34.9323 40.6066 35.0985 40.8758 35.2595 41.1364C35.5978 41.6462 35.9341 42.1071 36.2294 42.5361C36.5482 42.9457 36.8376 43.317 37.0935 43.6453C37.3444 43.9747 37.59 44.2345 37.7745 44.4601C37.9557 44.6754 38.0995 44.8469 38.2069 44.9743C38.3045 45.0942 38.3539 45.158 38.3503 45.1613Z" fill="#263238"/>
<path d="M35.717 86.3885C35.7148 86.3874 35.7325 86.3563 35.7689 86.2972C35.8099 86.2322 35.8646 86.1459 35.934 86.0363C36.0092 85.9198 36.1002 85.7791 36.2068 85.6142C36.2612 85.5307 36.3197 85.4408 36.3819 85.3453C36.4501 85.2537 36.5301 85.1613 36.6108 85.0609C36.7748 84.8605 36.9569 84.6382 37.1553 84.3957C37.369 84.1656 37.6137 83.9273 37.8704 83.665C38.3974 83.1555 39.0346 82.6116 39.7755 82.0619C41.2485 80.9455 43.1488 79.836 45.2088 78.5414C46.2311 77.8835 47.307 77.1903 48.3243 76.3464C49.343 75.5091 50.3251 74.5437 51.1202 73.392C52.6881 71.061 53.3249 68.3603 53.3804 65.9466C53.4437 63.5142 52.9264 61.348 52.3168 59.6211C51.6999 57.8881 50.9922 56.5688 50.4786 55.6792C50.2216 55.2332 50.0104 54.8935 49.8653 54.6649C49.7965 54.5547 49.7426 54.4681 49.7018 54.4032C49.6658 54.3438 49.6483 54.3127 49.6502 54.3113C49.6522 54.3099 49.6738 54.3382 49.714 54.3951C49.7576 54.4584 49.8156 54.5422 49.8894 54.6491C50.0429 54.873 50.2618 55.2082 50.5269 55.6508C51.0566 56.5336 51.7806 57.8498 52.4131 59.587C53.038 61.3178 53.57 63.4965 53.5136 65.9499C53.5034 66.5615 53.454 67.1879 53.3605 67.8214C53.2728 68.4558 53.1387 69.0979 52.9542 69.7381C52.5973 71.0216 52.0245 72.2959 51.2398 73.4734C50.4342 74.6408 49.4407 75.6149 48.4137 76.4566C47.3874 77.3049 46.3063 77.9981 45.2798 78.6544C43.2121 79.9453 41.3109 81.0429 39.8363 82.1446C39.0942 82.6871 38.4557 83.2227 37.9262 83.7241C37.6684 83.9822 37.4217 84.2167 37.2064 84.4429C37.0052 84.6813 36.8212 84.8997 36.6549 85.0967C36.5728 85.1955 36.4915 85.2859 36.4218 85.3761C36.358 85.4699 36.2981 85.5579 36.242 85.64C36.1313 85.8015 36.0367 85.9392 35.9587 86.0532C35.8843 86.1595 35.8258 86.2433 35.7816 86.306C35.7408 86.3613 35.7189 86.3899 35.717 86.3885Z" fill="#263238"/>
<path d="M33.1358 91.2919C33.1399 91.2947 33.1188 91.3388 33.075 91.4206C33.0217 91.5158 32.9565 91.6324 32.8774 91.7739C32.7881 91.9249 32.6821 92.1116 32.5749 92.337C32.4656 92.5609 32.3274 92.8087 32.2103 93.1001C32.1479 93.2444 32.0826 93.3948 32.0149 93.5513C31.948 93.7087 31.8934 93.8782 31.8282 94.0503C31.6925 94.393 31.5873 94.7724 31.4674 95.1684C31.2537 95.9679 31.0753 96.862 30.9829 97.813C30.9007 98.7654 30.9135 99.6775 30.9782 100.502C31.0242 100.914 31.0584 101.306 31.1294 101.668C31.1622 101.849 31.1849 102.026 31.2221 102.192C31.2601 102.359 31.297 102.518 31.332 102.672C31.3939 102.979 31.4849 103.248 31.5515 103.488C31.6159 103.729 31.6861 103.932 31.7463 104.097C31.7985 104.25 31.8412 104.377 31.8765 104.48C31.9048 104.568 31.9172 104.616 31.9128 104.618C31.9081 104.62 31.8864 104.576 31.8495 104.491C31.8076 104.39 31.756 104.266 31.6939 104.117C31.625 103.954 31.5468 103.753 31.4746 103.513C31.4 103.274 31.3017 103.005 31.2329 102.697C31.1946 102.543 31.1547 102.383 31.113 102.216C31.0725 102.049 31.0467 101.871 31.0112 101.689C30.9346 101.325 30.8952 100.93 30.8452 100.515C30.7725 99.6831 30.7556 98.7618 30.8386 97.8002C30.9318 96.8401 31.1161 95.9373 31.3389 95.1326C31.4635 94.7338 31.574 94.3525 31.7155 94.0087C31.7835 93.8361 31.8412 93.6659 31.9114 93.5086C31.9827 93.3524 32.051 93.202 32.1168 93.0577C32.2405 92.7671 32.3862 92.5207 32.5031 92.2992C32.6177 92.0764 32.7312 91.893 32.8286 91.7456C32.9171 91.6093 32.9904 91.4972 33.05 91.4057C33.1022 91.3282 33.1313 91.2891 33.1358 91.2919Z" fill="#263238"/>
<path d="M67.445 97.961C67.4463 97.9632 67.4272 97.9768 67.3886 98.0021C67.3423 98.0309 67.2857 98.0665 67.2155 98.1103C67.0515 98.2088 66.8267 98.344 66.5422 98.5149C66.3943 98.6026 66.2314 98.6992 66.0535 98.8043C65.8718 98.9045 65.667 98.9997 65.4508 99.109C65.0143 99.3197 64.5298 99.5877 63.9578 99.8039C63.675 99.9199 63.3792 100.041 63.0712 100.168C62.7618 100.292 62.4279 100.388 62.0888 100.505C61.4134 100.752 60.6655 100.927 59.8841 101.131C58.3081 101.482 56.5448 101.739 54.68 101.799C52.8141 101.836 51.0392 101.672 49.4468 101.404C48.6557 101.241 47.8997 101.105 47.2121 100.893C46.8671 100.794 46.5286 100.716 46.2133 100.608C45.8989 100.498 45.5973 100.392 45.3087 100.291C44.7265 100.105 44.2284 99.8628 43.7816 99.6752C43.5598 99.5772 43.3506 99.4926 43.1638 99.4021C42.981 99.3063 42.8131 99.2181 42.6607 99.1385C42.3677 98.9825 42.1362 98.8596 41.9672 98.7697C41.8951 98.7297 41.8365 98.697 41.7888 98.6706C41.7491 98.6476 41.7291 98.6348 41.7305 98.6326C41.7316 98.6304 41.7538 98.639 41.796 98.6578C41.8454 98.6809 41.9062 98.7092 41.9811 98.7441C42.1526 98.8279 42.3879 98.9428 42.6857 99.0882C42.8392 99.1643 43.0084 99.2484 43.193 99.3397C43.3809 99.4262 43.5912 99.5067 43.8138 99.6008C44.2622 99.7806 44.7609 100.016 45.3431 100.194C45.6311 100.292 45.9328 100.394 46.2466 100.501C46.5616 100.605 46.8993 100.681 47.2432 100.777C47.9289 100.982 48.682 101.114 49.4696 101.272C51.055 101.532 52.8202 101.691 54.6759 101.654C56.5304 101.594 58.2842 101.343 59.8538 101.001C60.6319 100.802 61.3773 100.631 62.0511 100.39C62.3894 100.276 62.7229 100.183 63.0318 100.063C63.3398 99.9396 63.6354 99.8217 63.9181 99.709C64.4901 99.5001 64.976 99.2395 65.4145 99.0363C65.6317 98.9306 65.8376 98.8393 66.0208 98.743C66.2003 98.642 66.3649 98.5493 66.5142 98.4652C66.8039 98.3046 67.0331 98.1775 67.1999 98.0848C67.2729 98.0459 67.3323 98.0146 67.3803 97.9888C67.4219 97.9685 67.4436 97.9588 67.445 97.961Z" fill="#263238"/>
<path d="M70.339 39.2297C70.3404 39.2316 70.3204 39.2502 70.2799 39.2846C70.2327 39.3235 70.1728 39.3729 70.0978 39.4345C69.9277 39.5702 69.6907 39.7594 69.3894 40C68.7719 40.4882 67.8795 41.1961 66.7514 42.0394C65.6211 42.878 64.2519 43.8548 62.6238 44.7681C61.8018 45.2071 60.9266 45.6559 59.9648 45.9916C59.0063 46.3296 57.9759 46.5888 56.8964 46.674C54.7282 46.8208 52.673 46.2714 51.0008 45.4477C50.1647 45.0287 49.4104 44.5592 48.7239 44.0935C48.0462 43.6154 47.4277 43.1528 46.8804 42.7093C45.7818 41.8277 44.921 41.0815 44.3229 40.57C44.0313 40.318 43.8021 40.1196 43.6372 39.9773C43.5648 39.9129 43.5071 39.8613 43.4613 39.8205C43.4222 39.7844 43.4027 39.7652 43.4044 39.7633C43.4061 39.7614 43.4285 39.7769 43.4707 39.8091C43.519 39.8471 43.5798 39.8951 43.6561 39.9551C43.8248 40.0924 44.0601 40.2836 44.3593 40.527C44.9684 41.0254 45.8392 41.7597 46.944 42.6294C47.4943 43.067 48.1145 43.523 48.7919 43.9947C49.4779 44.4537 50.2296 44.9163 51.0596 45.3281C52.7188 46.1371 54.7491 46.674 56.8861 46.5297C57.9495 46.4456 58.9677 46.1912 59.9173 45.8582C60.8703 45.5277 61.7411 45.0848 62.56 44.6513C64.1828 43.7494 65.5548 42.784 66.6912 41.957C67.8254 41.1256 68.7273 40.4299 69.3552 39.9553C69.6636 39.7239 69.9061 39.5419 70.0804 39.4114C70.1586 39.3545 70.2216 39.3088 70.2713 39.273C70.3146 39.2424 70.3376 39.2277 70.339 39.2297Z" fill="#263238"/>
<g opacity="0.24">
<path d="M45.3125 100.292C46.6273 99.2767 48.4749 99.5232 50.1008 99.8648C51.7265 100.206 53.3643 100.763 55.0096 100.532C56.2495 100.359 57.387 99.7485 58.6108 99.4835C59.8343 99.2185 61.319 99.4144 61.9975 100.467C56.6139 102.217 50.6583 102.155 45.3125 100.292Z" fill="black"/>
</g>
<path d="M91.2028 92.7613L85.2262 86.0696L85.1657 94.2038L86.9645 99.4212L69.0873 102.522L68.3292 88.4164L67.0421 77.5834C66.8845 76.2561 67.6415 74.9893 68.8853 74.4995L73.8052 72.5623L80.7345 73.8335L83.522 74.893C84.6923 75.3379 85.7354 76.0633 86.5596 77.006L94.9505 86.6015" fill="#990000"/>
<path d="M84.8067 84.4694C84.808 84.4408 85.1999 84.4988 85.8162 84.3984C86.4262 84.3032 87.2692 84.0049 87.9685 83.3613C88.6667 82.7161 89.0325 81.9 89.1765 81.2995C89.3264 80.6934 89.3006 80.2982 89.3289 80.2991C89.3375 80.2988 89.3516 80.3962 89.3541 80.5738C89.3572 80.7514 89.34 81.0098 89.2761 81.3225C89.1543 81.9433 88.7919 82.7972 88.0665 83.4676C87.34 84.1364 86.4595 84.4286 85.8309 84.4997C85.514 84.538 85.2551 84.5344 85.0783 84.5169C84.9013 84.4999 84.8055 84.478 84.8067 84.4694Z" fill="white"/>
<path d="M85.3285 93.8577C85.3704 93.8574 85.3809 91.0393 85.3526 87.5644C85.3241 84.0884 85.2672 81.2714 85.2255 81.272C85.1836 81.2723 85.1731 84.0898 85.2014 87.5658C85.2297 91.0407 85.2866 93.858 85.3285 93.8577Z" fill="#263238"/>
<path d="M84.6749 95.9254L73.8728 91.5769C73.0017 91.2262 72.4048 90.4114 72.3335 89.4751L71.5429 79.1186C71.5429 79.1186 71.6364 74.714 68.8852 74.4995L67.3201 75.1159C65.2973 76.1901 64.7962 79.1352 65.0715 81.4091C65.4627 84.6401 65.6256 89.2123 66.0635 92.0165C66.4218 94.3104 67.7355 96.3281 69.9805 96.9189L83.2852 99.7991L84.6749 95.9254Z" fill="#990000"/>
<path d="M71.6981 80.6985C71.7031 80.6982 71.7148 80.7798 71.7323 80.9358C71.7495 81.1045 71.7725 81.332 71.8016 81.6181C71.8569 82.225 71.9346 83.0798 72.03 84.1298C72.1216 85.1949 72.2298 86.4564 72.3503 87.8562C72.3797 88.207 72.4099 88.5663 72.4407 88.9335C72.4729 89.3006 72.4951 89.6766 72.5786 90.0415C72.6577 90.4079 72.8337 90.7508 73.1156 91.012C73.3959 91.2742 73.7464 91.466 74.1124 91.6322C77.0912 92.9212 79.8362 93.9852 81.829 94.7317C82.8183 95.096 83.6231 95.3927 84.1947 95.6033C84.4645 95.7027 84.679 95.7817 84.838 95.8406C84.9845 95.8961 85.0608 95.9274 85.0591 95.9324C85.0575 95.9371 84.9781 95.9149 84.8285 95.8683C84.6673 95.8159 84.4497 95.7454 84.1761 95.6566C83.6109 95.4693 82.7958 95.1884 81.7937 94.828C79.7893 94.1051 77.0398 93.0569 74.0525 91.764C73.6812 91.595 73.3163 91.3972 73.0168 91.1169C72.7149 90.8383 72.5212 90.4564 72.441 90.074C72.3547 89.6908 72.3344 89.312 72.3034 88.946C72.2742 88.5788 72.2456 88.2192 72.2176 87.8681C72.1088 86.4673 72.0109 85.2046 71.9282 84.1384C71.8519 83.0867 71.7897 82.2309 71.7456 81.6229C71.7278 81.3359 71.7137 81.1078 71.7031 80.9385C71.6948 80.7812 71.6931 80.6988 71.6981 80.6985Z" fill="#263238"/>
<path d="M65.5073 86.3284C65.5123 86.3281 65.5192 86.3761 65.5287 86.4674C65.5384 86.5754 65.55 86.7074 65.5644 86.8673C65.5966 87.2364 65.6399 87.7331 65.6927 88.337C65.7518 88.9566 65.827 89.6945 65.9346 90.5098C66.0456 91.3237 66.1769 92.2218 66.4225 93.1334C66.5388 93.5937 66.7022 94.0189 66.9498 94.3841C67.1973 94.7523 67.4723 95.0828 67.7567 95.3756C68.3278 95.9598 68.9375 96.3879 69.4853 96.6724C70.5906 97.2468 71.394 97.2551 71.3826 97.2934C71.3823 97.2984 71.334 97.2971 71.2422 97.2901C71.1503 97.2837 71.0144 97.2732 70.8426 97.2385C70.4982 97.1777 70.0029 97.0426 69.4392 96.7631C68.8765 96.4856 68.2493 96.0585 67.6621 95.4688C67.3699 95.1733 67.0874 94.8381 66.8326 94.4632C66.5743 94.0871 66.3989 93.6323 66.2835 93.1717C66.0343 92.2462 65.9074 91.3451 65.8028 90.5268C65.7021 89.7076 65.6371 88.9674 65.5911 88.3453C65.5456 87.7231 65.5214 87.2189 65.5087 86.8703C65.5053 86.7097 65.5023 86.5773 65.5001 86.4688C65.4995 86.3769 65.5023 86.3284 65.5073 86.3284Z" fill="#263238"/>
<path d="M70.1295 93.5754C70.1148 93.5713 70.1606 93.3404 70.3263 92.9999C70.4897 92.6602 70.7925 92.2209 71.2332 91.843C71.6755 91.4667 72.1567 91.2366 72.518 91.1281C72.8802 91.0179 73.1155 91.0088 73.1174 91.024C73.1219 91.0482 72.8951 91.0931 72.5516 91.2247C72.2083 91.3548 71.7535 91.5904 71.3272 91.9528C70.9027 92.3172 70.5988 92.7296 70.4165 93.0482C70.2328 93.3665 70.1528 93.5835 70.1295 93.5754Z" fill="#263238"/>
<path d="M72.2559 85.6992C72.2572 85.697 72.2803 85.7075 72.3244 85.7294C72.3755 85.7561 72.439 85.7894 72.5178 85.8307C72.6913 85.9123 72.9441 86.0405 73.2884 86.1576C73.9675 86.3935 75.0317 86.6333 76.316 86.4163C77.5839 86.209 79.0583 85.4616 80.0795 84.078C80.5849 83.3948 80.9762 82.5531 81.065 81.6307C81.1096 81.1725 81.0722 80.6952 80.9209 80.2459C80.7727 79.7977 80.5014 79.3818 80.142 79.056C79.7846 78.7294 79.3406 78.4993 78.8741 78.4399C78.4145 78.3672 77.9219 78.4888 77.6031 78.7968C77.4491 78.9516 77.3531 79.1587 77.3553 79.3718C77.3547 79.5846 77.4366 79.7947 77.564 79.9654C77.8198 80.3147 78.2508 80.4776 78.6629 80.5384C79.5046 80.6541 80.3315 80.5018 81.0239 80.2007C81.7196 79.8974 82.2879 79.4467 82.6972 78.9494C83.1074 78.4499 83.3602 77.9099 83.5112 77.4201C83.663 76.9283 83.7093 76.4824 83.7168 76.1205C83.7223 75.7575 83.6843 75.4767 83.656 75.2872C83.6399 75.1998 83.6269 75.1293 83.6166 75.0727C83.608 75.0241 83.605 74.9988 83.6075 74.9983C83.6075 74.9983 83.7604 75.3832 83.7731 76.1205C83.7745 76.4868 83.7359 76.9406 83.5889 77.4431C83.4426 77.9437 83.1918 78.4982 82.7769 79.0141C82.3626 79.5277 81.784 79.9948 81.0725 80.3106C80.3632 80.6242 79.5168 80.7865 78.6435 80.6705C78.2144 80.6086 77.7438 80.4396 77.4535 80.0481C77.3112 79.8582 77.216 79.6218 77.2157 79.3718C77.2124 79.1209 77.3267 78.8739 77.5032 78.6972C77.8651 78.3467 78.4004 78.2221 78.8938 78.2976C79.3933 78.3611 79.8636 78.6059 80.2397 78.9491C80.6176 79.2921 80.9018 79.7278 81.0577 80.2004C81.2159 80.6722 81.2537 81.1692 81.2065 81.644C81.1121 82.5989 80.7067 83.4603 80.1872 84.1571C79.1369 85.5676 77.6267 86.3186 76.3335 86.517C75.0245 86.7243 73.9495 86.4645 73.2701 86.2104C72.5825 85.9484 72.2559 85.6992 72.2559 85.6992Z" fill="white"/>
<path d="M65.1743 82.9371C65.1677 82.931 65.2282 82.8503 65.3517 82.7159C65.4763 82.5827 65.6691 82.3999 65.9352 82.2084C66.4594 81.8141 67.3278 81.4555 68.3248 81.3614C68.8232 81.3084 69.3069 81.3323 69.7332 81.4205C70.16 81.5091 70.5271 81.6528 70.8185 81.8018C71.1104 81.95 71.3313 82.0963 71.4784 82.2037C71.6249 82.3119 71.7004 82.3788 71.6951 82.3863C71.6801 82.409 71.3571 82.1648 70.7744 81.8942C70.198 81.6184 69.3158 81.3884 68.3401 81.5055C67.363 81.5984 66.5208 81.9292 65.9932 82.2927C65.4588 82.6485 65.1943 82.9574 65.1743 82.9371Z" fill="white"/>
<path d="M66.9047 75.5317C66.9269 75.5073 67.1822 75.8608 67.7791 76.1672C68.0741 76.3204 68.4554 76.4486 68.8919 76.4935C69.3268 76.5396 69.8183 76.4899 70.2853 76.3012C70.7493 76.1047 71.1322 75.7926 71.4075 75.4523C71.6847 75.1121 71.8637 74.7519 71.9645 74.435C72.1701 73.7965 72.101 73.366 72.134 73.3674C72.1415 73.3666 72.1632 73.4704 72.1701 73.6619C72.1779 73.8531 72.1551 74.1331 72.0624 74.465C71.9709 74.7966 71.7952 75.1762 71.5116 75.5359C71.2302 75.8952 70.8311 76.2274 70.3408 76.4347C69.8477 76.6342 69.3304 76.6811 68.8775 76.6259C68.423 76.5715 68.0303 76.4272 67.7311 76.2574C67.4312 76.0881 67.2169 75.9058 67.0873 75.7654C66.9569 75.6252 66.8986 75.5364 66.9047 75.5317Z" fill="white"/>
<path d="M76.3179 92.561C76.3129 92.5604 76.3207 92.4902 76.3404 92.3564C76.3709 92.2257 76.4136 92.0276 76.5318 91.7976C76.7497 91.3322 77.2925 90.7494 78.1489 90.3939C78.9933 90.0146 80.1544 89.9413 81.3249 90.2802C81.8957 90.4503 82.5512 90.6598 82.9799 91.2176C83.1895 91.4917 83.2613 91.9002 83.1015 92.2332C82.9486 92.5682 82.6478 92.7985 82.3317 92.9597C82.0095 93.1171 81.6598 93.2062 81.3091 93.2131C80.9614 93.2198 80.5987 93.1335 80.3273 92.9087C80.0534 92.6872 79.9091 92.3451 79.8877 92.0187C79.8624 91.6896 79.9293 91.3716 80.0348 91.083C80.4952 89.9274 81.4262 89.1929 82.2612 88.8294C83.1101 88.4578 83.8788 88.4189 84.3861 88.4644C84.8978 88.5172 85.1625 88.6279 85.1625 88.6279C85.1581 88.6468 84.8875 88.5552 84.3819 88.5205C83.8804 88.4927 83.1281 88.5474 82.3034 88.9226C81.8941 89.1096 81.4717 89.378 81.0912 89.7454C80.7124 90.1109 80.3719 90.5793 80.1602 91.1288C80.0609 91.4046 80.0006 91.7063 80.0256 92.0079C80.0475 92.3076 80.1766 92.6057 80.4175 92.7999C80.6556 92.9967 80.9825 93.0769 81.3071 93.0702C81.6338 93.0638 81.9657 92.9792 82.2679 92.8315C82.5653 92.6809 82.8403 92.4641 82.9711 92.1752C83.1073 91.8883 83.0501 91.5478 82.8656 91.3011C82.6827 91.0491 82.4155 90.8674 82.143 90.7275C81.8685 90.5887 81.5744 90.4947 81.2894 90.4095C80.1433 90.0712 79.0177 90.132 78.1888 90.4897C77.3477 90.8255 76.811 91.3785 76.5826 91.8248C76.3454 92.2715 76.3384 92.5668 76.3179 92.561Z" fill="white"/>
<path d="M69.127 96.461C69.1225 96.4338 69.5388 96.3985 70.1629 96.1763C70.7831 95.959 71.6098 95.5136 72.2864 94.7654C72.9629 94.0167 73.3229 93.1492 73.4766 92.5104C73.6351 91.8672 73.6281 91.4498 73.6559 91.4512C73.6645 91.4512 73.6745 91.5547 73.6711 91.7426C73.6684 91.9304 73.6442 92.2027 73.5762 92.5332C73.4452 93.1903 73.0909 94.0908 72.3935 94.8623C71.6961 95.6335 70.8361 96.0764 70.1954 96.2728C69.8735 96.3736 69.6048 96.4249 69.4184 96.4468C69.2319 96.4693 69.1278 96.4699 69.127 96.461Z" fill="white"/>
<path d="M65.625 88.4105C65.6236 88.4058 65.6683 88.3878 65.7555 88.3583C65.8426 88.3298 65.9719 88.2898 66.1412 88.2471C66.4784 88.1655 66.9812 88.0536 67.6125 88.0975C67.9267 88.1222 68.2708 88.1938 68.6129 88.3447C68.9531 88.4954 69.2936 88.7324 69.5462 89.0771C69.7937 89.4215 69.9458 89.8691 69.9089 90.3364C69.8917 90.5692 69.8203 90.8032 69.6946 91.0121C69.5681 91.2178 69.3783 91.4045 69.1285 91.4856C68.8824 91.563 68.5932 91.5236 68.3987 91.3412C68.2067 91.1553 68.1586 90.8945 68.147 90.668C68.1295 90.2074 68.2291 89.7658 68.4015 89.3829C68.745 88.6084 69.3844 88.0997 69.9769 87.888C70.5738 87.6671 71.1032 87.6834 71.446 87.7426C71.6191 87.7725 71.7498 87.8111 71.8367 87.8416C71.923 87.8741 71.9671 87.8932 71.9655 87.898C71.961 87.9121 71.7801 87.8405 71.4379 87.7981C71.0994 87.757 70.5849 87.7578 70.0138 87.9832C69.4468 88.1999 68.8457 88.6933 68.523 89.437C68.3615 89.8039 68.2702 90.2262 68.2882 90.6608C68.2991 90.8731 68.3487 91.0959 68.4975 91.2366C68.6437 91.3754 68.8818 91.412 69.0847 91.3476C69.29 91.2816 69.4582 91.1212 69.572 90.9366C69.6849 90.7493 69.751 90.5379 69.7676 90.3245C69.8037 89.8966 69.6655 89.4767 69.4377 89.1545C69.2057 88.8318 68.8865 88.6023 68.5632 88.4535C68.238 88.3042 67.9072 88.2293 67.6034 88.1988C66.9912 88.143 66.4914 88.2368 66.1534 88.3012C65.814 88.3714 65.6281 88.4216 65.625 88.4105Z" fill="white"/>
<g opacity="0.3">
<path d="M81.5717 94.6906C80.4167 94.0381 79.2864 93.5367 78.0787 92.9881C76.871 92.4392 75.688 91.7346 74.8977 90.6692C73.4069 88.6598 73.5768 85.7599 72.0508 83.7771C72.1504 85.1105 72.25 86.4437 72.3497 87.7771C72.441 88.9989 72.2536 90.2075 73.0409 91.0378C73.7039 91.7373 74.9968 92.2738 75.9123 92.5757C77.7516 93.1826 79.7321 94.0839 81.5717 94.6906Z" fill="black"/>
</g>
<path d="M100.342 109.912C100.342 109.912 109.38 112.414 109.743 112.541C110.287 112.733 110.196 114.728 109.349 114.697C108.948 114.682 102.406 114.94 101.58 114.889C100.753 114.837 98.2598 113.855 98.2598 113.855L100.342 109.912Z" fill="#990000"/>
<path d="M104.106 113.361C104.151 113.367 104.213 112.889 104.504 112.391C104.789 111.888 105.172 111.595 105.143 111.559C105.127 111.524 104.678 111.779 104.373 112.315C104.063 112.849 104.068 113.365 104.106 113.361Z" fill="#263238"/>
<path d="M103.165 112.934C103.209 112.942 103.3 112.514 103.541 112.042C103.778 111.568 104.066 111.24 104.034 111.209C104.009 111.179 103.656 111.474 103.406 111.974C103.153 112.472 103.126 112.931 103.165 112.934Z" fill="#263238"/>
<path d="M102.282 112.697C102.328 112.694 102.293 112.243 102.494 111.742C102.686 111.238 103.018 110.93 102.986 110.897C102.968 110.862 102.563 111.142 102.353 111.687C102.138 112.23 102.246 112.71 102.282 112.697Z" fill="#263238"/>
<path d="M102.44 111.53C102.456 111.534 102.536 111.281 102.537 110.857C102.536 110.646 102.512 110.393 102.445 110.12C102.412 109.984 102.367 109.843 102.31 109.7C102.281 109.629 102.248 109.546 102.166 109.479C102.081 109.403 101.928 109.419 101.855 109.494C101.772 109.566 101.746 109.668 101.735 109.75C101.726 109.833 101.721 109.91 101.723 109.989C101.725 110.144 101.745 110.293 101.779 110.431C101.846 110.707 101.953 110.938 102.057 111.122C102.267 111.489 102.45 111.676 102.463 111.666C102.483 111.652 102.332 111.441 102.152 111.072C102.063 110.888 101.97 110.662 101.915 110.401C101.887 110.27 101.871 110.131 101.871 109.988C101.875 109.849 101.873 109.675 101.954 109.608C101.997 109.573 102.036 109.57 102.074 109.598C102.114 109.629 102.147 109.691 102.173 109.756C102.229 109.891 102.275 110.025 102.31 110.155C102.381 110.415 102.415 110.657 102.43 110.861C102.456 111.27 102.415 111.526 102.44 111.53Z" fill="#263238"/>
<path d="M102.428 111.438C102.432 111.421 102.214 111.346 101.845 111.344C101.661 111.343 101.441 111.363 101.203 111.422C101.086 111.454 100.961 111.484 100.834 111.558C100.71 111.621 100.581 111.793 100.63 111.971C100.669 112.139 100.812 112.257 100.955 112.294C101.099 112.334 101.239 112.32 101.361 112.293C101.609 112.236 101.802 112.114 101.948 112.004C102.238 111.777 102.379 111.603 102.368 111.59C102.352 111.571 102.181 111.72 101.887 111.917C101.738 112.011 101.553 112.114 101.332 112.157C101.222 112.178 101.104 112.184 100.997 112.152C100.891 112.123 100.802 112.041 100.777 111.937C100.751 111.836 100.812 111.744 100.911 111.685C101.008 111.625 101.128 111.59 101.239 111.557C101.463 111.493 101.672 111.464 101.848 111.451C102.202 111.426 102.424 111.462 102.428 111.438Z" fill="#263238"/>
<path d="M105.494 113.458C105.539 113.453 105.495 113.066 105.672 112.643C105.841 112.215 106.143 111.97 106.115 111.935C106.1 111.898 105.722 112.112 105.532 112.585C105.337 113.056 105.458 113.474 105.494 113.458Z" fill="#263238"/>
<path d="M99.1895 113.875C99.1857 113.885 99.3097 113.942 99.5392 114.04C99.7715 114.127 100.111 114.25 100.545 114.351C101.409 114.569 102.642 114.692 103.996 114.678C105.35 114.663 106.571 114.601 107.456 114.566C107.875 114.544 108.226 114.525 108.503 114.51C108.75 114.494 108.887 114.48 108.887 114.469C108.886 114.459 108.749 114.453 108.501 114.452C108.224 114.454 107.872 114.456 107.453 114.459C106.537 114.477 105.33 114.501 103.995 114.527C102.647 114.541 101.43 114.436 100.569 114.247C99.7046 114.069 99.2001 113.847 99.1895 113.875Z" fill="#263238"/>
<path d="M98.9202 114.081C98.9324 114.102 99.1797 113.957 99.5973 113.774C100.01 113.597 100.629 113.385 101.308 113.49C101.989 113.594 102.471 114.052 102.786 114.369C103.103 114.698 103.288 114.917 103.307 114.901C103.32 114.89 103.166 114.65 102.864 114.297C102.712 114.122 102.518 113.919 102.265 113.736C102.015 113.552 101.692 113.396 101.331 113.341C100.603 113.229 99.9605 113.472 99.5521 113.677C99.1375 113.889 98.911 114.066 98.9202 114.081Z" fill="#263238"/>
<path d="M90.7475 107.417C90.7475 107.417 82.1948 113.017 81.8882 113.248C81.4275 113.596 81.9559 115.254 82.7537 114.967C83.1311 114.831 90.308 112.835 91.0797 112.534C91.8515 112.234 93.9289 110.541 93.9289 110.541L90.7475 107.417Z" fill="#990000"/>
<path d="M88.208 111.846C88.2455 111.838 88.0937 111.345 87.6358 110.931C87.1818 110.512 86.6767 110.406 86.6723 110.444C86.6565 110.487 87.1099 110.65 87.5339 111.043C87.9632 111.429 88.1666 111.866 88.208 111.846Z" fill="#263238"/>
<path d="M88.9757 111.153C89.0117 111.139 88.8464 110.709 88.4542 110.312C88.0649 109.912 87.6386 109.737 87.6239 109.773C87.6023 109.813 87.9769 110.037 88.346 110.418C88.719 110.795 88.936 111.174 88.9757 111.153Z" fill="#263238"/>
<path d="M89.7452 110.659C89.784 110.66 89.7413 110.17 89.3714 109.718C89.0059 109.263 88.535 109.119 88.528 109.158C88.5081 109.199 88.9177 109.392 89.2537 109.814C89.597 110.229 89.7011 110.67 89.7452 110.659Z" fill="#263238"/>
<path d="M89.2393 109.595C89.2618 109.585 89.1447 109.353 89.0456 108.955C88.997 108.756 88.9562 108.516 88.9451 108.246C88.9393 108.112 88.9421 107.971 88.9546 107.825C88.9593 107.755 88.9723 107.686 89.0009 107.644C89.0284 107.606 89.0659 107.597 89.118 107.618C89.2157 107.656 89.2665 107.823 89.3126 107.954C89.3561 108.09 89.3833 108.228 89.3964 108.36C89.4227 108.626 89.4033 108.87 89.3747 109.072C89.3148 109.478 89.2346 109.725 89.2584 109.732C89.2737 109.738 89.3905 109.504 89.4802 109.091C89.5232 108.884 89.5557 108.631 89.5354 108.348C89.5254 108.206 89.4993 108.058 89.4541 107.909C89.4322 107.834 89.4044 107.762 89.3703 107.685C89.3348 107.611 89.279 107.522 89.178 107.478C89.0858 107.429 88.9349 107.46 88.8777 107.558C88.82 107.647 88.8131 107.736 88.8069 107.813C88.7961 107.966 88.7964 108.114 88.8061 108.254C88.8255 108.534 88.8791 108.782 88.9426 108.984C89.0722 109.388 89.2251 109.604 89.2393 109.595Z" fill="#263238"/>
<path d="M89.221 109.504C89.2321 109.526 89.4325 109.425 89.7768 109.341C89.9489 109.3 90.157 109.264 90.3896 109.257C90.5056 109.255 90.6305 109.252 90.7409 109.279C90.853 109.305 90.9396 109.375 90.9454 109.479C90.9529 109.586 90.8933 109.69 90.8008 109.75C90.7087 109.814 90.5941 109.843 90.4828 109.857C90.2594 109.883 90.0516 109.842 89.8818 109.796C89.5415 109.698 89.3334 109.609 89.324 109.632C89.3176 109.647 89.5049 109.77 89.8501 109.899C90.0227 109.959 90.2436 110.016 90.4973 109.996C90.6219 109.984 90.7589 109.955 90.8838 109.874C91.0087 109.795 91.1103 109.639 91.0961 109.467C91.0889 109.282 90.9132 109.158 90.7761 109.136C90.633 109.103 90.5042 109.113 90.3829 109.118C90.1387 109.133 89.9228 109.182 89.748 109.238C89.3969 109.352 89.2121 109.49 89.221 109.504Z" fill="#263238"/>
<path d="M83.8455 114.654C83.8552 114.667 83.9893 114.567 84.0548 114.323C84.1264 114.084 84.0814 113.716 83.8946 113.394C83.8053 113.232 83.7029 113.091 83.608 112.967C83.5145 112.843 83.4176 112.731 83.3177 112.656C83.2189 112.579 83.1154 112.544 83.0444 112.541C82.9728 112.538 82.9364 112.556 82.9375 112.565C82.9378 112.588 83.0904 112.577 83.2486 112.738C83.3288 112.814 83.4087 112.921 83.4953 113.049C83.583 113.177 83.6785 113.315 83.762 113.467C83.9352 113.769 83.9868 114.081 83.9501 114.301C83.9191 114.522 83.8255 114.639 83.8455 114.654Z" fill="#263238"/>
<path d="M86.9155 112.36C86.9552 112.364 86.943 111.93 86.6145 111.541C86.2901 111.148 85.8649 111.058 85.8619 111.098C85.8455 111.14 86.2074 111.282 86.4985 111.638C86.7965 111.988 86.8714 112.369 86.9155 112.36Z" fill="#263238"/>
<path d="M93.0491 110.843C93.0416 110.834 92.9106 110.93 92.6731 111.101C92.4325 111.267 92.0792 111.501 91.6186 111.747C91.1585 111.994 90.5907 112.25 89.9436 112.493C89.2959 112.734 88.5696 112.962 87.8015 113.184C86.2627 113.627 84.8699 114.033 83.8648 114.335C83.3828 114.483 82.9829 114.606 82.6763 114.7C82.3965 114.789 82.2434 114.843 82.2461 114.853C82.2489 114.863 82.4079 114.828 82.6924 114.756C83.0023 114.674 83.4067 114.567 83.894 114.438C84.9069 114.162 86.3033 113.773 87.8437 113.33C88.6132 113.106 89.3428 112.873 89.993 112.623C90.6426 112.371 91.212 112.102 91.6702 111.84C92.1289 111.579 92.4769 111.33 92.7081 111.148C92.9367 110.962 93.0549 110.85 93.0491 110.843Z" fill="#263238"/>
<path d="M93.3683 110.958C93.3728 110.941 93.103 110.841 92.6435 110.765C92.192 110.694 91.5063 110.657 90.8461 110.984C90.5189 111.147 90.2592 111.394 90.0766 111.645C89.8909 111.897 89.768 112.148 89.6756 112.361C89.4952 112.789 89.4214 113.065 89.4378 113.072C89.46 113.081 89.5704 112.816 89.7724 112.406C89.9756 112.008 90.2966 111.426 90.9138 111.12C91.529 110.813 92.1828 110.828 92.6296 110.871C93.0833 110.919 93.3631 110.981 93.3683 110.958Z" fill="#263238"/>
<path d="M108.522 93.76C108.522 93.76 111.087 94.676 111.098 97.5532C111.118 103.064 99.9631 109.138 99.9631 109.138L85.118 99.3023L84.1875 98.9257C84.1875 98.9257 104.227 91.3981 108.522 93.76Z" fill="#263238"/>
<path d="M92.637 104.27C92.6433 104.279 92.7807 104.185 93.0235 104.008C93.2669 103.832 93.614 103.57 94.0389 103.241C94.8889 102.584 96.0453 101.653 97.2893 100.585C98.5334 99.5168 99.6287 98.5145 100.407 97.7735C100.796 97.4033 101.107 97.0997 101.318 96.8858C101.529 96.6724 101.643 96.5508 101.636 96.5433C101.628 96.5358 101.501 96.643 101.277 96.843C101.035 97.062 100.717 97.3489 100.334 97.695C99.5379 98.4151 98.4329 99.4033 97.1908 100.471C95.9484 101.537 94.8045 102.48 93.9723 103.157C93.5721 103.484 93.2405 103.755 92.9874 103.961C92.7557 104.153 92.6306 104.262 92.637 104.27Z" fill="#455A64"/>
<path d="M104.328 95.8198C104.334 95.7829 103.672 95.718 102.898 95.9497C102.122 96.1756 101.601 96.5893 101.626 96.6174C101.651 96.6568 102.192 96.3118 102.941 96.0948C103.687 95.8706 104.329 95.8662 104.328 95.8198Z" fill="#455A64"/>
<path d="M103.05 94.9512C103.037 94.9154 102.561 95.1246 102.17 95.613C101.775 96.0981 101.67 96.6073 101.708 96.6129C101.752 96.6279 101.914 96.1655 102.288 95.7082C102.656 95.2464 103.074 94.9903 103.05 94.9512Z" fill="#455A64"/>
<path d="M109.335 112.4C109.343 112.383 109.158 112.347 108.953 112.516C108.751 112.678 108.579 113.001 108.524 113.378C108.468 113.758 108.552 114.107 108.659 114.328C108.764 114.554 108.88 114.66 108.893 114.649C108.913 114.635 108.832 114.51 108.758 114.289C108.683 114.07 108.622 113.748 108.673 113.399C108.724 113.053 108.866 112.754 109.024 112.596C109.182 112.431 109.338 112.425 109.335 112.4Z" fill="#263238"/>
<path d="M105.105 84.7568L99.8183 98.1595L77.0524 98.5305L76.6309 97.299L84.6094 97.0095L88.444 85.1201L105.105 84.7568Z" fill="#455A64"/>
<path d="M94.4742 90.5592C94.7664 90.3614 95.3062 90.4407 95.569 90.676C95.8318 90.9116 95.917 91.3193 95.7832 91.6459C95.6497 91.9726 95.3131 92.2015 94.9607 92.2204C94.5863 92.2403 94.1959 92.0061 94.0913 91.6462C93.9869 91.2863 94.1032 90.749 94.4742 90.5592Z" fill="#EBEBEB"/>
<path d="M101.37 109.808C101.37 109.808 80.3952 96.0503 79.5363 95.7639C78.6774 95.4775 76.602 94.1177 74.5265 94.6902C72.4511 95.2627 70.5901 97.1237 69.6597 99.8432C69.1282 101.397 68.8768 104.048 68.7592 106.036C68.6185 108.413 69.3544 110.783 70.9093 112.587C71.6166 113.407 72.4894 114.121 73.5245 114.444C73.7429 114.512 73.9696 114.57 74.2024 114.621C78.1679 115.48 82.2434 113.7 84.4715 110.309L84.9607 109.564C84.9607 109.564 98.6814 114.605 98.8962 114.534L101.37 109.808Z" fill="#263238"/>
<path d="M75.4199 106.021C75.4199 106.021 75.4579 106.041 75.5351 106.072C75.6181 106.105 75.7318 106.15 75.8784 106.208C76.1878 106.328 76.6343 106.5 77.2082 106.72C78.3748 107.16 80.0576 107.794 82.1497 108.582C84.249 109.365 86.7632 110.296 89.5843 111.323C92.4057 112.348 95.5324 113.474 98.8713 114.605L98.9321 114.625L98.9618 114.568C99.486 113.567 100.039 112.511 100.6 111.439C100.887 110.892 101.17 110.35 101.436 109.843L101.468 109.781L101.41 109.744C95.1117 105.746 89.4772 102.169 85.4106 99.588C83.3801 98.3073 81.7418 97.2739 80.6048 96.5565C80.0418 96.2052 79.6033 95.9316 79.2997 95.742C79.154 95.653 79.0408 95.5839 78.9589 95.5336C78.8818 95.4873 78.8405 95.467 78.8405 95.467C78.8405 95.467 78.8765 95.4959 78.9512 95.5464C79.0314 95.5994 79.1418 95.6727 79.2842 95.767C79.5844 95.9618 80.0182 96.2435 80.5749 96.6048C81.7057 97.3313 83.3357 98.3784 85.3554 99.6757C89.415 102.267 95.0403 105.858 101.328 109.871L101.302 109.773C101.037 110.279 100.753 110.822 100.467 111.369C99.9058 112.441 99.353 113.497 98.8291 114.499L98.9193 114.462C95.582 113.335 92.454 112.215 89.6301 111.197C86.8107 110.171 84.292 109.254 82.1849 108.488C80.0862 107.718 78.3978 107.098 77.2276 106.669C76.6498 106.459 76.2003 106.295 75.8886 106.182C75.7402 106.129 75.6244 106.089 75.5404 106.059C75.4613 106.032 75.4199 106.021 75.4199 106.021Z" fill="#455A64"/>
<path d="M77.5935 57.1649C77.9509 56.1981 78.7415 55.7783 79.7433 55.5357C80.7451 55.2932 81.8598 55.5804 82.6199 56.2767C83.1283 56.7423 83.501 57.3858 84.1287 57.6706C85.1627 58.1393 86.4875 57.4544 87.4674 58.0272C88.0474 58.3663 88.3324 59.138 88.1115 59.7727C87.8906 60.4073 87.1885 60.8358 86.523 60.7414C87.1968 61.0597 87.3225 62.0737 86.8585 62.6568C86.3946 63.2398 85.5371 63.3977 84.82 63.1949C84.1032 62.992 83.5077 62.4917 83.0012 61.9453C82.4948 61.3989 82.0513 60.7925 81.5033 60.288C80.9549 59.7835 80.2709 59.3772 79.5263 59.3495C78.5184 59.312 77.5885 59.9894 77.0593 60.848C76.5301 61.7066 76.3328 62.7248 76.1854 63.7224C76.0381 64.7203 75.9268 65.7382 75.5419 66.6706C75.4967 66.78 75.432 66.9015 75.3163 66.9257C75.1489 66.9606 75.0263 66.7752 74.9591 66.6179C74.201 64.8413 73.7967 62.9146 73.7761 60.9831C73.7642 59.8615 73.8899 58.8114 74.5864 57.932C75.283 57.0526 76.8897 56.5053 77.5935 57.1649Z" fill="#263238"/>
<path d="M75.2319 61.6422L73.6901 72.847C73.4278 74.7524 74.8137 76.4895 76.7296 76.6574C78.5176 76.814 80.114 75.5377 80.3569 73.7592C80.472 72.9156 80.57 72.2124 80.5875 72.1263C80.5875 72.1263 83.4768 72.2507 84.0713 69.4556C84.3585 68.105 84.7237 65.275 85.0245 62.7108C85.3475 59.9572 83.4979 57.418 80.7792 56.8746L80.5089 56.8205C77.5596 56.4087 75.5621 58.6829 75.2319 61.6422Z" fill="#FFBE9D"/>
<path d="M80.5995 72.0868C80.5995 72.0868 78.8002 71.877 77.1543 70.3188C77.1543 70.3188 77.6147 72.5078 80.461 72.8139L80.5995 72.0868Z" fill="#EB996E"/>
<path d="M83.8371 64.4247C83.8024 64.6375 83.5934 64.7835 83.3706 64.7513C83.148 64.7191 82.9954 64.521 83.0304 64.3082C83.0651 64.0953 83.274 63.9491 83.4966 63.9812C83.7192 64.0134 83.8718 64.2119 83.8371 64.4247Z" fill="#263238"/>
<path d="M84.1497 63.9658C84.0897 64.0079 83.8314 63.7232 83.4004 63.6383C82.9714 63.5473 82.6112 63.7057 82.5751 63.6436C82.5568 63.6156 82.6262 63.5315 82.7838 63.4588C82.9392 63.3861 83.1895 63.3353 83.4576 63.3899C83.7254 63.4449 83.9313 63.5886 84.0409 63.7157C84.153 63.8439 84.1788 63.9472 84.1497 63.9658Z" fill="#263238"/>
<path d="M79.5795 63.7272C79.5448 63.94 79.3358 64.086 79.113 64.0538C78.8904 64.0216 78.7378 63.8235 78.7725 63.6106C78.8072 63.3978 79.0161 63.2515 79.2387 63.2837C79.4615 63.3157 79.6142 63.5143 79.5795 63.7272Z" fill="#263238"/>
<path d="M79.898 63.2004C79.8378 63.2425 79.5792 62.9578 79.1488 62.8729C78.7198 62.7819 78.3596 62.9403 78.3232 62.8782C78.3049 62.8501 78.3737 62.766 78.5319 62.6936C78.6873 62.6209 78.9376 62.5701 79.2054 62.6248C79.4732 62.68 79.6791 62.8238 79.7887 62.9506C79.9008 63.0785 79.9269 63.182 79.898 63.2004Z" fill="#263238"/>
<path d="M80.8242 66.7056C80.827 66.6806 81.104 66.6879 81.5488 66.7192C81.6609 66.7298 81.7694 66.7287 81.803 66.6573C81.8446 66.583 81.8224 66.4553 81.7947 66.3168C81.7445 66.0302 81.692 65.7296 81.6368 65.4147C81.4234 64.1326 81.2924 63.0872 81.344 63.0789C81.3956 63.0709 81.6107 64.1035 81.8241 65.3855C81.874 65.7011 81.922 66.0022 81.9673 66.2899C81.9839 66.4231 82.0272 66.5791 81.9382 66.7328C81.8921 66.8091 81.7994 66.8527 81.7253 66.8574C81.6504 66.8649 81.5885 66.8535 81.5333 66.846C81.0923 66.7825 80.8212 66.7303 80.8242 66.7056Z" fill="#263238"/>
<path d="M79.4977 66.7503C79.5685 66.7603 79.4761 67.2276 79.8099 67.6394C80.1426 68.0521 80.6513 68.099 80.6421 68.165C80.6427 68.1955 80.5131 68.2335 80.3016 68.1972C80.0941 68.1631 79.806 68.0365 79.6018 67.7848C79.3984 67.5326 79.3479 67.2403 79.3701 67.0453C79.3909 66.8466 79.4664 66.7414 79.4977 66.7503Z" fill="#263238"/>
<path d="M80.3478 61.5355C80.282 61.644 79.863 61.5027 79.346 61.4627C78.8295 61.4122 78.3925 61.4788 78.3464 61.3604C78.3264 61.304 78.4197 61.2083 78.607 61.1278C78.7929 61.0473 79.0749 60.9918 79.3848 61.0185C79.6948 61.0459 79.9629 61.1494 80.1316 61.2613C80.3023 61.3728 80.3772 61.4836 80.3478 61.5355Z" fill="#263238"/>
<path d="M84.2371 62.6882C84.1419 62.7709 83.8655 62.6102 83.5097 62.5339C83.1567 62.4454 82.8379 62.4681 82.7888 62.3519C82.7682 62.2961 82.8354 62.2075 82.9858 62.1415C83.1343 62.0752 83.3668 62.0433 83.6105 62.0996C83.8541 62.1562 84.0486 62.2875 84.1527 62.4124C84.2587 62.5381 84.2801 62.6471 84.2371 62.6882Z" fill="#263238"/>
<path d="M75.0468 63.7622C75.0032 63.7319 73.2355 62.8081 72.9139 64.7359C72.5923 66.6635 74.5939 66.5888 74.6067 66.5342C74.6194 66.4795 75.0468 63.7622 75.0468 63.7622Z" fill="#FFBE9D"/>
<path d="M74.1397 65.7055C74.1323 65.698 74.1023 65.7235 74.0412 65.7399C73.9816 65.756 73.8836 65.7576 73.7893 65.7032C73.5981 65.5945 73.4807 65.2426 73.5292 64.8935C73.5536 64.7173 73.6183 64.5563 73.7035 64.4284C73.7859 64.2971 73.8936 64.2139 73.999 64.2128C74.105 64.2061 74.1675 64.2796 74.1819 64.3379C74.1988 64.3962 74.18 64.4325 74.1897 64.4375C74.1944 64.4434 74.2363 64.4123 74.2341 64.3299C74.2324 64.2902 74.2174 64.2411 74.1783 64.1964C74.1383 64.1512 74.0734 64.1206 74.0007 64.1165C73.8503 64.102 73.6938 64.2164 73.6 64.3568C73.4982 64.4966 73.4213 64.6767 73.3938 64.8746C73.3414 65.2651 73.4796 65.6619 73.7449 65.7887C73.8744 65.8467 73.9946 65.8248 74.0604 65.789C74.1286 65.7515 74.1458 65.7102 74.1397 65.7055Z" fill="#EB996E"/>
<path d="M85.735 62.2478C84.4351 62.3296 83.1112 61.7405 82.302 60.7198C81.7358 60.0058 81.3759 59.07 80.5745 58.6363C80.035 58.3444 79.3715 58.341 78.7865 58.5267C78.2018 58.7123 77.6865 59.0714 77.225 59.4758C77.482 61.0079 76.8007 62.5244 76.1366 63.9289C76.0634 64.084 75.9793 64.2502 75.8253 64.3263C75.5639 64.4553 75.252 64.2514 75.0957 64.0052C74.8457 63.6112 74.8163 63.1191 74.8257 62.6524C74.8468 61.5892 75.0333 60.5208 75.4651 59.549C75.8966 58.5775 76.5826 57.7058 77.4803 57.1358C78.602 56.4238 80.0153 56.2206 81.314 56.5009C82.6128 56.7812 83.7922 57.5255 84.6752 58.5184C85.0848 58.979 85.4414 59.508 85.5807 60.1085" fill="#263238"/>
<path d="M8.06916 107.453C8.06666 107.451 8.08303 107.411 8.11772 107.335C8.15657 107.253 8.20846 107.141 8.27507 107C8.40855 106.704 8.58226 106.255 8.73711 105.658C9.04292 104.465 9.14948 102.641 8.6977 100.476C8.48791 99.391 8.14963 98.2277 7.73643 96.9945C7.32961 95.759 6.85702 94.4481 6.47101 93.0312C6.08944 91.6175 5.78807 90.0829 5.84607 88.4742C5.90462 86.8625 6.38165 85.2535 6.90669 83.652C7.43034 82.048 7.97203 80.4799 8.13437 78.9031C8.3178 77.3288 7.98091 75.7834 7.26384 74.5171C6.56924 73.2372 5.69538 72.1428 5.0413 71.0091C4.37696 69.8791 3.96153 68.7172 3.7054 67.6366C3.20894 65.4577 3.38293 63.622 3.62076 62.412C3.87856 61.1957 4.16605 60.5669 4.16605 60.5669C4.16883 60.568 4.15773 60.6094 4.13386 60.6896C4.10667 60.777 4.07004 60.8941 4.02342 61.0434C3.92712 61.3542 3.8028 61.8184 3.68458 62.4245C3.4673 63.6319 3.31384 65.4552 3.82028 67.61C4.08141 68.6787 4.49878 69.8253 5.16063 70.9398C5.81304 72.0601 6.69079 73.1501 7.39926 74.4447C8.13159 75.7251 8.48375 77.3207 8.29699 78.9197C8.13381 80.5234 7.58796 82.1019 7.06542 83.7039C6.54066 85.304 6.06918 86.8961 6.00952 88.4809C5.95013 90.0649 6.24373 91.5848 6.61947 92.9915C6.9991 94.4015 7.46614 95.7127 7.86797 96.9518C8.2759 98.1889 8.61001 99.3613 8.81342 100.454C9.25327 102.636 9.12784 104.477 8.8001 105.675C8.63443 106.274 8.44961 106.722 8.30559 107.015C8.23288 107.153 8.17572 107.262 8.13298 107.344C8.09302 107.417 8.07165 107.454 8.06916 107.453Z" fill="#263238"/>
<path d="M5.93161 72.1278C5.93161 72.1278 4.60348 67.8808 6.98585 65.3944C7.06938 65.307 7.21674 65.3483 7.23838 65.4674C7.36548 66.1684 7.52449 68.3046 5.93161 72.1278Z" fill="#990000"/>
<path d="M6.72641 66.8094C6.74888 66.8138 6.71086 67.1127 6.63705 67.5928C6.54991 68.1325 6.44724 68.7661 6.33401 69.4659C6.22301 70.1661 6.12228 70.7994 6.03681 71.3391C5.9641 71.8186 5.92053 72.1161 5.89611 72.1142C5.87474 72.1125 5.87669 71.8103 5.91998 71.3247C5.96382 70.8393 6.04957 70.1719 6.16973 69.439C6.28961 68.7064 6.41726 68.0465 6.52133 67.5711C6.62484 67.0958 6.70365 66.8049 6.72641 66.8094Z" fill="#263238"/>
<path d="M7.48828 82.1442C7.48828 82.1442 8.30054 77.7693 11.569 76.6854C11.6839 76.6474 11.7946 76.7526 11.758 76.868C11.5426 77.5473 10.684 79.5099 7.48828 82.1442Z" fill="#990000"/>
<path d="M10.6791 77.8151C10.6968 77.8296 10.5237 78.076 10.2337 78.4659C9.904 78.9021 9.51716 79.4141 9.09008 79.98C8.66439 80.5469 8.27921 81.0597 7.9512 81.4965C7.6626 81.8864 7.48499 82.129 7.46446 82.1159C7.44614 82.1046 7.58933 81.8384 7.85463 81.4294C8.12048 81.0212 8.50815 80.4709 8.95715 79.8795C9.4056 79.2879 9.82741 78.7645 10.1415 78.3929C10.4554 78.0211 10.6613 77.8004 10.6791 77.8151Z" fill="#263238"/>
<path d="M6.60749 93.1192C6.60749 93.1192 6.11409 88.6969 8.92716 86.7105C9.02595 86.6409 9.16248 86.7094 9.16109 86.8304C9.15193 87.543 8.90052 89.6704 6.60749 93.1192Z" fill="#990000"/>
<path d="M8.40367 88.0502C8.42504 88.0589 8.33069 88.345 8.1664 88.8023C7.9777 89.3154 7.75625 89.9179 7.51149 90.5833C7.26895 91.2493 7.04945 91.8521 6.86241 92.3652C6.69951 92.8222 6.59989 93.1058 6.5763 93.0992C6.55549 93.0934 6.61543 92.7973 6.7503 92.3288C6.886 91.861 7.09718 91.2219 7.35526 90.5256C7.61278 89.8293 7.86392 89.2058 8.05679 88.759C8.24938 88.3122 8.3823 88.0416 8.40367 88.0502Z" fill="#263238"/>
<path d="M9.06853 104.159C9.06853 104.159 8.73386 99.7219 11.616 97.8374C11.7173 97.7713 11.8513 97.8446 11.8455 97.9653C11.8111 98.6774 11.4834 100.794 9.06853 104.159Z" fill="#990000"/>
<path d="M11.0453 99.1575C11.0664 99.1669 10.9618 99.4494 10.7814 99.9006C10.5744 100.407 10.3315 101.001 10.0632 101.657C9.79708 102.314 9.55592 102.908 9.35057 103.414C9.1713 103.865 9.06197 104.145 9.03865 104.138C9.01812 104.131 9.08833 103.838 9.24012 103.374C9.39247 102.911 9.62669 102.281 9.90946 101.594C10.1917 100.907 10.4653 100.293 10.6737 99.8535C10.8816 99.4136 11.0242 99.1478 11.0453 99.1575Z" fill="#263238"/>
<path d="M4.02164 68.3962C4.02164 68.3962 0.0774665 66.3366 4.26572e-05 62.8936C-0.00273239 62.7726 0.130469 62.6977 0.230094 62.7665C0.816184 63.1716 2.4407 64.5683 4.02164 68.3962Z" fill="#990000"/>
<path d="M0.819992 64.0764C0.839139 64.0637 1.02368 64.3015 1.31145 64.6933C1.63169 65.1362 2.00799 65.6565 2.42341 66.231C2.8405 66.804 3.21791 67.3227 3.53926 67.7645C3.82731 68.1546 4.00713 68.3958 3.98854 68.4116C3.97217 68.4258 3.75988 68.2107 3.44657 67.8372C3.1341 67.4634 2.72201 66.9311 2.28827 66.3284C1.85425 65.7259 1.4774 65.1695 1.21433 64.7602C0.951251 64.3506 0.800844 64.0892 0.819992 64.0764Z" fill="#263238"/>
<path d="M8.25502 77.5169C8.25502 77.5169 4.19291 75.7004 3.9068 72.2687C3.89681 72.1483 4.02529 72.0653 4.12852 72.1278C4.7382 72.4969 6.4443 73.792 8.25502 77.5169Z" fill="#990000"/>
<path d="M4.79825 73.3998C4.81656 73.3859 5.01526 73.6121 5.32634 73.9856C5.67294 74.4082 6.08004 74.9047 6.5296 75.4528C6.98055 75.9994 7.38876 76.4942 7.73647 76.9158C8.04783 77.2879 8.2418 77.5174 8.22432 77.5343C8.20878 77.5493 7.984 77.3476 7.6485 76.9937C7.31383 76.6396 6.87038 76.1335 6.40084 75.5579C5.93102 74.9829 5.52115 74.4504 5.23365 74.0577C4.94588 73.6653 4.77993 73.4136 4.79825 73.3998Z" fill="#263238"/>
<path d="M5.91978 87.6901C5.91978 87.6901 3.13085 84.2229 4.43901 81.0374C4.4848 80.9256 4.63715 80.9103 4.7007 81.013C5.07561 81.6194 6.00441 83.5494 5.91978 87.6901Z" fill="#990000"/>
<path d="M4.71395 82.4493C4.73671 82.4451 4.81053 82.737 4.91736 83.2113C5.03336 83.7455 5.16962 84.3727 5.3203 85.0656C5.47293 85.7577 5.61085 86.384 5.72851 86.9177C5.83618 87.3908 5.90445 87.6836 5.88086 87.6905C5.86033 87.6969 5.75182 87.4147 5.61446 86.9471C5.47792 86.4795 5.31336 85.8268 5.15768 85.1008C5.00117 84.3751 4.87907 83.7141 4.80192 83.2338C4.7245 82.7531 4.69148 82.4534 4.71395 82.4493Z" fill="#263238"/>
<path d="M8.68165 99.6625C8.68165 99.6625 4.6509 97.778 4.42223 94.3422C4.41418 94.2215 4.54406 94.1407 4.64645 94.2051C5.25003 94.5839 6.9342 95.9076 8.68165 99.6625Z" fill="#990000"/>
<path d="M5.29441 95.4874C5.31301 95.4738 5.50782 95.7033 5.81252 96.0818C6.1519 96.5103 6.55068 97.0134 6.9908 97.569C7.43259 98.1231 7.83247 98.6246 8.17297 99.0519C8.47795 99.4291 8.66804 99.6619 8.65028 99.6786C8.63446 99.6933 8.41301 99.4879 8.08361 99.1285C7.75505 98.7689 7.31992 98.2552 6.8601 97.6722C6.39999 97.0894 5.99928 96.55 5.71844 96.1528C5.43761 95.7555 5.27582 95.501 5.29441 95.4874Z" fill="#263238"/>
<path d="M16.7113 82.1672C16.7152 82.1675 16.7169 82.2008 16.7163 82.2652C16.7144 82.3426 16.7121 82.4361 16.7094 82.5496C16.6974 82.8169 16.6816 83.1779 16.6616 83.6286C16.6097 84.5771 16.5373 85.8997 16.4505 87.4817L16.4502 87.4854L16.4491 87.4909C16.1613 89.101 15.3413 90.8856 14.2399 92.6184C13.4318 93.8946 12.5848 95.0551 11.8544 96.1344C11.119 97.2105 10.4985 98.2073 10.0659 99.0906C9.63051 99.9725 9.37742 100.73 9.22923 101.26C9.15847 101.526 9.10519 101.733 9.07439 101.875C9.04136 102.016 9.0211 102.09 9.01528 102.089C9.00973 102.088 9.01861 102.012 9.04136 101.869C9.06134 101.724 9.10464 101.514 9.16624 101.244C9.29584 100.707 9.53421 99.9356 9.95963 99.0396C10.3823 98.1421 10.9969 97.132 11.7268 96.0489C12.4522 94.9619 13.2947 93.7997 14.0983 92.5298C15.1939 90.8057 16.0098 89.0483 16.3081 87.464L16.307 87.4731C16.418 85.8927 16.511 84.5715 16.5776 83.6239C16.6139 83.1743 16.643 82.8141 16.6647 82.5474C16.6761 82.4345 16.6855 82.3415 16.6933 82.2644C16.7019 82.2 16.7077 82.1672 16.7113 82.1672Z" fill="#263238"/>
<path d="M14.3117 92.2873C14.3117 92.2873 16.0189 88.1783 13.8716 85.4862C13.7961 85.3919 13.6457 85.4196 13.6135 85.5359C13.4234 86.2227 13.0716 88.3357 14.3117 92.2873Z" fill="#990000"/>
<path d="M14.0026 86.9187C14.0254 86.9162 14.0778 87.2134 14.138 87.6963C14.1985 88.1791 14.266 88.8479 14.319 89.5883C14.3725 90.329 14.3972 91.0017 14.397 91.489C14.3959 91.9765 14.3709 92.2776 14.3492 92.2773C14.3248 92.2771 14.3084 91.9768 14.2793 91.4926C14.2429 90.9475 14.2002 90.3076 14.1528 89.6003C14.1034 88.8929 14.0587 88.2527 14.0207 87.7074C13.9904 87.222 13.9796 86.9212 14.0026 86.9187Z" fill="#263238"/>
<g opacity="0.3">
<path d="M14.3117 92.2873C14.3117 92.2873 16.0189 88.1783 13.8716 85.4862C13.7961 85.3919 13.6457 85.4196 13.6135 85.5359C13.4234 86.2227 13.0716 88.3357 14.3117 92.2873Z" fill="black"/>
</g>
<path d="M9.02534 102.19C9.02534 102.19 10.3937 97.9557 8.03493 95.4467C7.95195 95.3585 7.8046 95.3984 7.78184 95.5172C7.64808 96.2171 7.46882 98.3519 9.02534 102.19Z" fill="#990000"/>
<path d="M8.28022 96.8641C8.30269 96.8599 8.37901 97.1516 8.47808 97.628C8.57742 98.1042 8.69897 98.7652 8.81191 99.499C8.92541 100.233 9.0045 100.901 9.04391 101.387C9.08248 101.873 9.08165 102.175 9.06028 102.176C9.03586 102.178 8.99535 101.88 8.92708 101.4C8.8466 100.86 8.75197 100.225 8.64763 99.5239C8.54107 98.823 8.4445 98.1886 8.36236 97.648C8.2927 97.1674 8.25774 96.8682 8.28022 96.8641Z" fill="#263238"/>
<g opacity="0.3">
<path d="M9.02534 102.19C9.02534 102.19 10.3937 97.9557 8.03493 95.4467C7.95195 95.3585 7.8046 95.3984 7.78184 95.5172C7.64808 96.2171 7.46882 98.3519 9.02534 102.19Z" fill="black"/>
</g>
<path d="M16.4863 87.2658C16.4863 87.2658 20.1316 84.7138 19.7637 81.2899C19.7506 81.1698 19.6088 81.1126 19.5192 81.1934C18.9903 81.6712 17.5597 83.2658 16.4863 87.2658Z" fill="#990000"/>
<g opacity="0.3">
<path d="M16.4863 87.2658C16.4863 87.2658 20.1316 84.7138 19.7637 81.2899C19.7506 81.1698 19.6088 81.1126 19.5192 81.1934C18.9903 81.6712 17.5597 83.2658 16.4863 87.2658Z" fill="black"/>
</g>
<path d="M19.0997 82.5681C19.1202 82.5784 19.0051 82.857 18.797 83.2969C18.5888 83.7367 18.2872 84.3372 17.9345 84.9908C17.5823 85.6446 17.2424 86.2254 16.9807 86.6364C16.7184 87.0471 16.5356 87.2877 16.5175 87.276C16.497 87.2627 16.6441 87.0007 16.8794 86.5764C17.1411 86.0969 17.4483 85.5338 17.7879 84.9117C18.1257 84.2884 18.4315 83.724 18.6921 83.2433C18.9268 82.8179 19.0792 82.5582 19.0997 82.5681Z" fill="#263238"/>
<path d="M10.4922 97.9921C10.4922 97.9921 14.8887 97.3066 16.0664 94.0707C16.1078 93.9572 16.0057 93.8434 15.8894 93.8764C15.2042 94.072 13.2176 94.8735 10.4922 97.9921Z" fill="#990000"/>
<g opacity="0.3">
<path d="M10.4922 97.9921C10.4922 97.9921 14.8887 97.3066 16.0664 94.0707C16.1078 93.9572 16.0057 93.8434 15.8894 93.8764C15.2042 94.072 13.2176 94.8735 10.4922 97.9921Z" fill="black"/>
</g>
<path d="M14.9137 94.9279C14.9276 94.9462 14.7014 95.1454 14.321 95.4488C13.9405 95.7521 13.4052 96.1583 12.8008 96.5896C12.1967 97.0214 11.6356 97.3932 11.2196 97.6472C10.803 97.9005 10.533 98.0359 10.5219 98.0174C10.5094 97.9963 10.757 97.8259 11.1552 97.5486C11.6014 97.2334 12.1251 96.8632 12.704 96.4542C13.2817 96.0432 13.8048 95.6713 14.2502 95.3547C14.6484 95.0758 14.8996 94.9096 14.9137 94.9279Z" fill="#263238"/>
<path d="M6.29797 106.083L5.01562 114.715H13.0078L11.9716 106.083H6.29797Z" fill="#455A64"/>
<path d="M12.2913 108.758C12.2913 108.804 10.8483 108.841 9.06864 108.841C7.28845 108.841 5.8457 108.804 5.8457 108.758C5.8457 108.712 7.28845 108.675 9.06864 108.675C10.8483 108.675 12.2913 108.712 12.2913 108.758Z" fill="#263238"/>
<path d="M12.45 109.445C12.45 109.491 10.9596 109.528 9.12164 109.528C7.28289 109.528 5.79297 109.491 5.79297 109.445C5.79297 109.399 7.28289 109.362 9.12164 109.362C10.9596 109.362 12.45 109.399 12.45 109.445Z" fill="#263238"/>
</svg>
