<svg width="135" height="100" viewBox="0 0 135 100" fill="none" xmlns="http://www.w3.org/2000/svg">
<path d="M134.189 87.8792H0V87.9462H134.189V87.8792Z" fill="#EBEBEB"/>
<path d="M88.8936 92.9275H86.5605V92.9946H88.8936V92.9275Z" fill="#EBEBEB"/>
<path d="M46.4899 89.5913H40.2676V89.6584H46.4899V89.5913Z" fill="#EBEBEB"/>
<path d="M123.123 91.0308H107.914V91.0979H123.123V91.0308Z" fill="#EBEBEB"/>
<path d="M26.6719 91.0308H11.4629V91.0979H26.6719V91.0308Z" fill="#EBEBEB"/>
<path d="M63.6074 75.9101H11.7839C10.9393 75.9101 10.252 75.2227 10.252 74.3782V1.5319C10.252 0.687315 10.9393 0 11.7839 0H63.6074C64.4517 0 65.139 0.687315 65.139 1.5319V74.3782C65.139 75.2227 64.4517 75.9101 63.6074 75.9101ZM11.7839 0.0673626C10.976 0.0673626 10.319 0.724351 10.319 1.53217V74.3784C10.319 75.1862 10.976 75.8432 11.7839 75.8432H63.6074C64.4149 75.8432 65.0719 75.1862 65.0719 74.3784V1.5319C65.0719 0.724351 64.4149 0.0670944 63.6074 0.0670944L11.7839 0.0673626Z" fill="#EBEBEB"/>
<path d="M121.658 75.9101H69.8344C68.9898 75.9101 68.3027 75.2227 68.3027 74.3782V1.5319C68.3027 0.687315 68.9901 0 69.8344 0H121.658C122.502 0 123.19 0.687315 123.19 1.5319V74.3782C123.19 75.2227 122.502 75.9101 121.658 75.9101ZM69.8344 0.0673626C69.0268 0.0673626 68.3698 0.724351 68.3698 1.53217V74.3784C68.3698 75.1862 69.0268 75.8432 69.8344 75.8432H121.658C122.465 75.8432 123.122 75.1862 123.122 74.3784V1.5319C123.122 0.724351 122.465 0.0670944 121.658 0.0670944L69.8344 0.0673626Z" fill="#EBEBEB"/>
<path d="M30.4071 48.687L101.666 48.687V9.97945L30.4071 9.97945V48.687Z" fill="#E6E6E6"/>
<path d="M29.5966 48.687L100.855 48.687V9.97945L29.5966 9.97945V48.687Z" fill="#F5F5F5"/>
<path d="M99.4043 47.0551V11.6113L31.0506 11.6113V47.0551L99.4043 47.0551Z" fill="white"/>
<path d="M31.6621 47.0551L31.6621 11.6113H31.0502L31.0502 47.0551H31.6621Z" fill="#E6E6E6"/>
<path d="M30.1985 40.8481L100.256 40.8481V38.6574L30.1985 38.6574V40.8481Z" fill="#F5F5F5"/>
<path d="M30.1985 22.2405L100.256 22.2405V20.0497L30.1985 20.0497V22.2405Z" fill="#F5F5F5"/>
<path d="M28.0146 7.27881H103.25C103.373 7.27881 103.474 7.37945 103.474 7.50237C103.474 7.62528 103.373 7.72593 103.25 7.72593H28.0146C27.8917 7.72593 27.791 7.62528 27.791 7.50237C27.7907 7.37945 27.8914 7.27881 28.0146 7.27881Z" fill="#E6E6E6"/>
<path d="M26.6719 7.50236C26.6719 8.1199 27.1727 8.62069 27.7902 8.62069C28.4077 8.62069 28.9085 8.1199 28.9085 7.50236C28.9085 6.88483 28.408 6.38403 27.7902 6.38403C27.1724 6.38403 26.6719 6.88483 26.6719 7.50236Z" fill="#E6E6E6"/>
<path d="M101.366 8.7552C101.533 8.7552 101.668 8.6194 101.668 8.45328V7.80461C101.668 7.63848 101.533 7.50269 101.366 7.50269C101.2 7.50269 101.064 7.63848 101.064 7.80461V8.45328C101.064 8.61914 101.2 8.7552 101.366 8.7552Z" fill="#E6E6E6"/>
<path d="M31.3879 8.7552C31.554 8.7552 31.6898 8.6194 31.6898 8.45328V7.80461C31.6898 7.63848 31.554 7.50269 31.3879 7.50269C31.2217 7.50269 31.0859 7.63848 31.0859 7.80461V8.45328C31.0859 8.61914 31.2217 8.7552 31.3879 8.7552Z" fill="#E6E6E6"/>
<path opacity="0.5" d="M28.0853 15.6301L100.256 15.6301V7.50231L28.0853 7.50231V15.6301Z" fill="#E0E0E0"/>
<path d="M97.7687 8.62069C98.3864 8.62069 98.8871 8.12 98.8871 7.50236C98.8871 6.88473 98.3864 6.38403 97.7687 6.38403C97.1511 6.38403 96.6504 6.88473 96.6504 7.50236C96.6504 8.12 97.1511 8.62069 97.7687 8.62069Z" fill="#E6E6E6"/>
<path d="M79.4129 87.8792H83.9922V57.272H79.4129V87.8792Z" fill="#E6E6E6"/>
<path d="M80.6144 87.8791H79.4102V83.7109H81.8768L80.6144 87.8791Z" fill="#F0F0F0"/>
<path d="M116.593 87.8792H121.172V57.272H116.593V87.8792Z" fill="#E6E6E6"/>
<path d="M79.4097 85.3215H117.641V57.2723H79.4097V85.3215Z" fill="#F0F0F0"/>
<path d="M80.3462 66.2075H116.709V58.5153L80.3462 58.5153V66.2075Z" fill="#E6E6E6"/>
<path d="M87.5591 60.9057H108.684C109.859 60.9057 110.982 59.9567 111.79 58.2812H84.4531C85.2612 59.9567 86.3844 60.9057 87.5591 60.9057Z" fill="#F0F0F0"/>
<path d="M116.438 87.8791H117.642V83.7109H115.176L116.438 87.8791Z" fill="#F0F0F0"/>
<path d="M80.3462 75.1431H116.709V67.4508H80.3462V75.1431Z" fill="#E6E6E6"/>
<path d="M87.5591 69.841H108.684C109.859 69.841 110.982 68.892 111.79 67.2168H84.4531C85.2612 68.892 86.3844 69.841 87.5591 69.841Z" fill="#F0F0F0"/>
<path d="M80.3462 84.0784H116.709V76.3861H80.3462V84.0784Z" fill="#E6E6E6"/>
<path d="M87.5591 78.7765H108.684C109.859 78.7765 110.982 77.8276 111.79 76.1523H84.4531C85.2612 77.8276 86.3844 78.7765 87.5591 78.7765Z" fill="#F0F0F0"/>
<path d="M107.141 41.9272C106.417 39.4895 115.441 27.2834 119.405 27.6481C123.368 28.0129 116.4 42.8203 114.262 44.1292C111.848 45.6069 107.929 44.582 107.141 41.9272Z" fill="#F5F5F5"/>
<path d="M106.625 45.4462C106.277 44.2015 112.586 42.1757 115.093 43.644C117.599 45.1123 112.479 48.8932 111.058 48.7212C109.453 48.5272 107.005 46.8018 106.625 45.4462Z" fill="#F5F5F5"/>
<path d="M114.288 44.3291C115.163 42.6938 108.737 33.1299 105.313 32.9547C101.889 32.7797 106.287 43.949 107.975 45.102C109.882 46.4039 113.337 46.1097 114.288 44.3291Z" fill="#F5F5F5"/>
<path d="M110.996 39.2404L110.982 39.2401C110.647 39.2342 110.357 39.4776 110.308 39.8093C109.564 44.8664 109.474 49.9639 110.041 55.0438C110.078 55.3771 110.36 55.6305 110.695 55.6364C110.699 55.6364 110.704 55.6366 110.709 55.6366C111.111 55.6436 111.425 55.295 111.382 54.8943C110.843 49.9296 110.93 44.9482 111.643 40.0055C111.7 39.6067 111.399 39.2473 110.996 39.2404Z" fill="#EBEBEB"/>
<path d="M110.504 57.2724C112.875 57.2724 114.876 55.8744 115.362 53.9848C115.491 53.4848 115.638 52.9886 115.869 52.5154L115.906 52.4392H105.102L105.139 52.5154C105.37 52.9886 105.516 53.4851 105.645 53.9848C106.132 55.8744 108.132 57.2724 110.504 57.2724Z" fill="#FAFAFA"/>
<path d="M105.083 52.9126H115.932C116.233 52.9126 116.496 52.6163 116.571 52.1922C116.679 51.5852 116.363 50.9937 115.932 50.9937H105.083C104.651 50.9937 104.335 51.5852 104.443 52.1922C104.518 52.6163 104.781 52.9126 105.083 52.9126Z" fill="#F0F0F0"/>
<path d="M71.6346 68.5991H58.2656V87.8796H71.6346V68.5991Z" fill="#F0F0F0"/>
<path d="M18.5081 87.8792H58.2656V68.5986H18.5081V87.8792Z" fill="#F5F5F5"/>
<path d="M22.0018 83.6121H30.4082V75.0527H22.0018V83.6121Z" fill="#FAFAFA"/>
<path d="M33.412 83.6121H41.8184V75.0527H33.412V83.6121Z" fill="#FAFAFA"/>
<path opacity="0.7" d="M71.6352 70.6499H18.3691V71.7489H71.6352V70.6499Z" fill="#E6E6E6"/>
<path d="M72.3724 67.9338H58.2656V71.1128H72.3724V67.9338Z" fill="#F0F0F0"/>
<path d="M17.7684 71.1128H58.2637V67.9339H17.7684V71.1128Z" fill="#F5F5F5"/>
<path d="M29.2246 62.5217C29.2246 62.5217 29.479 67.9338 39.2351 67.9338C48.9912 67.9338 49.2456 62.5217 49.2456 62.5217H29.2246Z" fill="#F0F0F0"/>
<path d="M29.2246 58.9355C29.2246 58.9355 29.479 64.3476 39.2351 64.3476C48.9912 64.3476 49.2456 58.9355 49.2456 58.9355H29.2246Z" fill="#F0F0F0"/>
<path d="M67.0941 100C95.8326 100 119.13 98.6395 119.13 96.9612C119.13 95.2829 95.8326 93.9224 67.0941 93.9224C38.3557 93.9224 15.0586 95.2829 15.0586 96.9612C15.0586 98.6395 38.3557 100 67.0941 100Z" fill="#F5F5F5"/>
<path d="M51.3531 91.1167H25V96.076H51.3531V91.1167Z" fill="#990000"/>
<path opacity="0.2" d="M51.3531 91.1167H25V91.6803H51.3531V91.1167Z" fill="black"/>
<path opacity="0.2" d="M27.968 91.1167H26.9297V96.076H27.968V91.1167Z" fill="black"/>
<path opacity="0.2" d="M30.3509 91.1167H29.3125V96.076H30.3509V91.1167Z" fill="black"/>
<path opacity="0.2" d="M32.7356 91.1167H31.6973V96.076H32.7356V91.1167Z" fill="black"/>
<path opacity="0.2" d="M35.1204 91.1167H34.082V96.076H35.1204V91.1167Z" fill="black"/>
<path opacity="0.2" d="M37.5032 91.1167H36.4648V96.076H37.5032V91.1167Z" fill="black"/>
<path opacity="0.2" d="M39.888 91.1167H38.8496V96.076H39.888V91.1167Z" fill="black"/>
<path opacity="0.2" d="M42.2727 91.1167H41.2344V96.076H42.2727V91.1167Z" fill="black"/>
<path opacity="0.2" d="M44.6555 91.1167H43.6172V96.076H44.6555V91.1167Z" fill="black"/>
<path opacity="0.2" d="M47.0403 91.1167H46.002V96.076H47.0403V91.1167Z" fill="black"/>
<path opacity="0.2" d="M49.4251 91.1167H48.3867V96.076H49.4251V91.1167Z" fill="black"/>
<path d="M50.2789 86.1572H23.9258V91.1166H50.2789V86.1572Z" fill="#990000"/>
<path opacity="0.2" d="M50.2789 86.1572H23.9258V86.7208H50.2789V86.1572Z" fill="black"/>
<path opacity="0.2" d="M26.8938 86.1572H25.8555V91.1166H26.8938V86.1572Z" fill="black"/>
<path opacity="0.2" d="M29.2786 86.1572H28.2402V91.1166H29.2786V86.1572Z" fill="black"/>
<path opacity="0.2" d="M31.6634 86.1572H30.625V91.1166H31.6634V86.1572Z" fill="black"/>
<path opacity="0.2" d="M34.0462 86.1572H33.0078V91.1166H34.0462V86.1572Z" fill="black"/>
<path opacity="0.2" d="M36.4309 86.1572H35.3926V91.1166H36.4309V86.1572Z" fill="black"/>
<path opacity="0.2" d="M38.8157 86.1572H37.7773V91.1166H38.8157V86.1572Z" fill="black"/>
<path opacity="0.2" d="M41.1985 86.1572H40.1602V91.1166H41.1985V86.1572Z" fill="black"/>
<path opacity="0.2" d="M43.5833 86.1572H42.5449V91.1166H43.5833V86.1572Z" fill="black"/>
<path opacity="0.2" d="M45.968 86.1572H44.9297V91.1166H45.968V86.1572Z" fill="black"/>
<path opacity="0.2" d="M48.3509 86.1572H47.3125V91.1166H48.3509V86.1572Z" fill="black"/>
<path d="M49.5211 81.198H23.168V86.1573H49.5211V81.198Z" fill="#990000"/>
<path opacity="0.2" d="M49.5211 81.198H23.168V81.7616H49.5211V81.198Z" fill="black"/>
<path opacity="0.2" d="M26.136 81.198H25.0977V86.1573H26.136V81.198Z" fill="black"/>
<path opacity="0.2" d="M28.5208 81.198H27.4824V86.1573H28.5208V81.198Z" fill="black"/>
<path opacity="0.2" d="M30.9055 81.198H29.8672V86.1573H30.9055V81.198Z" fill="black"/>
<path opacity="0.2" d="M33.2884 81.198H32.25V86.1573H33.2884V81.198Z" fill="black"/>
<path opacity="0.2" d="M35.6731 81.198H34.6348V86.1573H35.6731V81.198Z" fill="black"/>
<path opacity="0.2" d="M38.0579 81.198H37.0195V86.1573H38.0579V81.198Z" fill="black"/>
<path opacity="0.2" d="M40.4407 81.198H39.4023V86.1573H40.4407V81.198Z" fill="black"/>
<path opacity="0.2" d="M42.8255 81.198H41.7871V86.1573H42.8255V81.198Z" fill="black"/>
<path opacity="0.2" d="M45.2102 81.198H44.1719V86.1573H45.2102V81.198Z" fill="black"/>
<path opacity="0.2" d="M47.593 81.198H46.5547V86.1573H47.593V81.198Z" fill="black"/>
<path d="M50.7144 76.239H24.3613V81.1984H50.7144V76.239Z" fill="#990000"/>
<path opacity="0.2" d="M50.7144 76.239H24.3613V76.8026H50.7144V76.239Z" fill="black"/>
<path opacity="0.2" d="M27.3274 76.239H26.2891V81.1984H27.3274V76.239Z" fill="black"/>
<path opacity="0.2" d="M29.7141 76.239H28.6758V81.1984H29.7141V76.239Z" fill="black"/>
<path opacity="0.2" d="M32.095 76.239H31.0566V81.1984H32.095V76.239Z" fill="black"/>
<path opacity="0.2" d="M34.4817 76.239H33.4434V81.1984H34.4817V76.239Z" fill="black"/>
<path opacity="0.2" d="M36.8665 76.239H35.8281V81.1984H36.8665V76.239Z" fill="black"/>
<path opacity="0.2" d="M39.2512 76.239H38.2129V81.1984H39.2512V76.239Z" fill="black"/>
<path opacity="0.2" d="M41.6341 76.239H40.5957V81.1984H41.6341V76.239Z" fill="black"/>
<path opacity="0.2" d="M44.0188 76.239H42.9805V81.1984H44.0188V76.239Z" fill="black"/>
<path opacity="0.2" d="M46.3997 76.239H45.3613V81.1984H46.3997V76.239Z" fill="black"/>
<path opacity="0.2" d="M48.7864 76.239H47.748V81.1984H48.7864V76.239Z" fill="black"/>
<path d="M23.2055 76.239H49.5586V71.2797H23.2055V76.239Z" fill="#990000"/>
<path opacity="0.2" d="M23.2055 71.8435H49.5586V71.2799H23.2055V71.8435Z" fill="black"/>
<path opacity="0.2" d="M46.5906 76.239H47.6289V71.2797H46.5906V76.239Z" fill="black"/>
<path opacity="0.2" d="M44.2058 76.239H45.2441V71.2797H44.2058V76.239Z" fill="black"/>
<path opacity="0.2" d="M41.821 76.239H42.8594V71.2797H41.821V76.239Z" fill="black"/>
<path opacity="0.2" d="M39.4382 76.239H40.4766V71.2797H39.4382V76.239Z" fill="black"/>
<path opacity="0.2" d="M37.0534 76.239H38.0918V71.2797H37.0534V76.239Z" fill="black"/>
<path opacity="0.2" d="M34.6687 76.239H35.707V71.2797H34.6687V76.239Z" fill="black"/>
<path opacity="0.2" d="M32.2859 76.239H33.3242V71.2797H32.2859V76.239Z" fill="black"/>
<path opacity="0.2" d="M29.9011 76.239H30.9395V71.2797H29.9011V76.239Z" fill="black"/>
<path opacity="0.2" d="M27.5163 76.239H28.5547V71.2797H27.5163V76.239Z" fill="black"/>
<path opacity="0.2" d="M25.1335 76.239H26.1719V71.2797H25.1335V76.239Z" fill="black"/>
<path d="M24.2758 71.28H50.6289V66.3207H24.2758V71.28Z" fill="#990000"/>
<path opacity="0.2" d="M24.2758 66.8843H50.6289V66.3207H24.2758V66.8843Z" fill="black"/>
<path opacity="0.2" d="M47.6628 71.28H48.7012V66.3207H47.6628V71.28Z" fill="black"/>
<path opacity="0.2" d="M45.2781 71.28H46.3164V66.3207H45.2781V71.28Z" fill="black"/>
<path opacity="0.2" d="M42.8952 71.28H43.9336V66.3207H42.8952V71.28Z" fill="black"/>
<path opacity="0.2" d="M40.5105 71.28H41.5488V66.3207H40.5105V71.28Z" fill="black"/>
<path opacity="0.2" d="M38.1257 71.28H39.1641V66.3207H38.1257V71.28Z" fill="black"/>
<path opacity="0.2" d="M35.7429 71.28H36.7812V66.3207H35.7429V71.28Z" fill="black"/>
<path opacity="0.2" d="M33.3581 71.28H34.3965V66.3207H33.3581V71.28Z" fill="black"/>
<path opacity="0.2" d="M30.9734 71.28H32.0117V66.3207H30.9734V71.28Z" fill="black"/>
<path opacity="0.2" d="M28.5906 71.28H29.6289V66.3207H28.5906V71.28Z" fill="black"/>
<path opacity="0.2" d="M26.2058 71.28H27.2441V66.3207H26.2058V71.28Z" fill="black"/>
<path d="M25.0336 66.3203H51.3867V61.361H25.0336V66.3203Z" fill="#990000"/>
<path opacity="0.2" d="M25.0336 61.9248H51.3867V61.3612H25.0336V61.9248Z" fill="black"/>
<path opacity="0.2" d="M48.4206 66.3203H49.459V61.361H48.4206V66.3203Z" fill="black"/>
<path opacity="0.2" d="M46.0339 66.3203H47.0723V61.361H46.0339V66.3203Z" fill="black"/>
<path opacity="0.2" d="M43.6531 66.3203H44.6914V61.361H43.6531V66.3203Z" fill="black"/>
<path opacity="0.2" d="M41.2683 66.3203H42.3066V61.361H41.2683V66.3203Z" fill="black"/>
<path opacity="0.2" d="M38.8855 66.3203H39.9238V61.361H38.8855V66.3203Z" fill="black"/>
<path opacity="0.2" d="M36.5007 66.3203H37.5391V61.361H36.5007V66.3203Z" fill="black"/>
<path opacity="0.2" d="M34.1159 66.3203H35.1543V61.361H34.1159V66.3203Z" fill="black"/>
<path opacity="0.2" d="M31.7331 66.3203H32.7715V61.361H31.7331V66.3203Z" fill="black"/>
<path opacity="0.2" d="M29.3484 66.3203H30.3867V61.361H29.3484V66.3203Z" fill="black"/>
<path opacity="0.2" d="M26.9636 66.3203H28.002V61.361H26.9636V66.3203Z" fill="black"/>
<path d="M23.8422 61.3613H50.1953V56.402H23.8422V61.3613Z" fill="#990000"/>
<path opacity="0.2" d="M23.8422 56.9658H50.1953V56.4022H23.8422V56.9658Z" fill="black"/>
<path opacity="0.2" d="M47.2273 61.3613H48.2656V56.402H47.2273V61.3613Z" fill="black"/>
<path opacity="0.2" d="M44.8445 61.3613H45.8828V56.402H44.8445V61.3613Z" fill="black"/>
<path opacity="0.2" d="M42.4597 61.3613H43.498V56.402H42.4597V61.3613Z" fill="black"/>
<path opacity="0.2" d="M40.0749 61.3613H41.1133V56.402H40.0749V61.3613Z" fill="black"/>
<path opacity="0.2" d="M37.6921 61.3613H38.7305V56.402H37.6921V61.3613Z" fill="black"/>
<path opacity="0.2" d="M35.3074 61.3613H36.3457V56.402H35.3074V61.3613Z" fill="black"/>
<path opacity="0.2" d="M32.9226 61.3613H33.9609V56.402H32.9226V61.3613Z" fill="black"/>
<path opacity="0.2" d="M30.5398 61.3613H31.5781V56.402H30.5398V61.3613Z" fill="black"/>
<path opacity="0.2" d="M28.155 61.3613H29.1934V56.402H28.155V61.3613Z" fill="black"/>
<path opacity="0.2" d="M25.7702 61.3613H26.8086V56.402H25.7702V61.3613Z" fill="black"/>
<path d="M107.529 36.7741L97.0195 38.5757C96.1102 38.7316 95.8432 39.909 96.5965 40.4417L98.5348 41.8126L86.6558 58.6066C86.3306 59.0666 85.6937 59.1758 85.2337 58.8503L67.7719 46.4969C67.3119 46.1713 66.6751 46.2806 66.3498 46.7406L31.1445 96.5098H43.7983L68.817 61.1422C69.1423 60.6822 69.7791 60.573 70.2391 60.8985L87.7022 73.2506C88.1622 73.5759 88.7991 73.4669 89.1244 73.0069L106.969 47.7784L108.907 49.1492C109.66 49.682 110.682 49.0381 110.526 48.1289L108.725 37.6195C108.628 37.0562 108.093 36.6775 107.529 36.7741Z" fill="#990000"/>
<path opacity="0.2" d="M107.529 36.7741L97.0195 38.5757C96.1102 38.7316 95.8432 39.909 96.5965 40.4417L98.5348 41.8126L86.6558 58.6066C86.3306 59.0666 85.6937 59.1758 85.2337 58.8503L67.7719 46.4969C67.3119 46.1713 66.6751 46.2806 66.3498 46.7406L31.1445 96.5098H43.7983L68.817 61.1422C69.1423 60.6822 69.7791 60.573 70.2391 60.8985L87.7022 73.2506C88.1622 73.5759 88.7991 73.4669 89.1244 73.0069L106.969 47.7784L108.907 49.1492C109.66 49.682 110.682 49.0381 110.526 48.1289L108.725 37.6195C108.628 37.0562 108.093 36.6775 107.529 36.7741Z" fill="black"/>
<path opacity="0.2" d="M43.0037 95.0469H34.0983C34.0731 95.0469 34.0503 95.0329 34.0388 95.0107C34.0272 94.9884 34.0291 94.9616 34.0436 94.9412L66.6577 48.8344C66.8254 48.5972 67.0755 48.4396 67.3616 48.3905C67.6467 48.3414 67.9357 48.4066 68.1732 48.5746L85.6355 60.9283C85.8432 61.0754 86.0966 61.1323 86.347 61.0896C86.5979 61.0467 86.8169 60.9085 86.964 60.7005L100.572 41.4626L98.4138 39.9364C98.3918 39.9208 98.381 39.8932 98.3869 39.8669C98.3928 39.8403 98.4146 39.8202 98.4411 39.8156L107.286 38.2995C107.304 38.2966 107.322 38.3006 107.336 38.3108C107.35 38.321 107.36 38.3366 107.363 38.3543L108.879 47.1992C108.884 47.226 108.872 47.2529 108.849 47.2674C108.826 47.2819 108.797 47.281 108.774 47.2655L106.617 45.7392L88.8107 70.913C88.6429 71.1503 88.3928 71.3078 88.1067 71.3569C87.8209 71.4055 87.5321 71.3408 87.2951 71.1731L69.8323 58.821C69.404 58.5178 68.8074 58.6197 68.5038 59.0489L43.0581 95.0192C43.0458 95.0364 43.0254 95.0469 43.0037 95.0469ZM34.2282 94.9127H42.969L68.3944 58.9708C68.7408 58.4813 69.4201 58.3648 69.9099 58.711L87.3727 71.0631C87.5804 71.2101 87.8346 71.2676 88.0839 71.2244C88.3351 71.1814 88.5541 71.0432 88.7012 70.8355L106.546 45.6069C106.556 45.5924 106.572 45.5825 106.589 45.5795C106.607 45.5763 106.625 45.5806 106.64 45.5908L108.72 47.0623L107.243 38.4431L98.6234 39.9205L100.704 41.392C100.718 41.4022 100.728 41.4178 100.731 41.4355C100.734 41.453 100.73 41.4709 100.72 41.4854L87.0735 60.778C86.9057 61.0153 86.6556 61.1728 86.3695 61.2219C86.0831 61.271 85.7952 61.2056 85.5579 61.0378L68.0956 48.6841C67.8877 48.5368 67.6343 48.4799 67.3842 48.5228C67.1332 48.5658 66.9142 48.704 66.7672 48.9117L34.2282 94.9127Z" fill="white"/>
<path d="M93.4097 79.665H92.3066V96.0761H93.4097V79.665Z" fill="#263238"/>
<path d="M103.058 70.7229H101.955V96.0763H103.058V70.7229Z" fill="#263238"/>
<path d="M112.888 76.8027H111.785V96.0763H112.888V76.8027Z" fill="#263238"/>
<path d="M92.3058 79.665H84.5723V96.0761H92.3058V79.665Z" fill="#990000"/>
<path opacity="0.2" d="M84.5723 79.665V89.3953L88.4391 79.665H84.5723Z" fill="white"/>
<path d="M101.956 70.7229H94.2227V96.0763H101.956V70.7229Z" fill="#990000"/>
<path opacity="0.2" d="M94.2227 70.7229V80.4532L98.0894 70.7229H94.2227Z" fill="white"/>
<path d="M111.784 76.8027H104.051V96.0763H111.784V76.8027Z" fill="#990000"/>
<path opacity="0.2" d="M104.051 76.8027V85.4635L107.918 76.8027H104.051Z" fill="white"/>
<path d="M66.5799 94.7337L64.5059 94.3435L64.8577 89.4368L66.9317 89.827L66.5799 94.7337Z" fill="#7F3E3B"/>
<path d="M80.5381 94.6789H78.4278L77.9023 89.7917H80.0126L80.5381 94.6789Z" fill="#7F3E3B"/>
<path d="M78.2541 94.4348H80.8271C80.9135 94.4348 80.9881 94.4947 81.0066 94.5789L81.4234 96.4549C81.4666 96.6495 81.3136 96.8336 81.1145 96.8301C80.2868 96.8159 79.6827 96.7673 78.64 96.7673C77.9986 96.7673 76.0642 96.8338 75.1785 96.8338C74.3122 96.8338 74.1769 95.9579 74.5398 95.8787C76.1659 95.5231 77.391 95.0325 77.9117 94.5644C78.0056 94.4802 78.128 94.4348 78.2541 94.4348Z" fill="#263238"/>
<path d="M64.55 93.8881L66.8212 94.2796C66.9063 94.2944 66.9697 94.3661 66.9739 94.4522L67.066 96.3716C67.0754 96.5705 66.8988 96.7272 66.7029 96.6899C65.8859 96.5348 64.7104 96.2825 63.6807 96.1052C62.4767 95.8977 61.889 95.7471 60.4771 95.5037C59.6233 95.3564 59.8107 94.4227 60.1813 94.406C61.8697 94.3306 62.4657 94.588 64.021 93.9635C64.1901 93.8959 64.3707 93.8569 64.55 93.8881Z" fill="#263238"/>
<path d="M71.7739 30.0965C71.7031 30.3088 71.6459 30.4668 71.5794 30.6458C71.516 30.8203 71.446 30.9896 71.3762 31.1592C71.2358 31.4979 71.088 31.8315 70.9326 32.163C70.625 32.8272 70.275 33.4735 69.8883 34.1092C69.1071 35.3712 68.1758 36.6027 66.8637 37.621C66.5261 37.8665 66.178 38.1054 65.7837 38.3021C65.6893 38.3544 65.5894 38.4019 65.4866 38.446C65.3806 38.4919 65.2931 38.5345 65.1718 38.581C64.9002 38.6832 64.6651 38.7366 64.4402 38.7801C63.9934 38.8606 63.5994 38.8762 63.2124 38.8848C62.8276 38.8925 62.4564 38.8762 62.0914 38.8485C60.633 38.7366 59.264 38.4733 57.8867 38.0874L58.0974 36.5169C59.4353 36.4661 60.8 36.4245 62.0788 36.3118C62.3979 36.2804 62.7108 36.2428 63.0082 36.1988C63.3029 36.1535 63.5914 36.0931 63.8114 36.0206C63.9199 35.9865 64.0151 35.9474 64.0597 35.9186C64.1482 35.8652 64.2669 35.8142 64.3675 35.7434C64.5785 35.6194 64.7838 35.4503 64.9875 35.2788C65.3941 34.9219 65.7835 34.4944 66.1383 34.0126C66.4992 33.5373 66.8328 33.0183 67.1417 32.4748C67.4565 31.9354 67.7391 31.3667 68.014 30.7926C68.1498 30.5047 68.2797 30.2132 68.402 29.9201L68.5821 29.4816L68.7439 29.0688L71.7739 30.0965Z" fill="#7F3E3B"/>
<path d="M70.7563 27.6213C74.6073 27.6179 70.3752 35.937 70.3752 35.937L65.4609 33.9505C65.4609 33.9505 66.802 31.0552 67.6855 29.401C68.5207 27.8371 69.9031 27.6219 70.7563 27.6213Z" fill="#990000"/>
<g opacity="0.3">
<path d="M70.7563 27.6213C74.6073 27.6179 70.3752 35.937 70.3752 35.937L65.4609 33.9505C65.4609 33.9505 66.802 31.0552 67.6855 29.401C68.5207 27.8371 69.9031 27.6219 70.7563 27.6213Z" fill="white"/>
</g>
<path opacity="0.2" d="M69.8144 30.3101C68.4054 31.2996 67.4256 33.1385 67.1465 34.6309L69.954 35.7689C70.4639 35.0067 70.9604 34.1076 71.5079 33.3186C71.6582 32.908 71.8058 32.4759 71.9346 32.0384L69.8144 30.3101Z" fill="black"/>
<path d="M59.3008 36.7053L57.6119 35.7517L56.3184 38.1765C56.3184 38.1765 57.4804 38.3985 58.5709 38.1193L59.3008 36.7053Z" fill="#7F3E3B"/>
<path d="M56.0102 35.752L55.0703 37.8831L56.3196 38.1765L57.6129 35.752H56.0102Z" fill="#7F3E3B"/>
<path opacity="0.2" d="M64.8575 89.438L64.6758 91.9672L66.7506 92.3574L66.9323 89.8282L64.8575 89.438Z" fill="black"/>
<path opacity="0.2" d="M80.0137 89.7927H77.9023L78.1742 92.312H80.2855L80.0137 89.7927Z" fill="black"/>
<path d="M81.2591 28.5417C80.6082 30.8736 80.1923 33.2485 79.918 35.4835C79.7186 37.119 79.5983 38.6794 79.5243 40.0948C79.349 43.4119 79.4217 45.9411 79.3232 46.7981C77.673 46.6837 71.4541 46.2511 68.0635 46.0139C66.5299 34.0093 69.4582 27.8243 69.4582 27.8243C69.4582 27.8243 70.7048 27.5758 72.1535 27.491C72.3444 27.4786 72.5384 27.4719 72.7354 27.4682C74.0107 27.4411 76.0896 27.6324 77.5227 27.8015C77.8241 27.8372 78.1287 27.8815 78.425 27.9292C79.9322 28.1743 81.2591 28.5417 81.2591 28.5417Z" fill="#990000"/>
<g opacity="0.3">
<path d="M81.2591 28.5417C80.6082 30.8736 80.1923 33.2485 79.918 35.4835C79.7186 37.119 79.5983 38.6794 79.5243 40.0948C79.349 43.4119 79.4217 45.9411 79.3232 46.7981C77.673 46.6837 71.4541 46.2511 68.0635 46.0139C66.5299 34.0093 69.4582 27.8243 69.4582 27.8243C69.4582 27.8243 70.7048 27.5758 72.1535 27.491C72.3444 27.4786 72.5384 27.4719 72.7354 27.4682C74.0107 27.4411 76.0896 27.6324 77.5227 27.8015C77.8241 27.8372 78.1287 27.8815 78.425 27.9292C79.9322 28.1743 81.2591 28.5417 81.2591 28.5417Z" fill="white"/>
</g>
<path opacity="0.2" d="M78.4161 31.5786C78.4099 33.4656 78.9306 35.0603 79.81 36.458C79.8414 36.1367 79.8787 35.8123 79.9185 35.4843C80.0687 34.2557 80.2625 32.9836 80.5193 31.6986L78.4161 31.5786Z" fill="black"/>
<path d="M77.423 22.3779C77.0135 23.8969 76.5154 26.698 77.521 27.8008C76.6742 28.5592 75.4558 29.1698 73.7283 29.0114C72.4052 28.8904 72.403 27.9594 72.7345 27.4669C74.4805 27.1765 74.5251 25.8993 74.3096 24.6817L77.423 22.3779Z" fill="#7F3E3B"/>
<path d="M72.7617 29.5121C72.7749 29.7094 72.8602 30.0017 72.9281 30.2094C72.9762 30.3556 73.1114 30.4539 73.2652 30.4549C73.4552 30.456 73.7177 30.4668 73.9222 30.5105C74.0124 30.5298 74.1047 30.5132 74.1828 30.4643C74.4533 30.2953 74.7949 30.0438 74.7061 29.7327C74.6017 29.3675 73.9729 29.0371 73.9729 29.0371C73.9729 29.0371 72.9034 29.3033 72.7617 29.5121Z" fill="#263238"/>
<path d="M73.3263 30.2083C72.894 31.1513 71.8967 37.2014 71.7719 38.1184C71.6474 39.0352 72.069 40.5083 72.6538 41.6827C73.278 40.8811 73.6782 39.7692 73.7555 38.5175C73.8328 37.266 73.9082 30.3588 73.9082 30.3588L73.3263 30.2083Z" fill="#263238"/>
<path d="M73.9707 29.0366C73.9707 29.0366 74.6416 29.5828 74.9436 30.2387C75.6239 30.1866 78.619 28.8708 78.1942 27.8568C77.8214 27.7524 77.4929 27.5375 77.4 27.6488C77.2473 27.8644 75.9739 28.6322 73.9707 29.0366Z" fill="white"/>
<path d="M73.9705 29.0367C73.9705 29.0367 72.8205 29.4261 72.5513 30.0823C71.8576 29.7728 71.4821 28.3794 72.0921 27.4651C72.4781 27.4337 72.8441 27.2412 72.9142 27.3679C73.0229 27.6086 72.7239 28.2476 73.9705 29.0367Z" fill="white"/>
<path opacity="0.2" d="M76.1552 23.3184L74.3125 24.6809C74.3646 24.9691 74.4003 25.2603 74.4008 25.5408C75.0634 25.4917 76.0151 24.8344 76.1326 24.1522C76.1914 23.8122 76.1997 23.4818 76.1552 23.3184Z" fill="black"/>
<path d="M72.9518 17.4884C72.1397 17.8069 71.8501 20.922 73.4883 20.6163C75.1265 20.3104 74.5741 16.8521 72.9518 17.4884Z" fill="#263238"/>
<path d="M78.2686 20.6054C77.6127 22.5943 77.3298 23.7921 76.0357 24.561C74.0892 25.718 71.8372 24.1356 71.8855 21.9905C71.9293 20.0597 72.9945 17.1312 75.1852 16.8473C77.3433 16.5676 78.9245 18.6161 78.2686 20.6054Z" fill="#7F3E3B"/>
<path d="M77.5207 21.9748C76.6874 21.9899 76.0014 19.4631 77.6863 18.7583C76.3595 18.6051 72.289 18.8289 71.5585 17.0099C70.8279 15.1908 73.6607 14.9077 74.6225 15.5934C74.3168 14.5945 75.5618 13.1184 77.802 14.4603C80.0421 15.8022 80.0124 17.457 79.8036 17.9492C80.8025 18.2176 80.9984 20.4392 79.894 20.7374C80.5413 21.6319 79.9815 23.518 78.237 23.1154C78.178 24.2112 76.9558 23.7308 77.0301 22.89C77.105 22.0495 77.5207 21.9748 77.5207 21.9748Z" fill="#263238"/>
<path d="M73.8011 22.4606L73.8022 22.4608C74.6377 22.675 75.1672 22.2002 75.1892 22.1801C75.2112 22.16 75.2125 22.1262 75.1924 22.1042C75.1723 22.0822 75.1382 22.0808 75.1164 22.1007C75.1114 22.1052 74.6057 22.5558 73.8288 22.3567C73.8001 22.3495 73.7705 22.3666 73.7633 22.3954C73.7563 22.4238 73.7732 22.4525 73.8011 22.4606Z" fill="#263238"/>
<path d="M78.6849 22.7159C78.2759 23.1054 77.7252 23.2693 77.2614 23.2506C76.5639 23.2221 76.4295 22.5463 76.8028 22.0004C77.1388 21.509 77.9066 20.9315 78.5204 21.2264C79.1251 21.5171 79.1527 22.2707 78.6849 22.7159Z" fill="#7F3E3B"/>
<path d="M63.9744 91.1484L67.4512 91.9736C67.4512 91.9736 68.6885 78.3792 69.7485 70.9097C70.0295 68.9291 70.4632 66.1442 71.1256 63.1759C71.9616 59.4361 73.0101 55.3922 73.8687 52.2253C74.7745 48.8902 75.4642 46.5295 75.4642 46.5295L68.0615 46.0134C68.0615 46.0134 64.056 63.4832 63.6314 69.91C63.1886 76.5929 63.9744 91.1484 63.9744 91.1484Z" fill="#263238"/>
<path opacity="0.2" d="M71.1289 63.1759C71.9648 59.4361 73.0134 55.3922 73.8719 52.2253L73.1038 50.571C71.2673 52.753 70.7735 59.5069 71.1289 63.1759Z" fill="black"/>
<path d="M72.0566 46.2917C72.0566 46.2917 72.8556 64.3595 73.7464 70.4785C74.7219 77.1793 77.1998 91.8242 77.1998 91.8242H81.065C81.065 91.8242 79.9915 77.9037 79.2645 71.3416C78.4363 63.8667 79.3222 46.799 79.3222 46.799L72.0566 46.2917Z" fill="#263238"/>
<path d="M76.7367 91.9076H81.2884L81.4894 90.548L76.4648 90.4595L76.7367 91.9076Z" fill="#990000"/>
<path d="M63.7524 91.3824L67.7166 92.1282L68.1643 90.7464L63.6445 89.8892L63.7524 91.3824Z" fill="#990000"/>
<path d="M75.2096 20.4468C75.1664 20.6113 75.044 20.7219 74.9364 20.6937C74.8287 20.6656 74.7767 20.5091 74.8199 20.3443C74.8631 20.1798 74.9855 20.0692 75.0931 20.0974C75.2007 20.1259 75.253 20.282 75.2096 20.4468Z" fill="#263238"/>
<path d="M73.3522 19.9573C73.3089 20.1218 73.1866 20.2324 73.0789 20.2042C72.9713 20.1761 72.9193 20.0196 72.9625 19.8548C73.0057 19.6903 73.1281 19.5797 73.2357 19.6079C73.3433 19.6361 73.3954 19.7928 73.3522 19.9573Z" fill="#263238"/>
<path d="M73.7622 20.1116C73.7622 20.1116 73.1379 20.9629 72.6055 21.3126C72.8253 21.6609 73.3862 21.6314 73.3862 21.6314L73.7622 20.1116Z" fill="#630F0F"/>
<path d="M75.7882 19.914C75.752 19.911 75.7184 19.8885 75.7037 19.8522C75.5341 19.44 75.1728 19.3673 75.1693 19.3665C75.1151 19.3563 75.0794 19.3039 75.0896 19.2495C75.0998 19.1955 75.15 19.1585 75.2064 19.1698C75.2254 19.1735 75.6782 19.2645 75.8883 19.776C75.9093 19.827 75.8848 19.8855 75.8338 19.9064C75.8191 19.9126 75.8032 19.915 75.7882 19.914Z" fill="#263238"/>
<path d="M72.5644 19.0237C72.544 19.0221 72.5239 19.0143 72.5075 18.9998C72.4656 18.9639 72.4608 18.9008 72.4968 18.8589C72.8569 18.4394 73.3148 18.4939 73.3346 18.4971C73.3894 18.5044 73.4278 18.5546 73.4205 18.6093C73.4133 18.6638 73.3604 18.7022 73.3089 18.6952C73.293 18.6944 72.9366 18.6533 72.6484 18.9888C72.6267 19.0143 72.5953 19.0261 72.5644 19.0237Z" fill="#263238"/>
<path d="M77.5574 94.8036C77.3969 94.8036 77.2466 94.7762 77.1511 94.696C77.0757 94.6324 77.0408 94.5435 77.0477 94.4319C77.0531 94.3487 77.0971 94.3092 77.1334 94.2907C77.3677 94.1702 78.0475 94.5892 78.1245 94.6372C78.1417 94.6479 78.1505 94.6678 78.1473 94.6877C78.1441 94.7075 78.129 94.7233 78.1097 94.7282C77.9632 94.7631 77.7525 94.8036 77.5574 94.8036ZM77.2439 94.3667C77.2179 94.3667 77.1959 94.3707 77.179 94.3793C77.1656 94.3863 77.1497 94.3992 77.1476 94.4381C77.1425 94.5175 77.1648 94.5771 77.2155 94.6195C77.3312 94.7164 77.6065 94.7295 77.9648 94.6576C77.7265 94.5196 77.4058 94.3667 77.2439 94.3667Z" fill="#990000"/>
<path d="M78.0998 94.729C78.0915 94.729 78.0834 94.7271 78.0759 94.7231C77.8574 94.6045 77.4353 94.1421 77.4798 93.9067C77.4879 93.864 77.5195 93.7902 77.639 93.7757C77.716 93.7666 77.7879 93.7878 77.8521 93.8402C78.0971 94.0406 78.1476 94.6496 78.1497 94.6753C78.151 94.6939 78.1425 94.7113 78.1272 94.7212C78.1186 94.7261 78.1092 94.729 78.0998 94.729ZM77.6736 93.8734C77.6661 93.8734 77.6586 93.874 77.6511 93.8748C77.5861 93.8828 77.5805 93.9126 77.5781 93.9252C77.5515 94.064 77.8207 94.4137 78.0378 94.5785C78.0131 94.4005 77.9457 94.0455 77.7885 93.9172C77.7525 93.8879 77.7149 93.8734 77.6736 93.8734Z" fill="#990000"/>
<path d="M64.2968 94.1396C64.2938 94.1402 64.2909 94.1407 64.2879 94.1407C63.9412 94.1496 63.3309 94.1286 63.1379 93.8874C63.0797 93.8146 63.0625 93.7287 63.0869 93.6319C63.1014 93.5742 63.1374 93.5336 63.1908 93.5149C63.4656 93.4212 64.2305 93.9859 64.3164 94.0508C64.3333 94.0637 64.3403 94.0857 64.3338 94.1061C64.3287 94.1235 64.314 94.1361 64.2968 94.1396ZM63.2378 93.6056C63.2329 93.6066 63.2284 93.6077 63.2241 93.6093C63.2023 93.6168 63.1903 93.6311 63.1841 93.6565C63.1675 93.7223 63.1779 93.7776 63.216 93.8251C63.3245 93.9604 63.6631 94.0393 64.1355 94.0422C63.8295 93.8259 63.3999 93.5717 63.2378 93.6056Z" fill="#990000"/>
<path d="M64.2982 94.1397C64.2854 94.1424 64.2714 94.14 64.2601 94.1322C64.0285 93.9763 63.6088 93.4409 63.6874 93.2122C63.7059 93.1588 63.7575 93.0966 63.8946 93.1062C63.9968 93.1132 64.0838 93.1578 64.1533 93.2377C64.3804 93.5005 64.3398 94.0705 64.338 94.0947C64.3366 94.1124 64.3259 94.1279 64.31 94.136C64.306 94.1379 64.3023 94.1389 64.2982 94.1397ZM63.8299 93.2087C63.7918 93.2168 63.7848 93.2369 63.7821 93.245C63.7349 93.3821 64.0121 93.7938 64.2416 93.9919C64.2432 93.8236 64.2268 93.4758 64.0776 93.3032C64.0258 93.2431 63.9636 93.2114 63.8879 93.2061C63.8632 93.2045 63.8441 93.2055 63.8299 93.2087Z" fill="#990000"/>
<path d="M71.6853 37.9671L70.83 37.356L56.7949 57.0036L57.6502 57.6147C63.0758 61.4903 70.6161 60.2341 74.4918 54.8086C78.3674 49.3828 77.1109 41.8427 71.6853 37.9671Z" fill="#990000"/>
<path opacity="0.1" d="M71.6853 37.9671L70.83 37.356L56.7949 57.0036L57.6502 57.6147C63.0758 61.4903 70.6161 60.2341 74.4918 54.8086C78.3674 49.3828 77.1109 41.8427 71.6853 37.9671Z" fill="black"/>
<path d="M50.8959 48.7153C50.6962 47.0407 50.8178 45.3719 51.2574 43.7546L51.5164 43.825C51.0862 45.4086 50.9668 47.0433 51.1624 48.6834L50.8959 48.7153Z" fill="#990000"/>
<path d="M51.7106 51.9548C51.4723 51.3483 51.278 50.7181 51.1328 50.0818L51.3945 50.022C51.5367 50.6451 51.7273 51.2624 51.9608 51.8566L51.7106 51.9548Z" fill="#990000"/>
<path d="M66.2504 59.0071C72.7814 57.6622 76.9857 51.2775 75.6408 44.7465C74.2959 38.2155 67.9112 34.0113 61.3802 35.3561C54.8491 36.701 50.6449 43.0857 51.9898 49.6167C53.3347 56.1477 59.7194 60.352 66.2504 59.0071Z" fill="#990000"/>
<path d="M60.9612 50.2327L62.8549 47.5817C62.1968 46.7548 61.8458 45.9645 61.8018 45.2098C61.758 44.4554 61.98 43.7367 62.4682 43.0534C62.9622 42.3618 63.5956 41.9366 64.3683 41.7783C65.1407 41.6197 65.9152 41.7638 66.6919 42.2104L67.1492 41.5703L68.0663 42.2254L67.6089 42.8655C68.2225 43.4248 68.5925 44.0348 68.7192 44.6953C68.8459 45.356 68.7385 46.042 68.3961 46.753L66.6463 45.8182C66.9047 45.2511 66.8926 44.7329 66.61 44.2635L64.8428 46.7374C65.6592 47.7349 66.0953 48.5827 66.15 49.2813C66.2053 49.9802 65.9887 50.671 65.5006 51.3543C64.9552 52.1178 64.2647 52.5961 63.4295 52.789C62.594 52.9823 61.7226 52.8441 60.816 52.3744L60.3587 53.0145L59.4414 52.3594L59.8762 51.7507C59.2098 51.1409 58.8115 50.4456 58.6814 49.6646C58.5509 48.8836 58.7195 48.0326 59.1867 47.1112L60.9644 48.1136C60.7908 48.4993 60.7095 48.8806 60.7202 49.2577C60.7318 49.6356 60.812 49.9603 60.9612 50.2327ZM65.7067 43.5896C65.3975 43.4962 65.0967 43.4978 64.8047 43.595C64.5121 43.6918 64.2789 43.8628 64.1042 44.1076C63.9445 44.3311 63.8637 44.5869 63.8616 44.8754C63.8594 45.1639 63.9534 45.465 64.1431 45.779L65.7067 43.5896ZM61.8152 50.9764C62.1738 51.1436 62.5355 51.1806 62.9013 51.0881C63.2669 50.9957 63.5626 50.7912 63.7886 50.4748C63.9904 50.1922 64.0811 49.8892 64.0607 49.5655C64.0401 49.2419 63.8793 48.8898 63.5779 48.5087L61.8152 50.9764Z" fill="white"/>
<path opacity="0.1" d="M73.5918 46.1611C73.0746 43.8995 71.7604 41.8112 69.7234 40.3561C65.304 37.1991 59.1619 38.2227 56.005 42.6418C54.5517 44.6761 53.9846 47.076 54.227 49.3819C53.6196 46.7338 54.1057 43.8482 55.8093 41.4634C58.9663 37.044 65.1076 36.0202 69.5269 39.1768C71.9136 40.8818 73.3095 43.4566 73.5918 46.1611Z" fill="black"/>
<path d="M81.5283 29.696C81.7932 30.0372 82.0181 30.3428 82.2443 30.6743C82.4701 30.9996 82.6896 31.3278 82.9054 31.6587C83.3313 32.3243 83.7363 33.0054 84.112 33.7075C84.4939 34.4058 84.8369 35.1339 85.1538 35.8811L85.3852 36.4465L85.5932 37.0289C85.6648 37.2203 85.7225 37.424 85.7834 37.6237L85.8739 37.924L85.8964 37.9991L85.9378 38.1617C85.9667 38.278 85.9775 38.3875 85.9904 38.5007C86.0228 38.9427 85.9431 39.3128 85.8444 39.6164C85.7432 39.9207 85.6136 40.1665 85.4821 40.3904C85.2158 40.834 84.927 41.1807 84.6348 41.5063C84.046 42.1458 83.4263 42.6686 82.7959 43.1611C81.528 44.1377 80.2149 44.9493 78.8169 45.6817L77.9492 44.3559C79.0721 43.3973 80.1966 42.3882 81.2146 41.3659C81.7207 40.8536 82.2014 40.3235 82.5892 39.7997C82.78 39.5409 82.9494 39.2777 83.0489 39.0554C83.0991 38.9462 83.1303 38.8458 83.1402 38.7873C83.1509 38.7286 83.1327 38.717 83.1316 38.7801C83.1284 38.8 83.134 38.8139 83.1351 38.8391C83.1351 38.8469 83.1426 38.87 83.1402 38.8641L83.1166 38.8045L83.0224 38.5665C82.959 38.4079 82.9016 38.2492 82.8262 38.0906L82.6136 37.6151L82.3836 37.1398C82.0653 36.5085 81.7237 35.8803 81.3547 35.259C80.9838 34.6396 80.6008 34.0226 80.2009 33.4141C80.0029 33.109 79.801 32.8055 79.5946 32.5068L78.9838 31.6343L81.5283 29.696Z" fill="#7F3E3B"/>
<path d="M81.2592 28.5414C83.2372 28.9404 84.9722 33.7782 84.9722 33.7782L80.8443 37.1407C80.8443 37.1407 79.4917 34.6816 78.4096 32.3088C77.2311 29.7244 78.8634 28.058 81.2592 28.5414Z" fill="#990000"/>
<g opacity="0.3">
<path d="M81.2592 28.5414C83.2372 28.9404 84.9722 33.7782 84.9722 33.7782L80.8443 37.1407C80.8443 37.1407 79.4917 34.6816 78.4096 32.3088C77.2311 29.7244 78.8634 28.058 81.2592 28.5414Z" fill="white"/>
</g>
<path d="M78.4365 44.1721L76.3066 44.404L77.6896 46.7179C77.6896 46.7179 79.459 46.1179 79.2457 45.145L78.4365 44.1721Z" fill="#7F3E3B"/>
<path d="M75.0391 45.6265L76.2717 47.4853L77.6925 46.718L76.3096 44.4041L75.0391 45.6265Z" fill="#7F3E3B"/>
</svg>
